<?xml version="1.0" encoding="UTF-8" standalone="no"?>
<svg
   xmlns:dc="http://purl.org/dc/elements/1.1/"
   xmlns:cc="http://creativecommons.org/ns#"
   xmlns:rdf="http://www.w3.org/1999/02/22-rdf-syntax-ns#"
   xmlns:svg="http://www.w3.org/2000/svg"
   xmlns="http://www.w3.org/2000/svg"
   xmlns:sodipodi="http://sodipodi.sourceforge.net/DTD/sodipodi-0.dtd"
   xmlns:inkscape="http://www.inkscape.org/namespaces/inkscape"
   viewBox="0 0 300 300"
   version="1.1"
   id="svg1125"
   sodipodi:docname="paper.svg"
   width="300"
   height="300"
   inkscape:version="1.0 (b51213c273, 2020-08-10)">
  <metadata
     id="metadata1129">
    <rdf:RDF>
      <cc:Work
         rdf:about="">
        <dc:format>image/svg+xml</dc:format>
        <dc:type
           rdf:resource="http://purl.org/dc/dcmitype/StillImage" />
        <dc:title>rock-paper-scissors-vector-line-icons</dc:title>
      </cc:Work>
    </rdf:RDF>
  </metadata>
  <sodipodi:namedview
     pagecolor="#ffffff"
     bordercolor="#666666"
     borderopacity="1"
     objecttolerance="10"
     gridtolerance="10"
     guidetolerance="10"
     inkscape:pageopacity="0"
     inkscape:pageshadow="2"
     inkscape:window-width="1920"
     inkscape:window-height="1056"
     id="namedview1127"
     showgrid="false"
     inkscape:zoom="0.76148148"
     inkscape:cx="675.90334"
     inkscape:cy="295.17588"
     inkscape:window-x="1280"
     inkscape:window-y="0"
     inkscape:window-maximized="1"
     inkscape:current-layer="svg1125" />
  <defs
     id="defs4">
    <style
       id="style2">.cls-1{fill:#fcfcfc;}.cls-2{fill:#40dcff;}.cls-3{fill:#fff;}.cls-4{fill:#009fff;}.cls-5{fill:none;stroke:#262626;stroke-linecap:round;stroke-linejoin:round;stroke-width:4px;}.cls-6{fill:#262626;}.cls-7{fill:#fced19;}.cls-8{fill:#ff9d00;}.cls-9{fill:#ff85ff;}.cls-10{fill:#ff0bff;}</style>
  </defs>
  <title
     id="title6">rock-paper-scissors-vector-line-icons</title>
  <g
     id="Icons"
     transform="translate(586.38629,-160.07355)">
    <rect
       class="cls-7"
       x="-586.38629"
       y="160.07355"
       width="300"
       height="300"
       rx="150"
       id="rect573" />
    <path
       class="cls-7"
       d="m -362.99629,242.32355 v 8.05 h -30.12 v -8.05 a 15.06,15.06 0 0 1 30.12,0 z"
       id="path575" />
    <path
       class="cls-8"
       d="m -390.51629,249.26355 a 1.44,1.44 0 0 0 -2.6,-0.85 v 1.71 a 1.88,1.88 0 0 0 0.24,0.25 h 1.83 a 1.43,1.43 0 0 0 0.53,-1.11 z"
       id="path577" />
    <path
       class="cls-8"
       d="m -388.38629,244.22355 a 1.44,1.44 0 1 0 1.44,1.44 1.44,1.44 0 0 0 -1.44,-1.44 z"
       id="path579" />
    <path
       class="cls-8"
       d="m -390.51629,234.82355 a 1.38,1.38 0 0 0 -0.19,-0.69 14.88,14.88 0 0 0 -1.14,2.12 1.43,1.43 0 0 0 1.33,-1.43 z"
       id="path581" />
    <path
       class="cls-8"
       d="m -386.91629,231.26355 a 1.45,1.45 0 0 0 -0.3,-0.86 14.79,14.79 0 0 0 -2.09,1.94 1.44,1.44 0 0 0 2.39,-1.08 z"
       id="path583" />
    <path
       class="cls-8"
       d="m -388.38629,237.02355 a 1.44,1.44 0 1 0 1.44,1.44 1.44,1.44 0 0 0 -1.44,-1.44 z"
       id="path585" />
    <path
       class="cls-8"
       d="m -391.95629,243.50355 a 1.44,1.44 0 1 0 0,-2.88 1.46,1.46 0 0 0 -1.1,0.52 c 0,0.39 -0.06,0.78 -0.06,1.18 v 0.6 a 1.44,1.44 0 0 0 1.16,0.58 z"
       id="path587" />
    <path
       class="cls-8"
       d="m -376.11629,249.26355 a 1.44,1.44 0 1 0 -2.88,0 1.42,1.42 0 0 0 0.52,1.11 h 1.83 a 1.43,1.43 0 0 0 0.53,-1.11 z"
       id="path589" />
    <path
       class="cls-8"
       d="m -383.31629,249.26355 a 1.44,1.44 0 0 0 -2.88,0 1.42,1.42 0 0 0 0.52,1.11 h 1.83 a 1.43,1.43 0 0 0 0.53,-1.11 z"
       id="path591" />
    <path
       class="cls-8"
       d="m -381.15629,244.22355 a 1.44,1.44 0 1 0 1.44,1.44 1.44,1.44 0 0 0 -1.44,-1.44 z"
       id="path593" />
    <path
       class="cls-8"
       d="m -373.95629,244.22355 a 1.44,1.44 0 1 0 1.44,1.44 1.44,1.44 0 0 0 -1.44,-1.44 z"
       id="path595" />
    <path
       class="cls-8"
       d="m -377.55629,233.42355 a 1.44,1.44 0 1 0 1.44,1.44 1.44,1.44 0 0 0 -1.44,-1.44 z"
       id="path597" />
    <path
       class="cls-8"
       d="m -384.75629,233.42355 a 1.44,1.44 0 1 0 1.44,1.44 1.44,1.44 0 0 0 -1.44,-1.44 z"
       id="path599" />
    <path
       class="cls-8"
       d="m -381.15629,229.82355 a 1.44,1.44 0 1 0 1.44,1.44 1.44,1.44 0 0 0 -1.44,-1.44 z"
       id="path601" />
    <path
       class="cls-8"
       d="m -373.95629,229.82355 a 1.44,1.44 0 1 0 1.44,1.44 1.44,1.44 0 0 0 -1.44,-1.44 z"
       id="path603" />
    <path
       class="cls-8"
       d="m -381.15629,237.02355 a 1.44,1.44 0 1 0 1.44,1.44 1.44,1.44 0 0 0 -1.44,-1.44 z"
       id="path605" />
    <path
       class="cls-8"
       d="m -373.95629,237.02355 a 1.44,1.44 0 1 0 1.44,1.44 1.44,1.44 0 0 0 -1.44,-1.44 z"
       id="path607" />
    <path
       class="cls-8"
       d="m -377.55629,240.62355 a 1.44,1.44 0 1 0 1.44,1.44 1.44,1.44 0 0 0 -1.44,-1.44 z"
       id="path609" />
    <path
       class="cls-8"
       d="m -384.75629,240.62355 a 1.44,1.44 0 1 0 1.44,1.44 1.44,1.44 0 0 0 -1.44,-1.44 z"
       id="path611" />
    <path
       class="cls-8"
       d="m -377.55629,229.10355 a 1.44,1.44 0 0 0 1.44,-1.44 1.15,1.15 0 0 0 0,-0.26 14.78,14.78 0 0 0 -1.9,-0.13 c -0.3,0 -0.6,0 -0.91,0.05 a 1.86,1.86 0 0 0 0,0.34 1.43,1.43 0 0 0 1.37,1.44 z"
       id="path613" />
    <path
       class="cls-8"
       d="m -383.46629,228.29355 a 14.13,14.13 0 0 0 -1.68,0.76 1.6,1.6 0 0 0 0.39,0.05 1.44,1.44 0 0 0 1.29,-0.81 z"
       id="path615" />
    <path
       class="cls-8"
       d="m -364.59629,249.26355 a 1.42,1.42 0 0 0 0.52,1.11 h 1.08 v -2.55 h -0.16 a 1.44,1.44 0 0 0 -1.44,1.44 z"
       id="path617" />
    <path
       class="cls-8"
       d="m -368.91629,249.26355 a 1.44,1.44 0 0 0 -2.88,0 1.42,1.42 0 0 0 0.52,1.11 h 1.83 a 1.43,1.43 0 0 0 0.53,-1.11 z"
       id="path619" />
    <path
       class="cls-8"
       d="m -366.75629,244.22355 a 1.44,1.44 0 1 0 1.44,1.44 1.44,1.44 0 0 0 -1.44,-1.44 z"
       id="path621" />
    <path
       class="cls-8"
       d="m -370.38629,233.42355 a 1.44,1.44 0 1 0 1.44,1.44 1.44,1.44 0 0 0 -1.44,-1.44 z"
       id="path623" />
    <path
       class="cls-8"
       d="m -366.75629,232.70355 h 0.26 a 15.86,15.86 0 0 0 -1.68,-1.7 2.64,2.64 0 0 0 0,0.28 1.43,1.43 0 0 0 1.42,1.42 z"
       id="path625" />
    <path
       class="cls-8"
       d="m -366.75629,237.02355 a 1.44,1.44 0 1 0 1.44,1.44 1.44,1.44 0 0 0 -1.44,-1.44 z"
       id="path627" />
    <path
       class="cls-8"
       d="m -364.59629,242.06355 a 1.43,1.43 0 0 0 1.44,1.44 h 0.16 v -1.18 a 15.81,15.81 0 0 0 -0.1,-1.69 h -0.06 a 1.44,1.44 0 0 0 -1.44,1.43 z"
       id="path629" />
    <path
       class="cls-8"
       d="m -370.38629,240.62355 a 1.44,1.44 0 1 0 1.44,1.44 1.44,1.44 0 0 0 -1.44,-1.44 z"
       id="path631" />
    <path
       class="cls-3"
       d="m -393.11629,227.27355 h 15.07 a 15.06,15.06 0 0 0 -15.07,15.05 v 135.5 a 15.045,15.045 0 1 1 -30.09,0 v -7.53 h -67.76 v -128 a 15,15 0 0 1 15.05,-15.05 h 82.8 z"
       id="path633" />
    <path
       class="cls-7"
       d="m -408.16629,392.87355 h -86.56 a 15,15 0 0 1 -15,-15.05 v -3.77 a 3.77,3.77 0 0 1 3.77,-3.76 h 82.8 v 7.53 a 15,15 0 0 0 14.99,15.05 z"
       id="path635" />
    <path
       class="cls-8"
       d="m -503.55629,388.22355 a 1.44,1.44 0 0 0 -1.26,0.75 14.53,14.53 0 0 0 2.28,1.7 1.41,1.41 0 0 0 0.42,-1 1.45,1.45 0 0 0 -1.44,-1.45 z"
       id="path637" />
    <path
       class="cls-8"
       d="m -507.15629,377.42355 a 1.44,1.44 0 1 0 1.44,1.44 1.44,1.44 0 0 0 -1.44,-1.44 z"
       id="path639" />
    <path
       class="cls-8"
       d="m -509.31629,375.26355 a 1.42,1.42 0 0 0 -0.46,-1 v 2.09 a 1.43,1.43 0 0 0 0.46,-1.09 z"
       id="path641" />
    <path
       class="cls-8"
       d="m -503.55629,373.82355 a 1.44,1.44 0 1 0 1.44,1.44 1.44,1.44 0 0 0 -1.44,-1.44 z"
       id="path643" />
    <path
       class="cls-8"
       d="m -503.55629,381.02355 a 1.44,1.44 0 1 0 1.44,1.44 1.44,1.44 0 0 0 -1.44,-1.44 z"
       id="path645" />
    <path
       class="cls-8"
       d="m -505.71629,386.06355 a 1.45,1.45 0 0 0 -1.44,-1.44 1.41,1.41 0 0 0 -0.85,0.29 15.69,15.69 0 0 0 1.58,2.39 1.46,1.46 0 0 0 0.71,-1.24 z"
       id="path647" />
    <path
       class="cls-8"
       d="m -507.15629,373.10355 a 1.44,1.44 0 0 0 0.57,-2.76 3.79,3.79 0 0 0 -2,0.94 1.65,1.65 0 0 0 -0.05,0.38 1.43,1.43 0 0 0 1.48,1.44 z"
       id="path649" />
    <path
       class="cls-8"
       d="m -492.75629,391.82355 a 1.44,1.44 0 0 0 -1.38,1.05 h 2.75 a 1.44,1.44 0 0 0 -1.37,-1.05 z"
       id="path651" />
    <path
       class="cls-8"
       d="m -499.95629,391.82355 h -0.21 c 0.41,0.16 0.82,0.31 1.24,0.43 a 1.41,1.41 0 0 0 -1.03,-0.43 z"
       id="path653" />
    <path
       class="cls-8"
       d="m -496.38629,388.22355 a 1.44,1.44 0 1 0 1.44,1.44 1.44,1.44 0 0 0 -1.44,-1.44 z"
       id="path655" />
    <path
       class="cls-8"
       d="m -489.15629,388.22355 a 1.44,1.44 0 1 0 1.44,1.44 1.44,1.44 0 0 0 -1.44,-1.44 z"
       id="path657" />
    <path
       class="cls-8"
       d="m -492.75629,377.42355 a 1.44,1.44 0 1 0 1.44,1.44 1.44,1.44 0 0 0 -1.44,-1.44 z"
       id="path659" />
    <path
       class="cls-8"
       d="m -499.95629,377.42355 a 1.44,1.44 0 1 0 1.44,1.44 1.44,1.44 0 0 0 -1.44,-1.44 z"
       id="path661" />
    <path
       class="cls-8"
       d="m -496.38629,373.82355 a 1.44,1.44 0 1 0 1.44,1.44 1.44,1.44 0 0 0 -1.44,-1.44 z"
       id="path663" />
    <path
       class="cls-8"
       d="m -489.15629,373.82355 a 1.44,1.44 0 1 0 1.44,1.44 1.44,1.44 0 0 0 -1.44,-1.44 z"
       id="path665" />
    <path
       class="cls-8"
       d="m -496.38629,381.02355 a 1.44,1.44 0 1 0 1.44,1.44 1.44,1.44 0 0 0 -1.44,-1.44 z"
       id="path667" />
    <path
       class="cls-8"
       d="m -489.15629,381.02355 a 1.44,1.44 0 1 0 1.44,1.44 1.44,1.44 0 0 0 -1.44,-1.44 z"
       id="path669" />
    <path
       class="cls-8"
       d="m -492.75629,384.62355 a 1.44,1.44 0 1 0 1.44,1.44 1.44,1.44 0 0 0 -1.44,-1.44 z"
       id="path671" />
    <path
       class="cls-8"
       d="m -499.95629,384.62355 a 1.44,1.44 0 1 0 1.44,1.44 1.44,1.44 0 0 0 -1.44,-1.44 z"
       id="path673" />
    <path
       class="cls-8"
       d="m -494.19629,371.66355 a 1.44,1.44 0 1 0 1.83,-1.37 h -0.79 a 1.43,1.43 0 0 0 -1.04,1.37 z"
       id="path675" />
    <path
       class="cls-8"
       d="m -501.38629,371.66355 a 1.44,1.44 0 1 0 1.83,-1.37 h -0.83 a 1.43,1.43 0 0 0 -1,1.37 z"
       id="path677" />
    <path
       class="cls-8"
       d="m -478.38629,391.82355 a 1.44,1.44 0 0 0 -1.38,1.05 h 2.75 a 1.44,1.44 0 0 0 -1.37,-1.05 z"
       id="path679" />
    <path
       class="cls-8"
       d="m -485.55629,391.82355 a 1.44,1.44 0 0 0 -1.38,1.05 h 2.75 a 1.44,1.44 0 0 0 -1.37,-1.05 z"
       id="path681" />
    <path
       class="cls-8"
       d="m -481.95629,388.22355 a 1.44,1.44 0 1 0 1.44,1.44 1.44,1.44 0 0 0 -1.44,-1.44 z"
       id="path683" />
    <path
       class="cls-8"
       d="m -474.75629,388.22355 a 1.44,1.44 0 1 0 1.44,1.44 1.44,1.44 0 0 0 -1.44,-1.44 z"
       id="path685" />
    <path
       class="cls-8"
       d="m -478.38629,377.42355 a 1.44,1.44 0 1 0 1.44,1.44 1.44,1.44 0 0 0 -1.44,-1.44 z"
       id="path687" />
    <path
       class="cls-8"
       d="m -485.55629,377.42355 a 1.44,1.44 0 1 0 1.44,1.44 1.44,1.44 0 0 0 -1.44,-1.44 z"
       id="path689" />
    <path
       class="cls-8"
       d="m -481.95629,373.82355 a 1.44,1.44 0 1 0 1.44,1.44 1.44,1.44 0 0 0 -1.44,-1.44 z"
       id="path691" />
    <path
       class="cls-8"
       d="m -474.75629,373.82355 a 1.44,1.44 0 1 0 1.44,1.44 1.44,1.44 0 0 0 -1.44,-1.44 z"
       id="path693" />
    <path
       class="cls-8"
       d="m -481.95629,381.02355 a 1.44,1.44 0 1 0 1.44,1.44 1.44,1.44 0 0 0 -1.44,-1.44 z"
       id="path695" />
    <path
       class="cls-8"
       d="m -474.75629,381.02355 a 1.44,1.44 0 1 0 1.44,1.44 1.44,1.44 0 0 0 -1.44,-1.44 z"
       id="path697" />
    <path
       class="cls-8"
       d="m -478.38629,384.62355 a 1.44,1.44 0 1 0 1.44,1.44 1.44,1.44 0 0 0 -1.44,-1.44 z"
       id="path699" />
    <path
       class="cls-8"
       d="m -485.55629,384.62355 a 1.44,1.44 0 1 0 1.44,1.44 1.44,1.44 0 0 0 -1.44,-1.44 z"
       id="path701" />
    <path
       class="cls-8"
       d="m -479.79629,371.66355 a 1.44,1.44 0 1 0 1.83,-1.37 h -0.79 a 1.43,1.43 0 0 0 -1.04,1.37 z"
       id="path703" />
    <path
       class="cls-8"
       d="m -486.99629,371.66355 a 1.44,1.44 0 1 0 1.83,-1.37 h -0.79 a 1.43,1.43 0 0 0 -1.04,1.37 z"
       id="path705" />
    <path
       class="cls-8"
       d="m -463.95629,391.82355 a 1.44,1.44 0 0 0 -1.38,1.05 h 2.75 a 1.44,1.44 0 0 0 -1.37,-1.05 z"
       id="path707" />
    <path
       class="cls-8"
       d="m -471.15629,391.82355 a 1.44,1.44 0 0 0 -1.38,1.05 h 2.75 a 1.44,1.44 0 0 0 -1.37,-1.05 z"
       id="path709" />
    <path
       class="cls-8"
       d="m -467.55629,388.22355 a 1.44,1.44 0 1 0 1.44,1.44 1.44,1.44 0 0 0 -1.44,-1.44 z"
       id="path711" />
    <path
       class="cls-8"
       d="m -460.38629,388.22355 a 1.44,1.44 0 1 0 1.44,1.44 1.44,1.44 0 0 0 -1.44,-1.44 z"
       id="path713" />
    <path
       class="cls-8"
       d="m -463.95629,377.42355 a 1.44,1.44 0 1 0 1.44,1.44 1.44,1.44 0 0 0 -1.44,-1.44 z"
       id="path715" />
    <path
       class="cls-8"
       d="m -471.15629,377.42355 a 1.44,1.44 0 1 0 1.44,1.44 1.44,1.44 0 0 0 -1.44,-1.44 z"
       id="path717" />
    <path
       class="cls-8"
       d="m -467.55629,373.82355 a 1.44,1.44 0 1 0 1.44,1.44 1.44,1.44 0 0 0 -1.44,-1.44 z"
       id="path719" />
    <path
       class="cls-8"
       d="m -460.38629,373.82355 a 1.44,1.44 0 1 0 1.44,1.44 1.44,1.44 0 0 0 -1.44,-1.44 z"
       id="path721" />
    <path
       class="cls-8"
       d="m -467.55629,381.02355 a 1.44,1.44 0 1 0 1.44,1.44 1.44,1.44 0 0 0 -1.44,-1.44 z"
       id="path723" />
    <path
       class="cls-8"
       d="m -460.38629,381.02355 a 1.44,1.44 0 1 0 1.44,1.44 1.44,1.44 0 0 0 -1.44,-1.44 z"
       id="path725" />
    <path
       class="cls-8"
       d="m -463.95629,384.62355 a 1.44,1.44 0 1 0 1.44,1.44 1.44,1.44 0 0 0 -1.44,-1.44 z"
       id="path727" />
    <path
       class="cls-8"
       d="m -471.15629,384.62355 a 1.44,1.44 0 1 0 1.44,1.44 1.44,1.44 0 0 0 -1.44,-1.44 z"
       id="path729" />
    <path
       class="cls-8"
       d="m -465.38629,371.66355 a 1.44,1.44 0 1 0 1.83,-1.37 h -0.83 a 1.43,1.43 0 0 0 -1,1.37 z"
       id="path731" />
    <path
       class="cls-8"
       d="m -472.59629,371.66355 a 1.44,1.44 0 1 0 1.83,-1.37 h -0.79 a 1.43,1.43 0 0 0 -1.04,1.37 z"
       id="path733" />
    <path
       class="cls-8"
       d="m -449.55629,391.82355 a 1.44,1.44 0 0 0 -1.38,1.05 h 2.75 a 1.44,1.44 0 0 0 -1.37,-1.05 z"
       id="path735" />
    <path
       class="cls-8"
       d="m -456.75629,391.82355 a 1.44,1.44 0 0 0 -1.38,1.05 h 2.75 a 1.44,1.44 0 0 0 -1.37,-1.05 z"
       id="path737" />
    <path
       class="cls-8"
       d="m -453.15629,388.22355 a 1.44,1.44 0 1 0 1.44,1.44 1.44,1.44 0 0 0 -1.44,-1.44 z"
       id="path739" />
    <path
       class="cls-8"
       d="m -445.95629,388.22355 a 1.44,1.44 0 1 0 1.44,1.44 1.44,1.44 0 0 0 -1.44,-1.44 z"
       id="path741" />
    <path
       class="cls-8"
       d="m -449.55629,377.42355 a 1.44,1.44 0 1 0 1.44,1.44 1.44,1.44 0 0 0 -1.44,-1.44 z"
       id="path743" />
    <path
       class="cls-8"
       d="m -456.75629,377.42355 a 1.44,1.44 0 1 0 1.44,1.44 1.44,1.44 0 0 0 -1.44,-1.44 z"
       id="path745" />
    <path
       class="cls-8"
       d="m -453.15629,373.82355 a 1.44,1.44 0 1 0 1.44,1.44 1.44,1.44 0 0 0 -1.44,-1.44 z"
       id="path747" />
    <path
       class="cls-8"
       d="m -445.95629,373.82355 a 1.44,1.44 0 1 0 1.44,1.44 1.44,1.44 0 0 0 -1.44,-1.44 z"
       id="path749" />
    <path
       class="cls-8"
       d="m -453.15629,381.02355 a 1.44,1.44 0 1 0 1.44,1.44 1.44,1.44 0 0 0 -1.44,-1.44 z"
       id="path751" />
    <path
       class="cls-8"
       d="m -445.95629,381.02355 a 1.44,1.44 0 1 0 1.44,1.44 1.44,1.44 0 0 0 -1.44,-1.44 z"
       id="path753" />
    <path
       class="cls-8"
       d="m -449.55629,384.62355 a 1.44,1.44 0 1 0 1.44,1.44 1.44,1.44 0 0 0 -1.44,-1.44 z"
       id="path755" />
    <path
       class="cls-8"
       d="m -456.75629,384.62355 a 1.44,1.44 0 1 0 1.44,1.44 1.44,1.44 0 0 0 -1.44,-1.44 z"
       id="path757" />
    <path
       class="cls-8"
       d="m -450.99629,371.66355 a 1.44,1.44 0 1 0 1.83,-1.37 h -0.79 a 1.43,1.43 0 0 0 -1.04,1.37 z"
       id="path759" />
    <path
       class="cls-8"
       d="m -458.19629,371.66355 a 1.44,1.44 0 1 0 1.83,-1.37 h -0.79 a 1.43,1.43 0 0 0 -1.04,1.37 z"
       id="path761" />
    <path
       class="cls-8"
       d="m -435.15629,391.82355 a 1.44,1.44 0 0 0 -1.38,1.05 h 2.75 a 1.44,1.44 0 0 0 -1.37,-1.05 z"
       id="path763" />
    <path
       class="cls-8"
       d="m -442.38629,391.82355 a 1.44,1.44 0 0 0 -1.38,1.05 h 2.75 a 1.44,1.44 0 0 0 -1.37,-1.05 z"
       id="path765" />
    <path
       class="cls-8"
       d="m -438.75629,388.22355 a 1.44,1.44 0 1 0 1.44,1.44 1.44,1.44 0 0 0 -1.44,-1.44 z"
       id="path767" />
    <path
       class="cls-8"
       d="m -431.55629,388.22355 a 1.44,1.44 0 1 0 1.44,1.44 1.44,1.44 0 0 0 -1.44,-1.44 z"
       id="path769" />
    <path
       class="cls-8"
       d="m -435.15629,377.42355 a 1.44,1.44 0 1 0 1.44,1.44 1.44,1.44 0 0 0 -1.44,-1.44 z"
       id="path771" />
    <path
       class="cls-8"
       d="m -442.38629,377.42355 a 1.44,1.44 0 1 0 1.44,1.44 1.44,1.44 0 0 0 -1.44,-1.44 z"
       id="path773" />
    <path
       class="cls-8"
       d="m -438.75629,373.82355 a 1.44,1.44 0 1 0 1.44,1.44 1.44,1.44 0 0 0 -1.44,-1.44 z"
       id="path775" />
    <path
       class="cls-8"
       d="m -431.55629,373.82355 a 1.44,1.44 0 1 0 1.44,1.44 1.44,1.44 0 0 0 -1.44,-1.44 z"
       id="path777" />
    <path
       class="cls-8"
       d="m -438.75629,381.02355 a 1.44,1.44 0 1 0 1.44,1.44 1.44,1.44 0 0 0 -1.44,-1.44 z"
       id="path779" />
    <path
       class="cls-8"
       d="m -431.55629,381.02355 a 1.44,1.44 0 1 0 1.44,1.44 1.44,1.44 0 0 0 -1.44,-1.44 z"
       id="path781" />
    <path
       class="cls-8"
       d="m -435.15629,384.62355 a 1.44,1.44 0 1 0 1.44,1.44 1.44,1.44 0 0 0 -1.44,-1.44 z"
       id="path783" />
    <path
       class="cls-8"
       d="m -442.38629,384.62355 a 1.44,1.44 0 1 0 1.44,1.44 1.44,1.44 0 0 0 -1.44,-1.44 z"
       id="path785" />
    <path
       class="cls-8"
       d="m -436.59629,371.66355 a 1.44,1.44 0 1 0 1.83,-1.37 h -0.79 a 1.43,1.43 0 0 0 -1.04,1.37 z"
       id="path787" />
    <path
       class="cls-8"
       d="m -443.79629,371.66355 a 1.44,1.44 0 1 0 1.83,-1.37 h -0.79 a 1.43,1.43 0 0 0 -1.04,1.37 z"
       id="path789" />
    <path
       class="cls-8"
       d="m -420.75629,391.82355 a 1.44,1.44 0 0 0 -1.38,1.05 h 2.75 a 1.44,1.44 0 0 0 -1.37,-1.05 z"
       id="path791" />
    <path
       class="cls-8"
       d="m -427.95629,391.82355 a 1.44,1.44 0 0 0 -1.38,1.05 h 2.75 a 1.44,1.44 0 0 0 -1.37,-1.05 z"
       id="path793" />
    <path
       class="cls-8"
       d="m -424.38629,388.22355 a 1.44,1.44 0 1 0 1.44,1.44 1.44,1.44 0 0 0 -1.44,-1.44 z"
       id="path795" />
    <path
       class="cls-8"
       d="m -417.15629,391.10355 a 1.45,1.45 0 0 0 1.08,-0.49 14.93,14.93 0 0 1 -2.28,-1.74 1.44,1.44 0 0 0 1.2,2.23 z"
       id="path797" />
    <path
       class="cls-8"
       d="m -427.95629,377.42355 a 1.44,1.44 0 1 0 1.44,1.44 1.44,1.44 0 0 0 -1.44,-1.44 z"
       id="path799" />
    <path
       class="cls-8"
       d="m -424.38629,373.82355 a 1.44,1.44 0 1 0 1.15,2.3 v -1.72 a 1.45,1.45 0 0 0 -1.15,-0.58 z"
       id="path801" />
    <path
       class="cls-8"
       d="m -424.38629,381.02355 a 1.44,1.44 0 1 0 1.44,1.44 1.44,1.44 0 0 0 -1.44,-1.44 z"
       id="path803" />
    <path
       class="cls-8"
       d="m -422.19629,386.06355 a 1.43,1.43 0 0 0 1.44,1.44 1.4,1.4 0 0 0 0.85,-0.28 13.77,13.77 0 0 1 -1.57,-2.4 1.43,1.43 0 0 0 -0.72,1.24 z"
       id="path805" />
    <path
       class="cls-8"
       d="m -427.95629,384.62355 a 1.44,1.44 0 1 0 1.44,1.44 1.44,1.44 0 0 0 -1.44,-1.44 z"
       id="path807" />
    <path
       class="cls-8"
       d="m -429.38629,371.66355 a 1.44,1.44 0 1 0 1.83,-1.37 h -0.83 a 1.43,1.43 0 0 0 -1,1.37 z"
       id="path809" />
    <path
       class="cls-8"
       d="m -412.58629,392.21355 c -0.36,-0.11 -0.7,-0.24 -1,-0.38 a 1.42,1.42 0 0 0 -1.3,1 h 2.75 a 1.36,1.36 0 0 0 -0.45,-0.62 z"
       id="path811" />
    <path
       class="cls-5"
       d="m -460.84629,227.27355 h -15.07 a 15,15 0 0 0 -15.05,15.05 v 128"
       id="path813" />
    <polyline
       class="cls-5"
       points="643.27 244.57 643.27 237.55 643.27 237.03"
       id="polyline815"
       transform="translate(-1036.3863,12.823546)" />
    <path
       class="cls-5"
       d="m -460.84629,227.27355 h 82.8 a 15.05,15.05 0 0 1 15,15.05 v 8.05 h -30.07"
       id="path817" />
    <path
       class="cls-5"
       d="m -378.04629,227.27355 a 15.06,15.06 0 0 0 -15.07,15.05 v 7.5"
       id="path819" />
    <path
       class="cls-5"
       d="m -408.15629,392.87355 a 15,15 0 0 1 -15,-15.05 v -7.53 h -82.8 a 3.77,3.77 0 0 0 -3.77,3.76 v 3.77 a 15,15 0 0 0 15,15.05 h 86.56 a 15,15 0 0 0 15,-15.05 v -120.43"
       id="path821" />
  </g>
</svg>
