<?xml version="1.0" encoding="UTF-8" standalone="no"?>
<svg
   xmlns:dc="http://purl.org/dc/elements/1.1/"
   xmlns:cc="http://creativecommons.org/ns#"
   xmlns:rdf="http://www.w3.org/1999/02/22-rdf-syntax-ns#"
   xmlns:svg="http://www.w3.org/2000/svg"
   xmlns="http://www.w3.org/2000/svg"
   xmlns:sodipodi="http://sodipodi.sourceforge.net/DTD/sodipodi-0.dtd"
   xmlns:inkscape="http://www.inkscape.org/namespaces/inkscape"
   viewBox="0 0 300 300"
   version="1.1"
   id="svg1125"
   sodipodi:docname="rock.svg"
   width="300"
   height="300"
   inkscape:version="1.0 (b51213c273, 2020-08-10)">
  <metadata
     id="metadata1129">
    <rdf:RDF>
      <cc:Work
         rdf:about="">
        <dc:format>image/svg+xml</dc:format>
        <dc:type
           rdf:resource="http://purl.org/dc/dcmitype/StillImage" />
        <dc:title>rock-paper-scissors-vector-line-icons</dc:title>
      </cc:Work>
    </rdf:RDF>
  </metadata>
  <sodipodi:namedview
     pagecolor="#ffffff"
     bordercolor="#666666"
     borderopacity="1"
     objecttolerance="10"
     gridtolerance="10"
     guidetolerance="10"
     inkscape:pageopacity="0"
     inkscape:pageshadow="2"
     inkscape:window-width="1920"
     inkscape:window-height="1056"
     id="namedview1127"
     showgrid="false"
     inkscape:zoom="0.53844872"
     inkscape:cx="45.920288"
     inkscape:cy="175.33589"
     inkscape:window-x="1280"
     inkscape:window-y="0"
     inkscape:window-maximized="1"
     inkscape:current-layer="svg1125" />
  <defs
     id="defs4">
    <style
       id="style2">.cls-1{fill:#fcfcfc;}.cls-2{fill:#40dcff;}.cls-3{fill:#fff;}.cls-4{fill:#009fff;}.cls-5{fill:none;stroke:#262626;stroke-linecap:round;stroke-linejoin:round;stroke-width:4px;}.cls-6{fill:#262626;}.cls-7{fill:#fced19;}.cls-8{fill:#ff9d00;}.cls-9{fill:#ff85ff;}.cls-10{fill:#ff0bff;}</style>
  </defs>
  <title
     id="title6">rock-paper-scissors-vector-line-icons</title>
  <g
     id="Icons"
     transform="translate(603.5692,36.05056)">
    <g
       id="g2828"
       transform="translate(-685.5692,-183.30056)">
      <rect
         class="cls-9"
         x="82"
         y="147.25"
         width="300"
         height="300"
         rx="150"
         id="rect823" />
      <path
         class="cls-9"
         d="m 260.6,279.66 v 22.81 a 14.3,14.3 0 0 1 -22.29,11.86 l -0.48,-0.1 A 14.35,14.35 0 0 0 232,296.37 v -28.69 a 14.31,14.31 0 0 1 28.61,0 z"
         id="path825" />
      <path
         class="cls-10"
         d="m 240,308.44 a 1.44,1.44 0 0 0 -1.15,-1.41 14.39,14.39 0 0 1 0.09,1.62 q 0,0.6 -0.06,1.2 a 1.45,1.45 0 0 0 1.12,-1.41 z"
         id="path827" />
      <path
         class="cls-10"
         d="m 242.17,303.4 a 1.44,1.44 0 1 0 1.44,1.44 1.45,1.45 0 0 0 -1.44,-1.44 z"
         id="path829" />
      <path
         class="cls-10"
         d="m 242.17,310.6 a 1.44,1.44 0 1 0 1.44,1.44 1.45,1.45 0 0 0 -1.44,-1.44 z"
         id="path831" />
      <path
         class="cls-10"
         d="m 238.57,314.2 a 1.45,1.45 0 0 0 -0.46,0.09 h 0.2 a 15.79,15.79 0 0 0 1.65,1 1.44,1.44 0 0 0 -1.39,-1.09 z"
         id="path833" />
      <path
         class="cls-10"
         d="m 238.57,292.6 a 1.44,1.44 0 1 0 1.43,1.4 1.45,1.45 0 0 0 -1.43,-1.4 z"
         id="path835" />
      <path
         class="cls-10"
         d="m 232.81,294 a 1.42,1.42 0 0 0 -0.82,-1.29 v 2.59 a 1.42,1.42 0 0 0 0.82,-1.3 z"
         id="path837" />
      <path
         class="cls-10"
         d="m 235,289 a 1.44,1.44 0 1 0 1.44,1.44 A 1.45,1.45 0 0 0 235,289 Z"
         id="path839" />
      <path
         class="cls-10"
         d="m 242.17,289 a 1.44,1.44 0 1 0 1.44,1.44 1.45,1.45 0 0 0 -1.44,-1.44 z"
         id="path841" />
      <path
         class="cls-10"
         d="m 236.41,297.64 a 1.44,1.44 0 0 0 -2.86,-0.18 13.53,13.53 0 0 1 1.7,1.6 1.45,1.45 0 0 0 1.16,-1.42 z"
         id="path843" />
      <path
         class="cls-10"
         d="m 242.17,296.2 a 1.44,1.44 0 1 0 1.44,1.44 1.45,1.45 0 0 0 -1.44,-1.44 z"
         id="path845" />
      <path
         class="cls-10"
         d="m 238.57,299.8 a 1.44,1.44 0 1 0 1.44,1.44 1.45,1.45 0 0 0 -1.44,-1.44 z"
         id="path847" />
      <path
         class="cls-10"
         d="m 238.57,278.2 a 1.44,1.44 0 1 0 1.44,1.44 1.45,1.45 0 0 0 -1.44,-1.44 z"
         id="path849" />
      <path
         class="cls-10"
         d="m 232.81,279.64 a 1.42,1.42 0 0 0 -0.82,-1.29 v 2.59 a 1.42,1.42 0 0 0 0.82,-1.3 z"
         id="path851" />
      <path
         class="cls-10"
         d="m 235,274.6 a 1.44,1.44 0 1 0 1.44,1.44 1.45,1.45 0 0 0 -1.44,-1.44 z"
         id="path853" />
      <path
         class="cls-10"
         d="m 242.17,274.6 a 1.44,1.44 0 1 0 1.44,1.44 1.45,1.45 0 0 0 -1.44,-1.44 z"
         id="path855" />
      <path
         class="cls-10"
         d="m 235,281.8 a 1.44,1.44 0 1 0 1.44,1.44 1.45,1.45 0 0 0 -1.44,-1.44 z"
         id="path857" />
      <path
         class="cls-10"
         d="m 242.17,281.8 a 1.44,1.44 0 1 0 1.44,1.44 1.45,1.45 0 0 0 -1.44,-1.44 z"
         id="path859" />
      <path
         class="cls-10"
         d="m 238.57,285.4 a 1.44,1.44 0 1 0 1.44,1.44 1.45,1.45 0 0 0 -1.44,-1.44 z"
         id="path861" />
      <path
         class="cls-10"
         d="m 232.81,286.84 a 1.42,1.42 0 0 0 -0.82,-1.29 v 2.59 a 1.42,1.42 0 0 0 0.82,-1.3 z"
         id="path863" />
      <path
         class="cls-10"
         d="m 238.57,263.8 a 1.44,1.44 0 1 0 1.44,1.44 1.45,1.45 0 0 0 -1.44,-1.44 z"
         id="path865" />
      <path
         class="cls-10"
         d="m 232.81,265.24 a 1.44,1.44 0 0 0 -0.39,-1 15.09,15.09 0 0 0 -0.37,2.25 1.45,1.45 0 0 0 0.76,-1.25 z"
         id="path867" />
      <path
         class="cls-10"
         d="m 235,260.2 a 1.44,1.44 0 1 0 1.44,1.44 1.45,1.45 0 0 0 -1.44,-1.44 z"
         id="path869" />
      <path
         class="cls-10"
         d="m 242.17,260.2 a 1.44,1.44 0 1 0 1.44,1.44 1.45,1.45 0 0 0 -1.44,-1.44 z"
         id="path871" />
      <path
         class="cls-10"
         d="m 235,267.4 a 1.44,1.44 0 1 0 1.44,1.44 1.45,1.45 0 0 0 -1.44,-1.44 z"
         id="path873" />
      <path
         class="cls-10"
         d="m 242.17,267.4 a 1.44,1.44 0 1 0 1.44,1.44 1.45,1.45 0 0 0 -1.44,-1.44 z"
         id="path875" />
      <path
         class="cls-10"
         d="m 238.57,271 a 1.44,1.44 0 1 0 1.44,1.44 1.45,1.45 0 0 0 -1.44,-1.44 z"
         id="path877" />
      <path
         class="cls-10"
         d="m 232.81,272.44 a 1.42,1.42 0 0 0 -0.82,-1.29 v 2.59 a 1.42,1.42 0 0 0 0.82,-1.3 z"
         id="path879" />
      <path
         class="cls-10"
         d="m 242.17,255.88 a 1.43,1.43 0 0 0 1.44,-1.44 1.41,1.41 0 0 0 -0.22,-0.76 13.15,13.15 0 0 0 -2.65,0.82 1.43,1.43 0 0 0 1.43,1.38 z"
         id="path881" />
      <path
         class="cls-10"
         d="m 238.57,256.6 a 1.44,1.44 0 1 0 1.43,1.4 1.45,1.45 0 0 0 -1.43,-1.4 z"
         id="path883" />
      <path
         class="cls-10"
         d="m 253,307 a 1.44,1.44 0 1 0 1.44,1.44 A 1.45,1.45 0 0 0 253,307 Z"
         id="path885" />
      <path
         class="cls-10"
         d="m 245.77,307 a 1.44,1.44 0 1 0 1.44,1.44 1.45,1.45 0 0 0 -1.44,-1.44 z"
         id="path887" />
      <path
         class="cls-10"
         d="m 249.37,303.4 a 1.44,1.44 0 1 0 1.44,1.44 1.45,1.45 0 0 0 -1.44,-1.44 z"
         id="path889" />
      <path
         class="cls-10"
         d="m 256.57,306.28 a 1.44,1.44 0 1 0 -1.44,-1.44 1.43,1.43 0 0 0 1.44,1.44 z"
         id="path891" />
      <path
         class="cls-10"
         d="m 249.37,310.6 a 1.44,1.44 0 1 0 1.44,1.44 1.45,1.45 0 0 0 -1.44,-1.44 z"
         id="path893" />
      <path
         class="cls-10"
         d="m 256.57,310.6 a 1.45,1.45 0 0 0 -1.44,1.44 1.46,1.46 0 0 0 0.6,1.17 14.79,14.79 0 0 0 1.94,-2.09 1.43,1.43 0 0 0 -1.1,-0.52 z"
         id="path895" />
      <path
         class="cls-10"
         d="m 251.53,315.64 a 0.51,0.51 0 0 0 0,0.13 14.68,14.68 0 0 0 2.37,-1.21 1.44,1.44 0 0 0 -2.39,1.08 z"
         id="path897" />
      <path
         class="cls-10"
         d="m 247.21,315.64 a 1.44,1.44 0 1 0 -2.43,1 12.79,12.79 0 0 0 1.52,0.09 h 0.38 a 1.43,1.43 0 0 0 0.53,-1.09 z"
         id="path899" />
      <path
         class="cls-10"
         d="m 253,292.6 a 1.44,1.44 0 1 0 1.44,1.44 1.45,1.45 0 0 0 -1.44,-1.44 z"
         id="path901" />
      <path
         class="cls-10"
         d="m 245.77,292.6 a 1.44,1.44 0 1 0 1.44,1.44 1.45,1.45 0 0 0 -1.44,-1.44 z"
         id="path903" />
      <path
         class="cls-10"
         d="m 249.37,289 a 1.44,1.44 0 1 0 1.44,1.44 1.45,1.45 0 0 0 -1.44,-1.44 z"
         id="path905" />
      <path
         class="cls-10"
         d="m 256.57,291.88 a 1.44,1.44 0 1 0 -1.44,-1.44 1.43,1.43 0 0 0 1.44,1.44 z"
         id="path907" />
      <path
         class="cls-10"
         d="m 249.37,296.2 a 1.44,1.44 0 1 0 1.44,1.44 1.45,1.45 0 0 0 -1.44,-1.44 z"
         id="path909" />
      <path
         class="cls-10"
         d="m 256.57,299.08 a 1.44,1.44 0 1 0 -1.44,-1.44 1.43,1.43 0 0 0 1.44,1.44 z"
         id="path911" />
      <path
         class="cls-10"
         d="m 253,299.8 a 1.44,1.44 0 1 0 1.44,1.44 1.45,1.45 0 0 0 -1.44,-1.44 z"
         id="path913" />
      <path
         class="cls-10"
         d="m 245.77,299.8 a 1.44,1.44 0 1 0 1.44,1.44 1.45,1.45 0 0 0 -1.44,-1.44 z"
         id="path915" />
      <path
         class="cls-10"
         d="m 253,278.2 a 1.44,1.44 0 1 0 1.44,1.44 1.45,1.45 0 0 0 -1.44,-1.44 z"
         id="path917" />
      <path
         class="cls-10"
         d="m 245.77,278.2 a 1.44,1.44 0 1 0 1.44,1.44 1.45,1.45 0 0 0 -1.44,-1.44 z"
         id="path919" />
      <path
         class="cls-10"
         d="m 249.37,274.6 a 1.44,1.44 0 1 0 1.44,1.44 1.45,1.45 0 0 0 -1.44,-1.44 z"
         id="path921" />
      <path
         class="cls-10"
         d="m 256.57,277.48 a 1.44,1.44 0 1 0 -1.44,-1.44 1.43,1.43 0 0 0 1.44,1.44 z"
         id="path923" />
      <path
         class="cls-10"
         d="m 249.37,281.8 a 1.44,1.44 0 1 0 1.44,1.44 1.45,1.45 0 0 0 -1.44,-1.44 z"
         id="path925" />
      <path
         class="cls-10"
         d="m 256.57,284.68 a 1.44,1.44 0 1 0 -1.44,-1.44 1.43,1.43 0 0 0 1.44,1.44 z"
         id="path927" />
      <path
         class="cls-10"
         d="m 253,285.4 a 1.44,1.44 0 1 0 1.44,1.44 1.45,1.45 0 0 0 -1.44,-1.44 z"
         id="path929" />
      <path
         class="cls-10"
         d="m 245.77,285.4 a 1.44,1.44 0 1 0 1.44,1.44 1.45,1.45 0 0 0 -1.44,-1.44 z"
         id="path931" />
      <path
         class="cls-10"
         d="m 253,263.8 a 1.44,1.44 0 1 0 1.44,1.44 1.45,1.45 0 0 0 -1.44,-1.44 z"
         id="path933" />
      <path
         class="cls-10"
         d="m 245.77,263.8 a 1.44,1.44 0 1 0 1.44,1.44 1.45,1.45 0 0 0 -1.44,-1.44 z"
         id="path935" />
      <path
         class="cls-10"
         d="m 249.37,260.2 a 1.44,1.44 0 1 0 1.44,1.44 1.45,1.45 0 0 0 -1.44,-1.44 z"
         id="path937" />
      <path
         class="cls-10"
         d="m 256.57,263.08 a 1.44,1.44 0 1 0 -1.44,-1.44 1.43,1.43 0 0 0 1.44,1.44 z"
         id="path939" />
      <path
         class="cls-10"
         d="m 249.37,267.4 a 1.44,1.44 0 1 0 1.44,1.44 1.45,1.45 0 0 0 -1.44,-1.44 z"
         id="path941" />
      <path
         class="cls-10"
         d="m 256.57,270.28 a 1.44,1.44 0 1 0 -1.44,-1.44 1.43,1.43 0 0 0 1.44,1.44 z"
         id="path943" />
      <path
         class="cls-10"
         d="m 253,271 a 1.44,1.44 0 1 0 1.44,1.44 A 1.45,1.45 0 0 0 253,271 Z"
         id="path945" />
      <path
         class="cls-10"
         d="m 245.77,271 a 1.44,1.44 0 1 0 1.44,1.44 1.45,1.45 0 0 0 -1.44,-1.44 z"
         id="path947" />
      <path
         class="cls-10"
         d="m 249.37,255.88 a 1.43,1.43 0 0 0 1.44,-1.44 2.09,2.09 0 0 0 0,-0.35 14.86,14.86 0 0 0 -2.5,-0.56 1.4,1.4 0 0 0 -0.34,0.91 1.44,1.44 0 0 0 1.4,1.44 z"
         id="path949" />
      <path
         class="cls-10"
         d="m 253,256.6 a 1.44,1.44 0 1 0 1.44,1.44 1.45,1.45 0 0 0 -1.44,-1.44 z"
         id="path951" />
      <path
         class="cls-10"
         d="m 245.77,256.6 a 1.44,1.44 0 1 0 1.44,1.44 1.45,1.45 0 0 0 -1.44,-1.44 z"
         id="path953" />
      <path
         class="cls-10"
         d="m 258.73,308.44 a 1.5,1.5 0 0 0 0.2,0.73 14.71,14.71 0 0 0 0.91,-2.12 1.44,1.44 0 0 0 -1.11,1.39 z"
         id="path955" />
      <path
         class="cls-10"
         d="m 258.73,294 a 1.44,1.44 0 0 0 1.44,1.44 1.49,1.49 0 0 0 0.43,-0.07 v -2.73 a 1.22,1.22 0 0 0 -0.43,-0.08 1.45,1.45 0 0 0 -1.44,1.44 z"
         id="path957" />
      <path
         class="cls-10"
         d="m 258.73,301.24 a 1.44,1.44 0 0 0 1.44,1.44 1.16,1.16 0 0 0 0.42,-0.07 0.61,0.61 0 0 0 0,-0.14 v -2.59 a 1.22,1.22 0 0 0 -0.43,-0.08 1.45,1.45 0 0 0 -1.43,1.44 z"
         id="path959" />
      <path
         class="cls-10"
         d="m 258.73,279.64 a 1.44,1.44 0 0 0 1.44,1.44 1.49,1.49 0 0 0 0.43,-0.07 v -2.73 a 1.22,1.22 0 0 0 -0.43,-0.08 1.45,1.45 0 0 0 -1.44,1.44 z"
         id="path961" />
      <path
         class="cls-10"
         d="m 258.73,286.84 a 1.44,1.44 0 0 0 1.44,1.44 1.49,1.49 0 0 0 0.43,-0.07 v -2.73 a 1.22,1.22 0 0 0 -0.43,-0.08 1.45,1.45 0 0 0 -1.44,1.44 z"
         id="path963" />
      <path
         class="cls-10"
         d="m 258.73,265.24 a 1.44,1.44 0 0 0 1.44,1.44 1.58,1.58 0 0 0 0.38,-0.05 14.36,14.36 0 0 0 -0.49,-2.81 1.43,1.43 0 0 0 -1.33,1.42 z"
         id="path965" />
      <path
         class="cls-10"
         d="m 258.73,272.44 a 1.44,1.44 0 0 0 1.44,1.44 1.49,1.49 0 0 0 0.43,-0.07 v -2.73 a 1.22,1.22 0 0 0 -0.43,-0.08 1.45,1.45 0 0 0 -1.44,1.44 z"
         id="path967" />
      <path
         class="cls-9"
         d="m 232,275 v 21.34 a 14.25,14.25 0 0 0 -7.34,-2 H 203.4 v -26.66 a 14.3,14.3 0 1 1 28.59,0 z"
         id="path969" />
      <path
         class="cls-10"
         d="m 209.77,292.6 a 1.45,1.45 0 0 0 -1.44,1.44 1.55,1.55 0 0 0 0,0.31 h 2.81 a 1.55,1.55 0 0 0 0,-0.31 1.44,1.44 0 0 0 -1.37,-1.44 z"
         id="path971" />
      <path
         class="cls-10"
         d="m 203.4,292.87 v 1.48 h 0.6 a 1.55,1.55 0 0 0 0,-0.31 1.43,1.43 0 0 0 -0.6,-1.17 z"
         id="path973" />
      <path
         class="cls-10"
         d="m 206.17,289 a 1.44,1.44 0 1 0 1.44,1.44 1.45,1.45 0 0 0 -1.44,-1.44 z"
         id="path975" />
      <path
         class="cls-10"
         d="m 213.37,289 a 1.44,1.44 0 1 0 1.44,1.44 1.45,1.45 0 0 0 -1.44,-1.44 z"
         id="path977" />
      <path
         class="cls-10"
         d="m 209.77,278.2 a 1.44,1.44 0 1 0 1.44,1.44 1.45,1.45 0 0 0 -1.44,-1.44 z"
         id="path979" />
      <path
         class="cls-10"
         d="m 204,279.64 a 1.43,1.43 0 0 0 -0.61,-1.17 v 2.35 a 1.44,1.44 0 0 0 0.61,-1.18 z"
         id="path981" />
      <path
         class="cls-10"
         d="m 206.17,274.6 a 1.44,1.44 0 1 0 1.44,1.44 1.45,1.45 0 0 0 -1.44,-1.44 z"
         id="path983" />
      <path
         class="cls-10"
         d="m 213.37,274.6 a 1.44,1.44 0 1 0 1.44,1.44 1.45,1.45 0 0 0 -1.44,-1.44 z"
         id="path985" />
      <path
         class="cls-10"
         d="m 206.17,281.8 a 1.44,1.44 0 1 0 1.44,1.44 1.45,1.45 0 0 0 -1.44,-1.44 z"
         id="path987" />
      <path
         class="cls-10"
         d="m 213.37,281.8 a 1.44,1.44 0 1 0 1.44,1.44 1.45,1.45 0 0 0 -1.44,-1.44 z"
         id="path989" />
      <path
         class="cls-10"
         d="m 209.77,285.4 a 1.44,1.44 0 1 0 1.44,1.44 1.45,1.45 0 0 0 -1.44,-1.44 z"
         id="path991" />
      <path
         class="cls-10"
         d="m 204,286.84 a 1.43,1.43 0 0 0 -0.61,-1.17 V 288 a 1.44,1.44 0 0 0 0.61,-1.16 z"
         id="path993" />
      <path
         class="cls-10"
         d="m 209.77,263.8 a 1.44,1.44 0 1 0 1.44,1.44 1.45,1.45 0 0 0 -1.44,-1.44 z"
         id="path995" />
      <path
         class="cls-10"
         d="m 204,265.24 a 1.43,1.43 0 0 0 -0.23,-0.79 13.49,13.49 0 0 0 -0.32,1.92 1.43,1.43 0 0 0 0.55,-1.13 z"
         id="path997" />
      <path
         class="cls-10"
         d="m 206.17,263.08 a 1.44,1.44 0 1 0 0,-2.88 1.4,1.4 0 0 0 -0.8,0.25 c -0.23,0.39 -0.44,0.8 -0.63,1.21 a 1.43,1.43 0 0 0 1.43,1.42 z"
         id="path999" />
      <path
         class="cls-10"
         d="m 213.37,260.2 a 1.44,1.44 0 1 0 1.44,1.44 1.45,1.45 0 0 0 -1.44,-1.44 z"
         id="path1001" />
      <path
         class="cls-10"
         d="m 206.17,267.4 a 1.44,1.44 0 1 0 1.44,1.44 1.45,1.45 0 0 0 -1.44,-1.44 z"
         id="path1003" />
      <path
         class="cls-10"
         d="m 213.37,267.4 a 1.44,1.44 0 1 0 1.44,1.44 1.45,1.45 0 0 0 -1.44,-1.44 z"
         id="path1005" />
      <path
         class="cls-10"
         d="m 209.77,271 a 1.44,1.44 0 1 0 1.44,1.44 1.45,1.45 0 0 0 -1.44,-1.44 z"
         id="path1007" />
      <path
         class="cls-10"
         d="m 204,272.44 a 1.43,1.43 0 0 0 -0.61,-1.17 v 2.35 a 1.44,1.44 0 0 0 0.61,-1.18 z"
         id="path1009" />
      <path
         class="cls-10"
         d="m 213.37,255.88 a 1.43,1.43 0 0 0 1.44,-1.44 1.37,1.37 0 0 0 -0.2,-0.72 14.27,14.27 0 0 0 -2.66,0.87 1.43,1.43 0 0 0 1.42,1.29 z"
         id="path1011" />
      <path
         class="cls-10"
         d="m 209.77,256.6 a 1.44,1.44 0 1 0 1.44,1.44 1.45,1.45 0 0 0 -1.44,-1.44 z"
         id="path1013" />
      <path
         class="cls-10"
         d="m 224.17,292.6 a 1.45,1.45 0 0 0 -1.44,1.44 1.55,1.55 0 0 0 0,0.31 h 1.88 c 0.31,0 0.62,0 0.92,0 a 1.27,1.27 0 0 0 0,-0.34 1.44,1.44 0 0 0 -1.36,-1.41 z"
         id="path1015" />
      <path
         class="cls-10"
         d="m 217,292.6 a 1.45,1.45 0 0 0 -1.44,1.44 1.55,1.55 0 0 0 0,0.31 h 2.81 a 1.55,1.55 0 0 0 0,-0.31 1.44,1.44 0 0 0 -1.37,-1.44 z"
         id="path1017" />
      <path
         class="cls-10"
         d="m 220.57,289 a 1.44,1.44 0 1 0 1.44,1.44 1.45,1.45 0 0 0 -1.44,-1.44 z"
         id="path1019" />
      <path
         class="cls-10"
         d="m 227.77,289 a 1.44,1.44 0 1 0 1.44,1.44 1.45,1.45 0 0 0 -1.44,-1.44 z"
         id="path1021" />
      <path
         class="cls-10"
         d="m 224.17,278.2 a 1.44,1.44 0 1 0 1.44,1.44 1.45,1.45 0 0 0 -1.44,-1.44 z"
         id="path1023" />
      <path
         class="cls-10"
         d="m 217,278.2 a 1.44,1.44 0 1 0 1.44,1.44 1.45,1.45 0 0 0 -1.44,-1.44 z"
         id="path1025" />
      <path
         class="cls-10"
         d="m 220.57,274.6 a 1.44,1.44 0 1 0 1.43,1.4 1.45,1.45 0 0 0 -1.43,-1.4 z"
         id="path1027" />
      <path
         class="cls-10"
         d="m 227.77,274.6 a 1.44,1.44 0 1 0 1.44,1.44 1.45,1.45 0 0 0 -1.44,-1.44 z"
         id="path1029" />
      <path
         class="cls-10"
         d="m 220.57,281.8 a 1.44,1.44 0 1 0 1.44,1.44 1.45,1.45 0 0 0 -1.44,-1.44 z"
         id="path1031" />
      <path
         class="cls-10"
         d="m 227.77,281.8 a 1.44,1.44 0 1 0 1.44,1.44 1.45,1.45 0 0 0 -1.44,-1.44 z"
         id="path1033" />
      <path
         class="cls-10"
         d="m 224.17,285.4 a 1.44,1.44 0 1 0 1.44,1.44 1.45,1.45 0 0 0 -1.44,-1.44 z"
         id="path1035" />
      <path
         class="cls-10"
         d="m 217,285.4 a 1.44,1.44 0 1 0 1.44,1.44 1.45,1.45 0 0 0 -1.44,-1.44 z"
         id="path1037" />
      <path
         class="cls-10"
         d="m 224.17,263.8 a 1.44,1.44 0 1 0 1.44,1.44 1.45,1.45 0 0 0 -1.44,-1.44 z"
         id="path1039" />
      <path
         class="cls-10"
         d="m 217,263.8 a 1.44,1.44 0 1 0 1.44,1.44 1.45,1.45 0 0 0 -1.44,-1.44 z"
         id="path1041" />
      <path
         class="cls-10"
         d="m 220.57,260.2 a 1.44,1.44 0 1 0 1.44,1.44 1.45,1.45 0 0 0 -1.44,-1.44 z"
         id="path1043" />
      <path
         class="cls-10"
         d="m 227.77,260.2 a 1.44,1.44 0 1 0 1.44,1.44 1.45,1.45 0 0 0 -1.44,-1.44 z"
         id="path1045" />
      <path
         class="cls-10"
         d="m 220.57,267.4 a 1.44,1.44 0 1 0 1.44,1.44 1.45,1.45 0 0 0 -1.44,-1.44 z"
         id="path1047" />
      <path
         class="cls-10"
         d="m 227.77,267.4 a 1.44,1.44 0 1 0 1.44,1.44 1.45,1.45 0 0 0 -1.44,-1.44 z"
         id="path1049" />
      <path
         class="cls-10"
         d="m 224.17,271 a 1.44,1.44 0 1 0 1.44,1.44 1.45,1.45 0 0 0 -1.44,-1.44 z"
         id="path1051" />
      <path
         class="cls-10"
         d="m 217,271 a 1.44,1.44 0 1 0 1.44,1.44 A 1.45,1.45 0 0 0 217,271 Z"
         id="path1053" />
      <path
         class="cls-10"
         d="m 220.57,255.88 a 1.42,1.42 0 0 0 1.37,-1.86 14.22,14.22 0 0 0 -2.45,-0.52 1.43,1.43 0 0 0 -0.36,0.94 1.44,1.44 0 0 0 1.44,1.44 z"
         id="path1055" />
      <path
         class="cls-10"
         d="m 224.17,256.6 a 1.44,1.44 0 1 0 1.44,1.44 1.45,1.45 0 0 0 -1.44,-1.44 z"
         id="path1057" />
      <path
         class="cls-10"
         d="m 217,256.6 a 1.44,1.44 0 1 0 1.44,1.44 1.45,1.45 0 0 0 -1.44,-1.44 z"
         id="path1059" />
      <path
         class="cls-10"
         d="m 229.93,294 a 1.44,1.44 0 0 0 1.44,1.44 1.38,1.38 0 0 0 0.62,-0.14 v -2.59 a 1.38,1.38 0 0 0 -0.62,-0.15 1.45,1.45 0 0 0 -1.44,1.44 z"
         id="path1061" />
      <path
         class="cls-10"
         d="m 229.93,279.64 a 1.44,1.44 0 0 0 1.44,1.44 1.38,1.38 0 0 0 0.62,-0.14 v -2.59 a 1.38,1.38 0 0 0 -0.62,-0.15 1.45,1.45 0 0 0 -1.44,1.44 z"
         id="path1063" />
      <path
         class="cls-10"
         d="m 229.93,286.84 a 1.44,1.44 0 0 0 1.44,1.44 1.38,1.38 0 0 0 0.62,-0.14 v -2.59 a 1.38,1.38 0 0 0 -0.62,-0.15 1.45,1.45 0 0 0 -1.44,1.44 z"
         id="path1065" />
      <path
         class="cls-10"
         d="m 229.93,265.24 a 1.44,1.44 0 0 0 1.44,1.44 1.56,1.56 0 0 0 0.57,-0.11 14,14 0 0 0 -0.49,-2.76 h -0.08 a 1.45,1.45 0 0 0 -1.44,1.43 z"
         id="path1067" />
      <path
         class="cls-10"
         d="m 229.93,272.44 a 1.44,1.44 0 0 0 1.44,1.44 1.38,1.38 0 0 0 0.62,-0.14 v -2.59 a 1.38,1.38 0 0 0 -0.62,-0.15 1.45,1.45 0 0 0 -1.44,1.44 z"
         id="path1069" />
      <path
         class="cls-3"
         d="m 232,296.37 a 14.35,14.35 0 0 1 5.84,17.86 l 0.48,0.1 a 14.3,14.3 0 0 0 22.29,-11.86 v -77.32 a 14.31,14.31 0 0 1 28.61,0 v 111.34 a 47.16,47.16 0 0 1 -47.16,47.16 H 222 a 47.16,47.16 0 0 1 -47.16,-47.16 v -25.34 a 16.79,16.79 0 0 1 16.8,-16.8 h 33.06 a 14.25,14.25 0 0 1 7.3,2.02 z"
         id="path1071" />
      <path
         class="cls-3"
         d="m 203.4,279.66 v 14.69 h -11.81 a 16.79,16.79 0 0 0 -16.8,16.8 v -86 a 14.31,14.31 0 0 1 28.61,0 z"
         id="path1073" />
      <path
         class="cls-5"
         d="m 289.21,279.66 v 56.83 a 47.16,47.16 0 0 1 -47.16,47.16 H 222 a 47.16,47.16 0 0 1 -47.16,-47.16 v -56.83"
         id="path1075" />
      <path
         class="cls-5"
         d="m 174.79,279.66 v -54.51 a 14.31,14.31 0 0 1 28.61,0 v 42.53"
         id="path1077" />
      <path
         class="cls-5"
         d="m 260.6,267.68 v -42.53 a 14.31,14.31 0 0 1 28.61,0 v 54.51"
         id="path1079" />
      <path
         class="cls-5"
         d="m 203.4,294.35 v -26.67 a 14.3,14.3 0 1 1 28.59,0"
         id="path1081" />
      <path
         class="cls-5"
         d="m 232,296.39 v -28.71 a 14.31,14.31 0 0 1 28.61,0 v 34.79 a 14.3,14.3 0 0 1 -22.29,11.86"
         id="path1083" />
      <path
         class="cls-5"
         d="m 174.79,311.15 a 16.79,16.79 0 0 1 16.8,-16.8 h 33.06 a 14.3,14.3 0 1 1 0,28.6 h -22.26"
         id="path1085" />
      <path
         class="cls-5"
         d="m 218.85,323 a 15.47,15.47 0 0 1 15.47,15.47 v 10.05"
         id="path1087" />
    </g>
  </g>
</svg>
