<svg xmlns="http://www.w3.org/2000/svg" viewBox="0 0 1200 675"><defs><style>.cls-1{fill:#fcfcfc;}.cls-2{fill:#40dcff;}.cls-3{fill:#fff;}.cls-4{fill:#009fff;}.cls-5{fill:none;stroke:#262626;stroke-linecap:round;stroke-linejoin:round;stroke-width:4px;}.cls-6{fill:#262626;}.cls-7{fill:#fced19;}.cls-8{fill:#ff9d00;}.cls-9{fill:#ff85ff;}.cls-10{fill:#ff0bff;}</style></defs><title>rock-paper-scissors-vector-line-icons</title><g id="Background"><rect class="cls-1" width="1200" height="675"/></g><g id="Icons"><rect class="cls-2" x="818" y="147.25" width="300" height="300" rx="150" transform="translate(1936 594.5) rotate(-180)"/><path class="cls-2" d="M1004.32,329.53a27.83,27.83,0,0,1,6.88-.86,27.41,27.41,0,1,1-6.88.86Zm6.88,38.41a11.79,11.79,0,1,0-11.78-11.78A11.79,11.79,0,0,0,1011.2,367.94Z"/><path class="cls-3" d="M932.36,329.72a27.52,27.52,0,1,1-7.56-1.05A27.58,27.58,0,0,1,932.36,329.72Zm-7.56,38.22A11.79,11.79,0,1,0,913,356.16,11.79,11.79,0,0,0,924.8,367.94Z"/><path class="cls-4" d="M987.42,369.63a.76.76,0,0,0-.16,0c.35.63.73,1.25,1.13,1.84a1.17,1.17,0,0,0-1-1.87Z"/><path class="cls-4" d="M990.42,366.63a1.2,1.2,0,1,0,1.2,1.2A1.2,1.2,0,0,0,990.42,366.63Z"/><path class="cls-4" d="M991.62,373.83a1.19,1.19,0,0,0-2.1-.78c.48.62,1,1.21,1.52,1.79A1.21,1.21,0,0,0,991.62,373.83Z"/><path class="cls-4" d="M987.42,357.63a1.2,1.2,0,1,0,1.2,1.2A1.2,1.2,0,0,0,987.42,357.63Z"/><path class="cls-4" d="M985.62,355.83a1.2,1.2,0,0,0-1.2-1.2,1.17,1.17,0,0,0-.68.24c0,.43,0,.85,0,1.29,0,.21,0,.41,0,.62a1.17,1.17,0,0,0,.7.25A1.2,1.2,0,0,0,985.62,355.83Z"/><path class="cls-4" d="M990.42,354.63a1.2,1.2,0,1,0,1.2,1.2A1.2,1.2,0,0,0,990.42,354.63Z"/><path class="cls-4" d="M985.62,361.83a1.2,1.2,0,0,0-1.2-1.2.93.93,0,0,0-.33.07c.13.77.28,1.54.48,2.3A1.19,1.19,0,0,0,985.62,361.83Z"/><path class="cls-4" d="M990.42,360.63a1.2,1.2,0,1,0,1.2,1.2A1.2,1.2,0,0,0,990.42,360.63Z"/><path class="cls-4" d="M987.42,363.63a1.2,1.2,0,1,0,1.2,1.2A1.2,1.2,0,0,0,987.42,363.63Z"/><path class="cls-4" d="M987.42,345.63a1.2,1.2,0,1,0,1.2,1.2A1.2,1.2,0,0,0,987.42,345.63Z"/><path class="cls-4" d="M990.42,342.63a1.2,1.2,0,1,0,1.2,1.2A1.2,1.2,0,0,0,990.42,342.63Z"/><path class="cls-4" d="M985.62,349.83a1.19,1.19,0,0,0-.88-1.14c-.21.75-.39,1.52-.54,2.29a.87.87,0,0,0,.22,0A1.2,1.2,0,0,0,985.62,349.83Z"/><path class="cls-4" d="M990.42,348.63a1.2,1.2,0,1,0,1.2,1.2A1.2,1.2,0,0,0,990.42,348.63Z"/><path class="cls-4" d="M987.42,351.63a1.2,1.2,0,1,0,1.2,1.2A1.2,1.2,0,0,0,987.42,351.63Z"/><path class="cls-4" d="M991.62,337.83a1.15,1.15,0,0,0-.25-.7c-.53.55-1,1.13-1.53,1.73a1.19,1.19,0,0,0,.58.17A1.2,1.2,0,0,0,991.62,337.83Z"/><path class="cls-4" d="M988.62,340.83a1.17,1.17,0,0,0,0-.27c-.32.46-.63.94-.93,1.42A1.17,1.17,0,0,0,988.62,340.83Z"/><path class="cls-4" d="M996.42,378.63a1.17,1.17,0,0,0-.7.25c.61.41,1.23.79,1.86,1.15a1.42,1.42,0,0,0,0-.2A1.2,1.2,0,0,0,996.42,378.63Z"/><path class="cls-4" d="M1002.42,378.63a1.2,1.2,0,1,0,1.2,1.2A1.2,1.2,0,0,0,1002.42,378.63Z"/><path class="cls-4" d="M999.42,336a1.2,1.2,0,1,0-1.2-1.2A1.2,1.2,0,0,0,999.42,336Z"/><path class="cls-4" d="M994.62,334.83a1.13,1.13,0,0,0-.12-.51c-.6.47-1.2,1-1.76,1.47a1.17,1.17,0,0,0,.68.24A1.2,1.2,0,0,0,994.62,334.83Z"/><path class="cls-4" d="M997.51,332.32c-.39.22-.77.46-1.14.7h0A1.19,1.19,0,0,0,997.51,332.32Z"/><path class="cls-4" d="M1002.42,333a1.2,1.2,0,1,0-1.2-1.2A1.2,1.2,0,0,0,1002.42,333Z"/><path class="cls-4" d="M996.42,336.63a1.2,1.2,0,1,0,1.2,1.2A1.2,1.2,0,0,0,996.42,336.63Z"/><path class="cls-4" d="M1002.42,339a1.2,1.2,0,1,0-1.2-1.2A1.2,1.2,0,0,0,1002.42,339Z"/><path class="cls-4" d="M1011.42,381.63a1.19,1.19,0,0,0-.88,2l.66,0,1.11,0a1.16,1.16,0,0,0,.31-.79A1.2,1.2,0,0,0,1011.42,381.63Z"/><path class="cls-4" d="M1005.42,381.63a1.19,1.19,0,0,0-1.18,1.13c.75.19,1.52.35,2.3.49a1.16,1.16,0,0,0,.08-.42A1.2,1.2,0,0,0,1005.42,381.63Z"/><path class="cls-4" d="M1008.42,378.63a1.2,1.2,0,1,0,1.2,1.2A1.2,1.2,0,0,0,1008.42,378.63Z"/><path class="cls-4" d="M1014.42,378.63a1.2,1.2,0,1,0,1.2,1.2A1.2,1.2,0,0,0,1014.42,378.63Z"/><path class="cls-4" d="M1011.42,336a1.2,1.2,0,1,0-1.2-1.2A1.2,1.2,0,0,0,1011.42,336Z"/><path class="cls-4" d="M1005.42,336a1.2,1.2,0,1,0-1.2-1.2A1.2,1.2,0,0,0,1005.42,336Z"/><path class="cls-4" d="M1008.42,333a1.2,1.2,0,1,0-1.2-1.2A1.2,1.2,0,0,0,1008.42,333Z"/><path class="cls-4" d="M1014.42,333a1.2,1.2,0,1,0-1.2-1.2A1.2,1.2,0,0,0,1014.42,333Z"/><path class="cls-4" d="M1008.42,339a1.2,1.2,0,1,0-1.2-1.2A1.2,1.2,0,0,0,1008.42,339Z"/><path class="cls-4" d="M1014.42,339a1.2,1.2,0,1,0-1.2-1.2A1.2,1.2,0,0,0,1014.42,339Z"/><path class="cls-4" d="M1011.42,330a1.2,1.2,0,0,0,1.2-1.2s0-.08,0-.12c-.47,0-.93,0-1.4,0l-1,0a.7.7,0,0,0,0,.14A1.2,1.2,0,0,0,1011.42,330Z"/><path class="cls-4" d="M1005.42,330a1.2,1.2,0,0,0,1.16-1c-.72.12-1.43.27-2.12.44A1.16,1.16,0,0,0,1005.42,330Z"/><path class="cls-4" d="M1017.42,381.63a1.2,1.2,0,0,0-1.2,1.2,1.28,1.28,0,0,0,.07.34c.78-.14,1.54-.32,2.29-.53A1.17,1.17,0,0,0,1017.42,381.63Z"/><path class="cls-4" d="M1020.42,378.63a1.2,1.2,0,1,0,1.2,1.2A1.2,1.2,0,0,0,1020.42,378.63Z"/><path class="cls-4" d="M1025.23,379.8c.57-.34,1.12-.7,1.66-1.08a1.2,1.2,0,0,0-1.66,1.08Z"/><path class="cls-4" d="M1023.42,333.63a1.2,1.2,0,1,0,1.2,1.2A1.2,1.2,0,0,0,1023.42,333.63Z"/><path class="cls-4" d="M1017.42,336a1.2,1.2,0,1,0-1.2-1.2A1.2,1.2,0,0,0,1017.42,336Z"/><path class="cls-4" d="M1020.42,333a1.2,1.2,0,1,0-1.2-1.2A1.2,1.2,0,0,0,1020.42,333Z"/><path class="cls-4" d="M1020.42,339a1.2,1.2,0,1,0-1.2-1.2A1.2,1.2,0,0,0,1020.42,339Z"/><path class="cls-4" d="M1026.42,336.63a1.2,1.2,0,1,0,1.2,1.2A1.2,1.2,0,0,0,1026.42,336.63Z"/><path class="cls-4" d="M1017.42,330a1.2,1.2,0,0,0,.9-.42c-.67-.18-1.35-.33-2-.46A1.18,1.18,0,0,0,1017.42,330Z"/><path class="cls-4" d="M1034.22,370.83a.82.82,0,0,0,.06.26c.29-.46.58-.92.85-1.4A1.18,1.18,0,0,0,1034.22,370.83Z"/><path class="cls-4" d="M1032.42,369a1.2,1.2,0,1,0-1.2-1.2A1.2,1.2,0,0,0,1032.42,369Z"/><path class="cls-4" d="M1031.22,373.83a1.19,1.19,0,0,0,.33.81c.53-.58,1-1.18,1.5-1.81a1.12,1.12,0,0,0-.63-.2A1.2,1.2,0,0,0,1031.22,373.83Z"/><path class="cls-4" d="M1035.42,360a1.2,1.2,0,1,0-1.2-1.2A1.2,1.2,0,0,0,1035.42,360Z"/><path class="cls-4" d="M1032.42,357a1.2,1.2,0,1,0-1.2-1.2A1.2,1.2,0,0,0,1032.42,357Z"/><path class="cls-4" d="M1037.22,355.83a1.2,1.2,0,0,0,1.2,1.2,1,1,0,0,0,.25,0c0-.27,0-.55,0-.82,0-.5,0-1,0-1.48a1,1,0,0,0-.23-.05A1.2,1.2,0,0,0,1037.22,355.83Z"/><path class="cls-4" d="M1032.42,363a1.2,1.2,0,1,0-1.2-1.2A1.2,1.2,0,0,0,1032.42,363Z"/><path class="cls-4" d="M1037.22,361.83a1.19,1.19,0,0,0,.64,1c.19-.73.34-1.47.46-2.22A1.19,1.19,0,0,0,1037.22,361.83Z"/><path class="cls-4" d="M1035.42,366a1.2,1.2,0,1,0-1.2-1.2A1.2,1.2,0,0,0,1035.42,366Z"/><path class="cls-4" d="M1035.42,348a1.2,1.2,0,1,0-1.2-1.2A1.2,1.2,0,0,0,1035.42,348Z"/><path class="cls-4" d="M1032.42,345a1.2,1.2,0,1,0-1.2-1.2A1.2,1.2,0,0,0,1032.42,345Z"/><path class="cls-4" d="M1032.42,351a1.2,1.2,0,1,0-1.2-1.2A1.2,1.2,0,0,0,1032.42,351Z"/><path class="cls-4" d="M1037.22,349.83a1.18,1.18,0,0,0,1,1.15c-.14-.71-.3-1.41-.49-2.09A1.16,1.16,0,0,0,1037.22,349.83Z"/><path class="cls-4" d="M1035.42,354a1.2,1.2,0,1,0-1.2-1.2A1.2,1.2,0,0,0,1035.42,354Z"/><path class="cls-4" d="M1029.42,336a1.29,1.29,0,0,0,.4-.08c-.5-.47-1-.92-1.55-1.35a1,1,0,0,0,0,.23A1.2,1.2,0,0,0,1029.42,336Z"/><path class="cls-4" d="M1032.42,339a.93.93,0,0,0,.24,0c-.43-.54-.89-1.06-1.36-1.56a1.36,1.36,0,0,0-.08.41A1.2,1.2,0,0,0,1032.42,339Z"/><path class="cls-4" d="M1034.31,341.26a1,1,0,0,0,.17.28Z"/><path class="cls-4" d="M999.42,369.63a1.2,1.2,0,1,0,1.2,1.2A1.2,1.2,0,0,0,999.42,369.63Z"/><path class="cls-4" d="M993.42,369.63a1.2,1.2,0,1,0,1.2,1.2A1.2,1.2,0,0,0,993.42,369.63Z"/><path class="cls-4" d="M996.42,366.63a1.2,1.2,0,1,0,1.2,1.2A1.2,1.2,0,0,0,996.42,366.63Z"/><path class="cls-4" d="M1002.42,366.63a1.2,1.2,0,1,0,1.2,1.2A1.2,1.2,0,0,0,1002.42,366.63Z"/><path class="cls-4" d="M996.42,372.63a1.2,1.2,0,1,0,1.2,1.2A1.2,1.2,0,0,0,996.42,372.63Z"/><path class="cls-4" d="M1002.42,372.63a1.2,1.2,0,1,0,1.2,1.2A1.2,1.2,0,0,0,1002.42,372.63Z"/><path class="cls-4" d="M999.42,375.63a1.2,1.2,0,1,0,1.2,1.2A1.2,1.2,0,0,0,999.42,375.63Z"/><path class="cls-4" d="M994.62,376.83a1.2,1.2,0,0,0-1.2-1.2,1.18,1.18,0,0,0-1,.59c.57.53,1.16,1,1.77,1.52A1.19,1.19,0,0,0,994.62,376.83Z"/><path class="cls-4" d="M999.42,357.63a1.2,1.2,0,1,0,0,2.4,1.24,1.24,0,0,0,.6-.18,11.52,11.52,0,0,1-.5-2.2Z"/><path class="cls-4" d="M993.42,357.63a1.2,1.2,0,1,0,1.2,1.2A1.2,1.2,0,0,0,993.42,357.63Z"/><path class="cls-4" d="M996.42,354.63a1.2,1.2,0,1,0,1.2,1.2A1.2,1.2,0,0,0,996.42,354.63Z"/><path class="cls-4" d="M996.42,360.63a1.2,1.2,0,1,0,1.2,1.2A1.2,1.2,0,0,0,996.42,360.63Z"/><path class="cls-4" d="M999.42,363.63a1.2,1.2,0,1,0,1.2,1.2A1.2,1.2,0,0,0,999.42,363.63Z"/><path class="cls-4" d="M993.42,363.63a1.2,1.2,0,1,0,1.2,1.2A1.2,1.2,0,0,0,993.42,363.63Z"/><path class="cls-4" d="M999.42,342a1.2,1.2,0,1,0-1.2-1.2A1.2,1.2,0,0,0,999.42,342Z"/><path class="cls-4" d="M993.42,339.63a1.2,1.2,0,1,0,1.2,1.2A1.2,1.2,0,0,0,993.42,339.63Z"/><path class="cls-4" d="M999.42,348a1.2,1.2,0,1,0-1.2-1.2A1.2,1.2,0,0,0,999.42,348Z"/><path class="cls-4" d="M993.42,345.63a1.2,1.2,0,1,0,1.2,1.2A1.2,1.2,0,0,0,993.42,345.63Z"/><path class="cls-4" d="M996.42,342.63a1.2,1.2,0,1,0,1.2,1.2A1.2,1.2,0,0,0,996.42,342.63Z"/><path class="cls-4" d="M1002.42,345a1.2,1.2,0,1,0-1.2-1.2A1.2,1.2,0,0,0,1002.42,345Z"/><path class="cls-4" d="M996.42,348.63a1.2,1.2,0,1,0,1.2,1.2A1.2,1.2,0,0,0,996.42,348.63Z"/><path class="cls-4" d="M1001.22,349.83s0,0,0,.06a12.79,12.79,0,0,1,.85-1.19A1.19,1.19,0,0,0,1001.22,349.83Z"/><path class="cls-4" d="M999.42,351.63a1.2,1.2,0,1,0,0,2.4,1.18,1.18,0,0,0,.2,0,12.71,12.71,0,0,1,.59-2.05A1.16,1.16,0,0,0,999.42,351.63Z"/><path class="cls-4" d="M993.42,351.63a1.2,1.2,0,1,0,1.2,1.2A1.2,1.2,0,0,0,993.42,351.63Z"/><path class="cls-4" d="M1011.42,369.63a1.2,1.2,0,1,0,1.2,1.2A1.2,1.2,0,0,0,1011.42,369.63Z"/><path class="cls-4" d="M1005.42,369.63a1.2,1.2,0,1,0,1.2,1.2A1.2,1.2,0,0,0,1005.42,369.63Z"/><path class="cls-4" d="M1007.22,367.83a1.2,1.2,0,0,0,2.4,0h0a11.44,11.44,0,0,1-2.26-.53A1.2,1.2,0,0,0,1007.22,367.83Z"/><path class="cls-4" d="M1013.22,367.83a1.2,1.2,0,0,0,2.4,0,1.13,1.13,0,0,0-.23-.67,12,12,0,0,1-2.15.59S1013.22,367.8,1013.22,367.83Z"/><path class="cls-4" d="M1008.42,372.63a1.2,1.2,0,1,0,1.2,1.2A1.2,1.2,0,0,0,1008.42,372.63Z"/><path class="cls-4" d="M1014.42,372.63a1.2,1.2,0,1,0,1.2,1.2A1.2,1.2,0,0,0,1014.42,372.63Z"/><path class="cls-4" d="M1011.42,375.63a1.2,1.2,0,1,0,1.2,1.2A1.2,1.2,0,0,0,1011.42,375.63Z"/><path class="cls-4" d="M1005.42,375.63a1.2,1.2,0,1,0,1.2,1.2A1.2,1.2,0,0,0,1005.42,375.63Z"/><path class="cls-4" d="M1011.42,342a1.2,1.2,0,1,0-1.2-1.2A1.2,1.2,0,0,0,1011.42,342Z"/><path class="cls-4" d="M1005.42,342a1.2,1.2,0,1,0-1.2-1.2A1.2,1.2,0,0,0,1005.42,342Z"/><path class="cls-4" d="M1005.42,345.63a1.18,1.18,0,0,0-1.16,1,12.49,12.49,0,0,1,1.52-.95A1,1,0,0,0,1005.42,345.63Z"/><path class="cls-4" d="M1009.62,343.83a1.2,1.2,0,0,0-2.4,0,1.17,1.17,0,0,0,.63,1,12.42,12.42,0,0,1,1.52-.33A1.15,1.15,0,0,0,1009.62,343.83Z"/><path class="cls-4" d="M1015.62,343.83a1.2,1.2,0,0,0-2.4,0,1.16,1.16,0,0,0,.31.78,9.41,9.41,0,0,1,1.29.34A1.19,1.19,0,0,0,1015.62,343.83Z"/><path class="cls-4" d="M1023.42,369.63a1.2,1.2,0,1,0,1.2,1.2A1.2,1.2,0,0,0,1023.42,369.63Z"/><path class="cls-4" d="M1017.42,369.63a1.2,1.2,0,1,0,1.2,1.2A1.2,1.2,0,0,0,1017.42,369.63Z"/><path class="cls-4" d="M1020.42,366.63a1.2,1.2,0,1,0,1.2,1.2A1.2,1.2,0,0,0,1020.42,366.63Z"/><path class="cls-4" d="M1026.42,366.63a1.2,1.2,0,1,0,1.2,1.2A1.2,1.2,0,0,0,1026.42,366.63Z"/><path class="cls-4" d="M1020.42,372.63a1.2,1.2,0,1,0,1.2,1.2A1.2,1.2,0,0,0,1020.42,372.63Z"/><path class="cls-4" d="M1026.42,372.63a1.2,1.2,0,1,0,1.2,1.2A1.2,1.2,0,0,0,1026.42,372.63Z"/><path class="cls-4" d="M1029.42,369.63a1.2,1.2,0,1,0,1.2,1.2A1.2,1.2,0,0,0,1029.42,369.63Z"/><path class="cls-4" d="M1023.42,375.63a1.2,1.2,0,1,0,1.2,1.2A1.2,1.2,0,0,0,1023.42,375.63Z"/><path class="cls-4" d="M1017.42,375.63a1.2,1.2,0,1,0,1.2,1.2A1.2,1.2,0,0,0,1017.42,375.63Z"/><path class="cls-4" d="M1028.22,376.83a1.16,1.16,0,0,0,.26.7c.61-.49,1.2-1,1.77-1.56a1.2,1.2,0,0,0-2,.86Z"/><path class="cls-4" d="M1023.42,360a1.2,1.2,0,0,0,0-2.4,1.18,1.18,0,0,0-.56.16,12.35,12.35,0,0,1-.38,1.75A1.18,1.18,0,0,0,1023.42,360Z"/><path class="cls-4" d="M1026.42,354.63a1.2,1.2,0,1,0,1.2,1.2A1.2,1.2,0,0,0,1026.42,354.63Z"/><path class="cls-4" d="M1021.62,361.83c0-.05,0-.09,0-.13a14.54,14.54,0,0,1-.78,1.25A1.2,1.2,0,0,0,1021.62,361.83Z"/><path class="cls-4" d="M1026.42,360.63a1.2,1.2,0,1,0,1.2,1.2A1.2,1.2,0,0,0,1026.42,360.63Z"/><path class="cls-4" d="M1029.42,357.63a1.2,1.2,0,1,0,1.2,1.2A1.2,1.2,0,0,0,1029.42,357.63Z"/><path class="cls-4" d="M1023.42,363.63a1.2,1.2,0,1,0,1.2,1.2A1.2,1.2,0,0,0,1023.42,363.63Z"/><path class="cls-4" d="M1018.42,365.45c-.23.18-.46.36-.7.52A1.15,1.15,0,0,0,1018.42,365.45Z"/><path class="cls-4" d="M1029.42,363.63a1.2,1.2,0,1,0,1.2,1.2A1.2,1.2,0,0,0,1029.42,363.63Z"/><path class="cls-4" d="M1023.42,339.63a1.2,1.2,0,1,0,1.2,1.2A1.2,1.2,0,0,0,1023.42,339.63Z"/><path class="cls-4" d="M1017.42,342a1.2,1.2,0,1,0-1.2-1.2A1.2,1.2,0,0,0,1017.42,342Z"/><path class="cls-4" d="M1023.42,345.63a1.2,1.2,0,1,0,1.2,1.2A1.2,1.2,0,0,0,1023.42,345.63Z"/><path class="cls-4" d="M1018.62,346.83a1.2,1.2,0,0,0-1.2-1.2,1.11,1.11,0,0,0-.59.18,11.51,11.51,0,0,1,1.76,1.18A.9.9,0,0,0,1018.62,346.83Z"/><path class="cls-4" d="M1020.42,345a1.2,1.2,0,1,0-1.2-1.2A1.2,1.2,0,0,0,1020.42,345Z"/><path class="cls-4" d="M1026.42,342.63a1.2,1.2,0,1,0,1.2,1.2A1.2,1.2,0,0,0,1026.42,342.63Z"/><path class="cls-4" d="M1021.62,349.83a1.2,1.2,0,0,0-1.2-1.2.5.5,0,0,0-.13,0,12.26,12.26,0,0,1,1.18,1.73A1.2,1.2,0,0,0,1021.62,349.83Z"/><path class="cls-4" d="M1026.42,348.63a1.2,1.2,0,1,0,1.2,1.2A1.2,1.2,0,0,0,1026.42,348.63Z"/><path class="cls-4" d="M1029.42,339.63a1.2,1.2,0,1,0,1.2,1.2A1.2,1.2,0,0,0,1029.42,339.63Z"/><path class="cls-4" d="M1029.42,345.63a1.2,1.2,0,1,0,1.2,1.2A1.2,1.2,0,0,0,1029.42,345.63Z"/><path class="cls-4" d="M1024.62,352.83a1.19,1.19,0,0,0-2.28-.5,14.33,14.33,0,0,1,.41,1.46,1.14,1.14,0,0,0,.67.24A1.2,1.2,0,0,0,1024.62,352.83Z"/><path class="cls-4" d="M1029.42,351.63a1.2,1.2,0,1,0,1.2,1.2A1.2,1.2,0,0,0,1029.42,351.63Z"/><path class="cls-2" d="M948.37,308.59l1.09-.91L966.6,328l-.8.66-13.51,15.7-2.19,1a27.58,27.58,0,0,0-17.74-15.65l.3-1.05Zm18.41-24.13,17.36,22.17,1.94-1.52,32.48-37.74c13.6-15,16.21-38.32,6.3-56.52L968,283.5Z"/><path class="cls-4" d="M952.05,343.08a1.43,1.43,0,0,1,1.75-.46l-1.51,1.75-.37.17A1.43,1.43,0,0,1,952.05,343.08Z"/><path class="cls-4" d="M960.51,331.43a1.43,1.43,0,0,1,2.54.44l-1.57,1.83a1.36,1.36,0,0,1-.65-.26A1.44,1.44,0,0,1,960.51,331.43Z"/><path class="cls-4" d="M956.28,337.26a1.43,1.43,0,0,1,2-.32,1.42,1.42,0,0,1,.22.2l-1.85,2.16-.06,0A1.43,1.43,0,0,1,956.28,337.26Z"/><path class="cls-4" d="M965.06,327.62a1.44,1.44,0,0,1-.39-1.89l1.75,2.07A1.48,1.48,0,0,1,965.06,327.62Z"/><path class="cls-4" d="M946.22,338.85a1.44,1.44,0,0,1,2.33,1.69,1.37,1.37,0,0,1-.77.53,26.15,26.15,0,0,0-1.58-2.17S946.21,338.86,946.22,338.85Z"/><path class="cls-4" d="M942.41,334.3a1.47,1.47,0,0,1,.59,1.25c-.59-.52-1.2-1-1.83-1.47A1.46,1.46,0,0,1,942.41,334.3Z"/><path class="cls-4" d="M951.67,327.68a1.44,1.44,0,1,1-2,.32A1.44,1.44,0,0,1,951.67,327.68Z"/><path class="cls-4" d="M957.49,331.91a1.44,1.44,0,1,1-1.69,2.33,1.45,1.45,0,0,1-.32-2A1.43,1.43,0,0,1,957.49,331.91Z"/><path class="cls-4" d="M956.7,326.88a1.44,1.44,0,1,1-2,.32A1.45,1.45,0,0,1,956.7,326.88Z"/><path class="cls-4" d="M948.86,323a1.44,1.44,0,1,1,.32,2A1.43,1.43,0,0,1,948.86,323Z"/><path class="cls-4" d="M952.47,332.71a1.44,1.44,0,0,1-1.7,2.33,1.44,1.44,0,1,1,1.7-2.33Z"/><path class="cls-4" d="M947,330.49a1.44,1.44,0,1,1-.32-2A1.44,1.44,0,0,1,947,330.49Z"/><path class="cls-4" d="M947.44,333.5a1.44,1.44,0,1,1-2,.32A1.45,1.45,0,0,1,947.44,333.5Z"/><path class="cls-4" d="M953.26,337.73a1.44,1.44,0,1,1-2,.32A1.44,1.44,0,0,1,953.26,337.73Z"/><path class="cls-4" d="M958,317.79l.5.59,0,0A1.4,1.4,0,0,1,958,317.79Z"/><path class="cls-4" d="M961.25,323.07a1.44,1.44,0,1,1-.66-2.19l.9,1.07A1.42,1.42,0,0,1,961.25,323.07Z"/><path class="cls-4" d="M953.41,319.15a1.44,1.44,0,1,1,2-.31A1.45,1.45,0,0,1,953.41,319.15Z"/><path class="cls-4" d="M953.89,322.17a1.44,1.44,0,0,1,2.33,1.69,1.44,1.44,0,1,1-2.33-1.69Z"/><path class="cls-4" d="M961.73,326.08a1.44,1.44,0,1,1-2,.32A1.45,1.45,0,0,1,961.73,326.08Z"/><path class="cls-4" d="M936.58,330.07a1.42,1.42,0,0,1,.55,1.52c-.84-.42-1.71-.8-2.6-1.14l0-.06A1.43,1.43,0,0,1,936.58,330.07Z"/><path class="cls-4" d="M940.34,321.22a1.43,1.43,0,0,1-2,.32l-.06-.05,1.77-2.26A1.44,1.44,0,0,1,940.34,321.22Z"/><path class="cls-4" d="M944.15,325.78a1.46,1.46,0,0,1-.32-2,1.44,1.44,0,1,1,.32,2Z"/><path class="cls-4" d="M943.35,320.75a1.44,1.44,0,1,1,2-.32A1.46,1.46,0,0,1,943.35,320.75Z"/><path class="cls-4" d="M939.12,326.57a1.44,1.44,0,1,1,2-.32A1.43,1.43,0,0,1,939.12,326.57Z"/><path class="cls-4" d="M936.11,327.05a1.45,1.45,0,0,1-2,.32,1.75,1.75,0,0,1-.24-.23l1.74-2.22.2.12A1.45,1.45,0,0,1,936.11,327.05Z"/><path class="cls-4" d="M939.92,331.6a1.44,1.44,0,1,1,2-.32A1.44,1.44,0,0,1,939.92,331.6Z"/><path class="cls-4" d="M948.8,309.57a1.43,1.43,0,0,1-1.61.52l1.18-1.5.56-.47A1.41,1.41,0,0,1,948.8,309.57Z"/><path class="cls-4" d="M952.62,314.13a1.44,1.44,0,0,1-.32-2,1.49,1.49,0,0,1,.53-.44l1.8,2.14h0A1.45,1.45,0,0,1,952.62,314.13Z"/><path class="cls-4" d="M947.59,314.92a1.44,1.44,0,1,1,2-.32A1.43,1.43,0,0,1,947.59,314.92Z"/><path class="cls-4" d="M944.57,315.4a1.44,1.44,0,0,1-1.85.41l1.74-2.23A1.43,1.43,0,0,1,944.57,315.4Z"/><path class="cls-4" d="M948.38,320a1.44,1.44,0,1,1,2-.32A1.43,1.43,0,0,1,948.38,320Z"/><path class="cls-4" d="M986.7,301.51a1.44,1.44,0,0,1,2-.32,1.55,1.55,0,0,1,.39.42l-1.79,2.07a1.18,1.18,0,0,1-.29-.16A1.44,1.44,0,0,1,986.7,301.51Z"/><path class="cls-4" d="M987.91,296.16a1.44,1.44,0,1,1-1.69,2.33,1.44,1.44,0,0,1,1.69-2.33Z"/><path class="cls-4" d="M981.67,302.31A1.44,1.44,0,0,1,984,304a1.45,1.45,0,0,1-1.49.56l-1.11-1.43A1.41,1.41,0,0,1,981.67,302.31Z"/><path class="cls-4" d="M997.18,289.54a1.44,1.44,0,1,1-2,.32A1.44,1.44,0,0,1,997.18,289.54Z"/><path class="cls-4" d="M996.38,284.51a1.44,1.44,0,1,1-1.69,2.33,1.43,1.43,0,0,1-.32-2A1.45,1.45,0,0,1,996.38,284.51Z"/><path class="cls-4" d="M992.15,290.34a1.44,1.44,0,1,1-2,.32A1.43,1.43,0,0,1,992.15,290.34Z"/><path class="cls-4" d="M991.25,297.7a1.44,1.44,0,1,1,1.69-2.33,1.41,1.41,0,0,1,.59,1.09l-1.29,1.5A1.49,1.49,0,0,1,991.25,297.7Z"/><path class="cls-4" d="M1005.64,277.89a1.44,1.44,0,1,1-2,.32A1.44,1.44,0,0,1,1005.64,277.89Z"/><path class="cls-4" d="M1008.66,277.41a1.44,1.44,0,0,1,1.68-.49l-1.77,2.05A1.43,1.43,0,0,1,1008.66,277.41Z"/><path class="cls-4" d="M1004.84,272.86a1.44,1.44,0,1,1-2,.32A1.44,1.44,0,0,1,1004.84,272.86Z"/><path class="cls-4" d="M1004.42,283.24a1.46,1.46,0,0,1,1-.58l-1.25,1.45A1.47,1.47,0,0,1,1004.42,283.24Z"/><path class="cls-4" d="M1000.61,278.69a1.44,1.44,0,1,1-2,.32A1.44,1.44,0,0,1,1000.61,278.69Z"/><path class="cls-4" d="M1001.41,283.72a1.44,1.44,0,1,1-2,.32A1.43,1.43,0,0,1,1001.41,283.72Z"/><path class="cls-4" d="M1014.1,266.24a1.44,1.44,0,1,1-2,.32A1.45,1.45,0,0,1,1014.1,266.24Z"/><path class="cls-4" d="M1017.12,265.76a1.44,1.44,0,0,1,2-.31,1.39,1.39,0,0,1,.51.67c-.35.42-.71.84-1.08,1.25l-.56.65a1.47,1.47,0,0,1-.56-.24A1.45,1.45,0,0,1,1017.12,265.76Z"/><path class="cls-4" d="M1013.31,261.21a1.44,1.44,0,1,1-1.7,2.33,1.44,1.44,0,0,1,1.7-2.33Z"/><path class="cls-4" d="M1012.89,271.59a1.44,1.44,0,0,1,2-.32l.17.15-1.87,2.17A1.43,1.43,0,0,1,1012.89,271.59Z"/><path class="cls-4" d="M1009.08,267a1.44,1.44,0,1,1-2,.32A1.44,1.44,0,0,1,1009.08,267Z"/><path class="cls-4" d="M1009.87,272.07a1.44,1.44,0,1,1-2,.32A1.44,1.44,0,0,1,1009.87,272.07Z"/><path class="cls-4" d="M1022.57,254.59a1.44,1.44,0,1,1-2,.32A1.45,1.45,0,0,1,1022.57,254.59Z"/><path class="cls-4" d="M1025.58,254.11a1.45,1.45,0,0,1,1.58-.52c-.35.88-.73,1.75-1.14,2.6l-.12-.06A1.46,1.46,0,0,1,1025.58,254.11Z"/><path class="cls-4" d="M1021.77,249.56a1.44,1.44,0,1,1-1.69,2.33,1.43,1.43,0,0,1-.32-2A1.45,1.45,0,0,1,1021.77,249.56Z"/><path class="cls-4" d="M1021.67,262a1.44,1.44,0,0,1,1.69-2.33,1.41,1.41,0,0,1,.48.61c-.4.68-.83,1.34-1.26,2A1.43,1.43,0,0,1,1021.67,262Z"/><path class="cls-4" d="M1017.54,255.39a1.44,1.44,0,1,1-2,.32A1.44,1.44,0,0,1,1017.54,255.39Z"/><path class="cls-4" d="M1018.34,260.42a1.44,1.44,0,1,1-2,.32A1.44,1.44,0,0,1,1018.34,260.42Z"/><path class="cls-4" d="M1029,243.26a1.45,1.45,0,0,1,1.18-.59c-.15.93-.32,1.86-.52,2.78a1.59,1.59,0,0,1-.34-.18A1.44,1.44,0,0,1,1029,243.26Z"/><path class="cls-4" d="M1028.54,240.24a1.44,1.44,0,1,1,1.7-2.33,1.5,1.5,0,0,1,.46.58c0,.47-.09.95-.14,1.42v0A1.44,1.44,0,0,1,1028.54,240.24Z"/><path class="cls-4" d="M1026,243.74a1.44,1.44,0,1,1-2,.32A1.43,1.43,0,0,1,1026,243.74Z"/><path class="cls-4" d="M1026.8,248.77a1.44,1.44,0,1,1-2,.32A1.44,1.44,0,0,1,1026.8,248.77Z"/><path class="cls-4" d="M977.06,292.73a1.44,1.44,0,1,1-2,.32A1.44,1.44,0,0,1,977.06,292.73Z"/><path class="cls-4" d="M982.89,297a1.44,1.44,0,1,1-2,.32A1.45,1.45,0,0,1,982.89,297Z"/><path class="cls-4" d="M982.09,291.93a1.44,1.44,0,1,1-2,.32A1.44,1.44,0,0,1,982.09,291.93Z"/><path class="cls-4" d="M976.58,289.71a1.44,1.44,0,1,1-.32-2A1.44,1.44,0,0,1,976.58,289.71Z"/><path class="cls-4" d="M977.86,297.76a1.43,1.43,0,0,1,.54,1.54L977,297.49A1.39,1.39,0,0,1,977.86,297.76Z"/><path class="cls-4" d="M985.84,283.09a1.44,1.44,0,1,1-.31-2A1.44,1.44,0,0,1,985.84,283.09Z"/><path class="cls-4" d="M991.35,285.31a1.44,1.44,0,1,1-2,.32A1.44,1.44,0,0,1,991.35,285.31Z"/><path class="cls-4" d="M988.54,280.6a1.44,1.44,0,1,1,.32,2A1.44,1.44,0,0,1,988.54,280.6Z"/><path class="cls-4" d="M983,278.38a1.44,1.44,0,1,1,2-.32A1.43,1.43,0,0,1,983,278.38Z"/><path class="cls-4" d="M986.32,286.11a1.43,1.43,0,0,1,.32,2,1.44,1.44,0,1,1-2.33-1.69A1.43,1.43,0,0,1,986.32,286.11Z"/><path class="cls-4" d="M978.8,284.2a1.44,1.44,0,0,1,1.7-2.33,1.44,1.44,0,1,1-1.7,2.33Z"/><path class="cls-4" d="M981.61,288.91a1.44,1.44,0,1,1-2.33-1.69,1.45,1.45,0,0,1,2-.32A1.43,1.43,0,0,1,981.61,288.91Z"/><path class="cls-4" d="M987.12,291.14a1.44,1.44,0,1,1-2,.31A1.45,1.45,0,0,1,987.12,291.14Z"/><path class="cls-4" d="M994.31,271.44a1.44,1.44,0,1,1-.32-2A1.44,1.44,0,0,1,994.31,271.44Z"/><path class="cls-4" d="M997.8,274a1.44,1.44,0,1,1,.32,2A1.44,1.44,0,0,1,997.8,274Z"/><path class="cls-4" d="M997.33,271a1.44,1.44,0,0,1,1.69-2.33,1.45,1.45,0,0,1,.32,2A1.43,1.43,0,0,1,997.33,271Z"/><path class="cls-4" d="M991.5,266.73a1.44,1.44,0,1,1,2-.32A1.44,1.44,0,0,1,991.5,266.73Z"/><path class="cls-4" d="M992.77,274.78a1.44,1.44,0,1,1,.32,2A1.44,1.44,0,0,1,992.77,274.78Z"/><path class="cls-4" d="M987.27,272.55a1.44,1.44,0,1,1,2-.31A1.44,1.44,0,0,1,987.27,272.55Z"/><path class="cls-4" d="M990.08,277.26a1.44,1.44,0,1,1-.32-2A1.44,1.44,0,0,1,990.08,277.26Z"/><path class="cls-4" d="M995.58,279.49a1.43,1.43,0,0,1,.32,2,1.44,1.44,0,1,1-.32-2Z"/><path class="cls-4" d="M1002.77,259.79a1.44,1.44,0,1,1-.32-2A1.44,1.44,0,0,1,1002.77,259.79Z"/><path class="cls-4" d="M1006.27,262.33a1.44,1.44,0,1,1,.32,2A1.44,1.44,0,0,1,1006.27,262.33Z"/><path class="cls-4" d="M1005.79,259.31a1.44,1.44,0,1,1,2-.32A1.44,1.44,0,0,1,1005.79,259.31Z"/><path class="cls-4" d="M1000,255.08a1.44,1.44,0,1,1,2-.32A1.44,1.44,0,0,1,1000,255.08Z"/><path class="cls-4" d="M1001.56,265.14a1.44,1.44,0,1,1,2-.32A1.45,1.45,0,0,1,1001.56,265.14Z"/><path class="cls-4" d="M995.73,260.9a1.44,1.44,0,1,1,2-.31A1.45,1.45,0,0,1,995.73,260.9Z"/><path class="cls-4" d="M998.54,265.61a1.44,1.44,0,1,1-2.33-1.69,1.44,1.44,0,0,1,2.33,1.69Z"/><path class="cls-4" d="M1002,268.15a1.44,1.44,0,0,1,2.33,1.7,1.44,1.44,0,1,1-2.33-1.7Z"/><path class="cls-4" d="M1011.24,248.14a1.44,1.44,0,1,1-.32-2A1.44,1.44,0,0,1,1011.24,248.14Z"/><path class="cls-4" d="M1014.73,250.68a1.44,1.44,0,1,1,.32,2A1.44,1.44,0,0,1,1014.73,250.68Z"/><path class="cls-4" d="M1014.25,247.66a1.44,1.44,0,1,1,2-.32A1.45,1.45,0,0,1,1014.25,247.66Z"/><path class="cls-4" d="M1008.43,243.43a1.44,1.44,0,1,1,2-.32A1.44,1.44,0,0,1,1008.43,243.43Z"/><path class="cls-4" d="M1010,253.49a1.45,1.45,0,0,1-.32-2,1.44,1.44,0,0,1,2.33,1.69A1.45,1.45,0,0,1,1010,253.49Z"/><path class="cls-4" d="M1004.2,249.25a1.43,1.43,0,0,1-.32-2,1.44,1.44,0,1,1,.32,2Z"/><path class="cls-4" d="M1007,254a1.43,1.43,0,0,1-2,.32,1.44,1.44,0,1,1,2-.32Z"/><path class="cls-4" d="M1010.5,256.5a1.44,1.44,0,1,1,.32,2A1.44,1.44,0,0,1,1010.5,256.5Z"/><path class="cls-4" d="M1019.7,236.49a1.44,1.44,0,1,1-.32-2A1.44,1.44,0,0,1,1019.7,236.49Z"/><path class="cls-4" d="M1023.2,239a1.44,1.44,0,1,1,.31,2A1.44,1.44,0,0,1,1023.2,239Z"/><path class="cls-4" d="M1024.73,235.69a1.44,1.44,0,1,1-.32-2A1.43,1.43,0,0,1,1024.73,235.69Z"/><path class="cls-4" d="M1016.89,231.78a1.44,1.44,0,1,1,2-.32A1.45,1.45,0,0,1,1016.89,231.78Z"/><path class="cls-4" d="M1018.49,241.84a1.44,1.44,0,1,1,1.69-2.33,1.44,1.44,0,1,1-1.69,2.33Z"/><path class="cls-4" d="M1012.66,237.61a1.44,1.44,0,1,1,1.69-2.33,1.43,1.43,0,0,1,.32,2A1.45,1.45,0,0,1,1012.66,237.61Z"/><path class="cls-4" d="M1015.47,242.32a1.44,1.44,0,1,1-.32-2A1.44,1.44,0,0,1,1015.47,242.32Z"/><path class="cls-4" d="M1019,244.85a1.44,1.44,0,1,1,.32,2A1.46,1.46,0,0,1,1019,244.85Z"/><path class="cls-4" d="M1026.15,225.16a1.44,1.44,0,1,1,2-.32A1.45,1.45,0,0,1,1026.15,225.16Z"/><path class="cls-4" d="M1025.36,220.13a1.44,1.44,0,1,1,2-.32A1.43,1.43,0,0,1,1025.36,220.13Z"/><path class="cls-4" d="M1027,230.19a1.44,1.44,0,1,1,2-.32A1.44,1.44,0,0,1,1027,230.19Z"/><path class="cls-4" d="M1021.12,226a1.44,1.44,0,1,1,2-.32A1.45,1.45,0,0,1,1021.12,226Z"/><path class="cls-4" d="M1023.93,230.67a1.44,1.44,0,1,1-.32-2A1.44,1.44,0,0,1,1023.93,230.67Z"/><path class="cls-4" d="M1027.43,233.2a1.44,1.44,0,1,1,.32,2A1.44,1.44,0,0,1,1027.43,233.2Z"/><path class="cls-4" d="M971.24,288.5a1.45,1.45,0,0,1,.32,2l0,0-1.71-2.19A1.46,1.46,0,0,1,971.24,288.5Z"/><path class="cls-4" d="M968.75,285.8a1.44,1.44,0,1,1,2-.32A1.45,1.45,0,0,1,968.75,285.8Z"/><path class="cls-4" d="M978,279.18a1.44,1.44,0,1,1,2-.32A1.44,1.44,0,0,1,978,279.18Z"/><path class="cls-4" d="M977.21,274.15a1.45,1.45,0,0,1-.32-2,1.44,1.44,0,1,1,.32,2Z"/><path class="cls-4" d="M973,280a1.44,1.44,0,1,1,2-.32A1.44,1.44,0,0,1,973,280Z"/><path class="cls-4" d="M973.78,285a1.44,1.44,0,0,1,1.69-2.33,1.45,1.45,0,0,1,.32,2A1.43,1.43,0,0,1,973.78,285Z"/><path class="cls-4" d="M986.47,267.53a1.46,1.46,0,0,1-.32-2,1.44,1.44,0,1,1,.32,2Z"/><path class="cls-4" d="M987.37,260.17a1.44,1.44,0,0,1-1.69,2.33,1.41,1.41,0,0,1-.56-.87l1.35-1.73A1.42,1.42,0,0,1,987.37,260.17Z"/><path class="cls-4" d="M983.14,266a1.44,1.44,0,0,1-1.7,2.33,1.42,1.42,0,0,1-.58-1.25l1-1.28A1.44,1.44,0,0,1,983.14,266Z"/><path class="cls-4" d="M982.24,273.35a1.44,1.44,0,1,1,2-.32A1.44,1.44,0,0,1,982.24,273.35Z"/><path class="cls-4" d="M994.94,255.88a1.44,1.44,0,1,1,2-.32A1.44,1.44,0,0,1,994.94,255.88Z"/><path class="cls-4" d="M996.15,250.53a1.44,1.44,0,0,1-2,.32,1.29,1.29,0,0,1-.32-.34l1.69-2.16a1.1,1.1,0,0,1,.32.17A1.43,1.43,0,0,1,996.15,250.53Z"/><path class="cls-4" d="M991.92,256.35a1.43,1.43,0,0,1-2,.32,1.4,1.4,0,0,1-.46-.57l1.56-2a1.32,1.32,0,0,1,.59.24A1.44,1.44,0,0,1,991.92,256.35Z"/><path class="cls-4" d="M990.7,261.7a1.44,1.44,0,1,1,2-.32A1.44,1.44,0,0,1,990.7,261.7Z"/><path class="cls-4" d="M1003.4,244.23a1.44,1.44,0,1,1,2-.32A1.44,1.44,0,0,1,1003.4,244.23Z"/><path class="cls-4" d="M1004.62,238.88a1.44,1.44,0,0,1-2,.34l1.76-2.25A1.44,1.44,0,0,1,1004.62,238.88Z"/><path class="cls-4" d="M1000.38,244.7a1.43,1.43,0,0,1-2,.32l-.15-.13,1.76-2.25.08.05A1.43,1.43,0,0,1,1000.38,244.7Z"/><path class="cls-4" d="M999.17,250.05a1.44,1.44,0,1,1,2-.32A1.43,1.43,0,0,1,999.17,250.05Z"/><path class="cls-4" d="M1011.86,232.58a1.44,1.44,0,1,1,2-.32A1.46,1.46,0,0,1,1011.86,232.58Z"/><path class="cls-4" d="M1013.08,227.23a1.45,1.45,0,0,1-1.48.56l1.6-2A1.42,1.42,0,0,1,1013.08,227.23Z"/><path class="cls-4" d="M1008.85,233.05a1.45,1.45,0,0,1-1.74.48l1.71-2.19A1.42,1.42,0,0,1,1008.85,233.05Z"/><path class="cls-4" d="M1007.63,238.4a1.44,1.44,0,1,1,1.69-2.33,1.44,1.44,0,1,1-1.69,2.33Z"/><path class="cls-4" d="M1020.33,220.93a1.44,1.44,0,1,1,2-.32A1.45,1.45,0,0,1,1020.33,220.93Z"/><path class="cls-4" d="M1021.54,215.58a1.43,1.43,0,0,1-.81.54l1.08-1.38A1.4,1.4,0,0,1,1021.54,215.58Z"/><path class="cls-4" d="M1017.31,221.4a1.43,1.43,0,0,1-1.18.6l1.41-1.8A1.45,1.45,0,0,1,1017.31,221.4Z"/><path class="cls-4" d="M1016.1,226.75a1.44,1.44,0,1,1,2-.32A1.43,1.43,0,0,1,1016.1,226.75Z"/><path class="cls-4" d="M1026.57,214.78a1.44,1.44,0,1,1-2.33-1.69,1.45,1.45,0,0,1,1.49-.56c.34.68.65,1.37,1,2.06A.72.72,0,0,1,1026.57,214.78Z"/><path class="cls-3" d="M966.78,284.46l17.36,22.17,17.24,22,2.94.86a27.52,27.52,0,0,0-19.56,19.08l-1-.3L966.6,328l-17.14-20.33-34-40.31c-13.61-15-16.21-38.32-6.31-56.52ZM966,307.07a2,2,0,1,0-2-2A2,2,0,0,0,966,307.07Z"/><line class="cls-5" x1="965.8" y1="328.67" x2="950.5" y2="346"/><path class="cls-5" d="M968,283.5l56.86-72.65c9.91,18.2,7.3,41.51-6.3,56.52l-32.48,37.74"/><line class="cls-5" x1="932.66" y1="328.67" x2="948.37" y2="308.59"/><path class="cls-5" d="M1001.38,328.67l-17.24-22-17.36-22.17-57.6-73.61c-9.9,18.2-7.3,41.51,6.31,56.52l34,40.31L966.6,328l17.11,20.3"/><path class="cls-6" d="M966.05,299.6a5.5,5.5,0,1,0,5.49,5.52A5.5,5.5,0,0,0,966.05,299.6Z"/><path class="cls-5" d="M984.76,348.61a27.49,27.49,0,1,0,26.44-19.94,27.83,27.83,0,0,0-6.88.86A27.52,27.52,0,0,0,984.76,348.61Z"/><circle class="cls-5" cx="1011.2" cy="356.16" r="11.78"/><path class="cls-5" d="M950.1,345.37a27.45,27.45,0,1,1-17.74-15.65A27.48,27.48,0,0,1,950.1,345.37Z"/><circle class="cls-5" cx="924.8" cy="356.16" r="11.78"/><rect class="cls-7" x="450" y="147.25" width="300" height="300" rx="150"/><path class="cls-7" d="M673.39,229.5v8.05H643.27V229.5a15.06,15.06,0,0,1,30.12,0Z"/><path class="cls-8" d="M645.87,236.44a1.44,1.44,0,0,0-2.6-.85v1.71a1.88,1.88,0,0,0,.24.25h1.83A1.43,1.43,0,0,0,645.87,236.44Z"/><path class="cls-8" d="M648,231.4a1.44,1.44,0,1,0,1.44,1.44A1.44,1.44,0,0,0,648,231.4Z"/><path class="cls-8" d="M645.87,222a1.38,1.38,0,0,0-.19-.69,14.88,14.88,0,0,0-1.14,2.12A1.43,1.43,0,0,0,645.87,222Z"/><path class="cls-8" d="M649.47,218.44a1.45,1.45,0,0,0-.3-.86,14.79,14.79,0,0,0-2.09,1.94,1.44,1.44,0,0,0,2.39-1.08Z"/><path class="cls-8" d="M648,224.2a1.44,1.44,0,1,0,1.44,1.44A1.44,1.44,0,0,0,648,224.2Z"/><path class="cls-8" d="M644.43,230.68a1.44,1.44,0,1,0,0-2.88,1.46,1.46,0,0,0-1.1.52c0,.39-.06.78-.06,1.18v.6A1.44,1.44,0,0,0,644.43,230.68Z"/><path class="cls-8" d="M660.27,236.44a1.44,1.44,0,1,0-2.88,0,1.42,1.42,0,0,0,.52,1.11h1.83A1.43,1.43,0,0,0,660.27,236.44Z"/><path class="cls-8" d="M653.07,236.44a1.44,1.44,0,0,0-2.88,0,1.42,1.42,0,0,0,.52,1.11h1.83A1.43,1.43,0,0,0,653.07,236.44Z"/><path class="cls-8" d="M655.23,231.4a1.44,1.44,0,1,0,1.44,1.44A1.44,1.44,0,0,0,655.23,231.4Z"/><path class="cls-8" d="M662.43,231.4a1.44,1.44,0,1,0,1.44,1.44A1.44,1.44,0,0,0,662.43,231.4Z"/><path class="cls-8" d="M658.83,220.6a1.44,1.44,0,1,0,1.44,1.44A1.44,1.44,0,0,0,658.83,220.6Z"/><path class="cls-8" d="M651.63,220.6a1.44,1.44,0,1,0,1.44,1.44A1.44,1.44,0,0,0,651.63,220.6Z"/><path class="cls-8" d="M655.23,217a1.44,1.44,0,1,0,1.44,1.44A1.44,1.44,0,0,0,655.23,217Z"/><path class="cls-8" d="M662.43,217a1.44,1.44,0,1,0,1.44,1.44A1.44,1.44,0,0,0,662.43,217Z"/><path class="cls-8" d="M655.23,224.2a1.44,1.44,0,1,0,1.44,1.44A1.44,1.44,0,0,0,655.23,224.2Z"/><path class="cls-8" d="M662.43,224.2a1.44,1.44,0,1,0,1.44,1.44A1.44,1.44,0,0,0,662.43,224.2Z"/><path class="cls-8" d="M658.83,227.8a1.44,1.44,0,1,0,1.44,1.44A1.44,1.44,0,0,0,658.83,227.8Z"/><path class="cls-8" d="M651.63,227.8a1.44,1.44,0,1,0,1.44,1.44A1.44,1.44,0,0,0,651.63,227.8Z"/><path class="cls-8" d="M658.83,216.28a1.44,1.44,0,0,0,1.44-1.44,1.15,1.15,0,0,0,0-.26,14.78,14.78,0,0,0-1.9-.13c-.3,0-.6,0-.91.05a1.86,1.86,0,0,0,0,.34A1.43,1.43,0,0,0,658.83,216.28Z"/><path class="cls-8" d="M652.92,215.47a14.13,14.13,0,0,0-1.68.76,1.6,1.6,0,0,0,.39.05A1.44,1.44,0,0,0,652.92,215.47Z"/><path class="cls-8" d="M671.79,236.44a1.42,1.42,0,0,0,.52,1.11h1.08V235l-.16,0A1.44,1.44,0,0,0,671.79,236.44Z"/><path class="cls-8" d="M667.47,236.44a1.44,1.44,0,0,0-2.88,0,1.42,1.42,0,0,0,.52,1.11h1.83A1.43,1.43,0,0,0,667.47,236.44Z"/><path class="cls-8" d="M669.63,231.4a1.44,1.44,0,1,0,1.44,1.44A1.44,1.44,0,0,0,669.63,231.4Z"/><path class="cls-8" d="M666,220.6a1.44,1.44,0,1,0,1.44,1.44A1.44,1.44,0,0,0,666,220.6Z"/><path class="cls-8" d="M669.63,219.88l.26,0a15.86,15.86,0,0,0-1.68-1.7,2.64,2.64,0,0,0,0,.28A1.43,1.43,0,0,0,669.63,219.88Z"/><path class="cls-8" d="M669.63,224.2a1.44,1.44,0,1,0,1.44,1.44A1.44,1.44,0,0,0,669.63,224.2Z"/><path class="cls-8" d="M671.79,229.24a1.43,1.43,0,0,0,1.44,1.44h.16V229.5a15.81,15.81,0,0,0-.1-1.69h-.06A1.44,1.44,0,0,0,671.79,229.24Z"/><path class="cls-8" d="M666,227.8a1.44,1.44,0,1,0,1.44,1.44A1.44,1.44,0,0,0,666,227.8Z"/><path class="cls-3" d="M643.27,214.45h15.07a15.06,15.06,0,0,0-15.07,15.05V365a15,15,0,1,1-30.09,0v-7.53H545.42v-128a15,15,0,0,1,15.05-15.05h82.8Z"/><path class="cls-7" d="M628.22,380.05H541.66a15,15,0,0,1-15-15.05v-3.77a3.77,3.77,0,0,1,3.77-3.76h82.8V365A15,15,0,0,0,628.22,380.05Z"/><path class="cls-8" d="M532.83,375.4a1.44,1.44,0,0,0-1.26.75,14.53,14.53,0,0,0,2.28,1.7,1.41,1.41,0,0,0,.42-1A1.45,1.45,0,0,0,532.83,375.4Z"/><path class="cls-8" d="M529.23,364.6a1.44,1.44,0,1,0,1.44,1.44A1.44,1.44,0,0,0,529.23,364.6Z"/><path class="cls-8" d="M527.07,362.44a1.42,1.42,0,0,0-.46-1v2.09A1.43,1.43,0,0,0,527.07,362.44Z"/><path class="cls-8" d="M532.83,361a1.44,1.44,0,1,0,1.44,1.44A1.44,1.44,0,0,0,532.83,361Z"/><path class="cls-8" d="M532.83,368.2a1.44,1.44,0,1,0,1.44,1.44A1.44,1.44,0,0,0,532.83,368.2Z"/><path class="cls-8" d="M530.67,373.24a1.45,1.45,0,0,0-1.44-1.44,1.41,1.41,0,0,0-.85.29,15.69,15.69,0,0,0,1.58,2.39A1.46,1.46,0,0,0,530.67,373.24Z"/><path class="cls-8" d="M529.23,360.28a1.44,1.44,0,0,0,.57-2.76,3.79,3.79,0,0,0-2,.94,1.65,1.65,0,0,0-.05.38A1.43,1.43,0,0,0,529.23,360.28Z"/><path class="cls-8" d="M543.63,379a1.44,1.44,0,0,0-1.38,1.05H545A1.44,1.44,0,0,0,543.63,379Z"/><path class="cls-8" d="M536.43,379l-.21,0c.41.16.82.31,1.24.43A1.41,1.41,0,0,0,536.43,379Z"/><path class="cls-8" d="M540,375.4a1.44,1.44,0,1,0,1.44,1.44A1.44,1.44,0,0,0,540,375.4Z"/><path class="cls-8" d="M547.23,375.4a1.44,1.44,0,1,0,1.44,1.44A1.44,1.44,0,0,0,547.23,375.4Z"/><path class="cls-8" d="M543.63,364.6a1.44,1.44,0,1,0,1.44,1.44A1.44,1.44,0,0,0,543.63,364.6Z"/><path class="cls-8" d="M536.43,364.6a1.44,1.44,0,1,0,1.44,1.44A1.44,1.44,0,0,0,536.43,364.6Z"/><path class="cls-8" d="M540,361a1.44,1.44,0,1,0,1.44,1.44A1.44,1.44,0,0,0,540,361Z"/><path class="cls-8" d="M547.23,361a1.44,1.44,0,1,0,1.44,1.44A1.44,1.44,0,0,0,547.23,361Z"/><path class="cls-8" d="M540,368.2a1.44,1.44,0,1,0,1.44,1.44A1.44,1.44,0,0,0,540,368.2Z"/><path class="cls-8" d="M547.23,368.2a1.44,1.44,0,1,0,1.44,1.44A1.44,1.44,0,0,0,547.23,368.2Z"/><path class="cls-8" d="M543.63,371.8a1.44,1.44,0,1,0,1.44,1.44A1.44,1.44,0,0,0,543.63,371.8Z"/><path class="cls-8" d="M536.43,371.8a1.44,1.44,0,1,0,1.44,1.44A1.44,1.44,0,0,0,536.43,371.8Z"/><path class="cls-8" d="M542.19,358.84a1.44,1.44,0,1,0,1.83-1.37h-.79A1.43,1.43,0,0,0,542.19,358.84Z"/><path class="cls-8" d="M535,358.84a1.44,1.44,0,1,0,1.83-1.37H536A1.43,1.43,0,0,0,535,358.84Z"/><path class="cls-8" d="M558,379a1.44,1.44,0,0,0-1.38,1.05h2.75A1.44,1.44,0,0,0,558,379Z"/><path class="cls-8" d="M550.83,379a1.44,1.44,0,0,0-1.38,1.05h2.75A1.44,1.44,0,0,0,550.83,379Z"/><path class="cls-8" d="M554.43,375.4a1.44,1.44,0,1,0,1.44,1.44A1.44,1.44,0,0,0,554.43,375.4Z"/><path class="cls-8" d="M561.63,375.4a1.44,1.44,0,1,0,1.44,1.44A1.44,1.44,0,0,0,561.63,375.4Z"/><path class="cls-8" d="M558,364.6a1.44,1.44,0,1,0,1.44,1.44A1.44,1.44,0,0,0,558,364.6Z"/><path class="cls-8" d="M550.83,364.6a1.44,1.44,0,1,0,1.44,1.44A1.44,1.44,0,0,0,550.83,364.6Z"/><path class="cls-8" d="M554.43,361a1.44,1.44,0,1,0,1.44,1.44A1.44,1.44,0,0,0,554.43,361Z"/><path class="cls-8" d="M561.63,361a1.44,1.44,0,1,0,1.44,1.44A1.44,1.44,0,0,0,561.63,361Z"/><path class="cls-8" d="M554.43,368.2a1.44,1.44,0,1,0,1.44,1.44A1.44,1.44,0,0,0,554.43,368.2Z"/><path class="cls-8" d="M561.63,368.2a1.44,1.44,0,1,0,1.44,1.44A1.44,1.44,0,0,0,561.63,368.2Z"/><path class="cls-8" d="M558,371.8a1.44,1.44,0,1,0,1.44,1.44A1.44,1.44,0,0,0,558,371.8Z"/><path class="cls-8" d="M550.83,371.8a1.44,1.44,0,1,0,1.44,1.44A1.44,1.44,0,0,0,550.83,371.8Z"/><path class="cls-8" d="M556.59,358.84a1.44,1.44,0,1,0,1.83-1.37h-.79A1.43,1.43,0,0,0,556.59,358.84Z"/><path class="cls-8" d="M549.39,358.84a1.44,1.44,0,1,0,1.83-1.37h-.79A1.43,1.43,0,0,0,549.39,358.84Z"/><path class="cls-8" d="M572.43,379a1.44,1.44,0,0,0-1.38,1.05h2.75A1.44,1.44,0,0,0,572.43,379Z"/><path class="cls-8" d="M565.23,379a1.44,1.44,0,0,0-1.38,1.05h2.75A1.44,1.44,0,0,0,565.23,379Z"/><path class="cls-8" d="M568.83,375.4a1.44,1.44,0,1,0,1.44,1.44A1.44,1.44,0,0,0,568.83,375.4Z"/><path class="cls-8" d="M576,375.4a1.44,1.44,0,1,0,1.44,1.44A1.44,1.44,0,0,0,576,375.4Z"/><path class="cls-8" d="M572.43,364.6a1.44,1.44,0,1,0,1.44,1.44A1.44,1.44,0,0,0,572.43,364.6Z"/><path class="cls-8" d="M565.23,364.6a1.44,1.44,0,1,0,1.44,1.44A1.44,1.44,0,0,0,565.23,364.6Z"/><path class="cls-8" d="M568.83,361a1.44,1.44,0,1,0,1.44,1.44A1.44,1.44,0,0,0,568.83,361Z"/><path class="cls-8" d="M576,361a1.44,1.44,0,1,0,1.44,1.44A1.44,1.44,0,0,0,576,361Z"/><path class="cls-8" d="M568.83,368.2a1.44,1.44,0,1,0,1.44,1.44A1.44,1.44,0,0,0,568.83,368.2Z"/><path class="cls-8" d="M576,368.2a1.44,1.44,0,1,0,1.44,1.44A1.44,1.44,0,0,0,576,368.2Z"/><path class="cls-8" d="M572.43,371.8a1.44,1.44,0,1,0,1.44,1.44A1.44,1.44,0,0,0,572.43,371.8Z"/><path class="cls-8" d="M565.23,371.8a1.44,1.44,0,1,0,1.44,1.44A1.44,1.44,0,0,0,565.23,371.8Z"/><path class="cls-8" d="M571,358.84a1.44,1.44,0,1,0,1.83-1.37H572A1.43,1.43,0,0,0,571,358.84Z"/><path class="cls-8" d="M563.79,358.84a1.44,1.44,0,1,0,1.83-1.37h-.79A1.43,1.43,0,0,0,563.79,358.84Z"/><path class="cls-8" d="M586.83,379a1.44,1.44,0,0,0-1.38,1.05h2.75A1.44,1.44,0,0,0,586.83,379Z"/><path class="cls-8" d="M579.63,379a1.44,1.44,0,0,0-1.38,1.05H581A1.44,1.44,0,0,0,579.63,379Z"/><path class="cls-8" d="M583.23,375.4a1.44,1.44,0,1,0,1.44,1.44A1.44,1.44,0,0,0,583.23,375.4Z"/><path class="cls-8" d="M590.43,375.4a1.44,1.44,0,1,0,1.44,1.44A1.44,1.44,0,0,0,590.43,375.4Z"/><path class="cls-8" d="M586.83,364.6a1.44,1.44,0,1,0,1.44,1.44A1.44,1.44,0,0,0,586.83,364.6Z"/><path class="cls-8" d="M579.63,364.6a1.44,1.44,0,1,0,1.44,1.44A1.44,1.44,0,0,0,579.63,364.6Z"/><path class="cls-8" d="M583.23,361a1.44,1.44,0,1,0,1.44,1.44A1.44,1.44,0,0,0,583.23,361Z"/><path class="cls-8" d="M590.43,361a1.44,1.44,0,1,0,1.44,1.44A1.44,1.44,0,0,0,590.43,361Z"/><path class="cls-8" d="M583.23,368.2a1.44,1.44,0,1,0,1.44,1.44A1.44,1.44,0,0,0,583.23,368.2Z"/><path class="cls-8" d="M590.43,368.2a1.44,1.44,0,1,0,1.44,1.44A1.44,1.44,0,0,0,590.43,368.2Z"/><path class="cls-8" d="M586.83,371.8a1.44,1.44,0,1,0,1.44,1.44A1.44,1.44,0,0,0,586.83,371.8Z"/><path class="cls-8" d="M579.63,371.8a1.44,1.44,0,1,0,1.44,1.44A1.44,1.44,0,0,0,579.63,371.8Z"/><path class="cls-8" d="M585.39,358.84a1.44,1.44,0,1,0,1.83-1.37h-.79A1.43,1.43,0,0,0,585.39,358.84Z"/><path class="cls-8" d="M578.19,358.84a1.44,1.44,0,1,0,1.83-1.37h-.79A1.43,1.43,0,0,0,578.19,358.84Z"/><path class="cls-8" d="M601.23,379a1.44,1.44,0,0,0-1.38,1.05h2.75A1.44,1.44,0,0,0,601.23,379Z"/><path class="cls-8" d="M594,379a1.44,1.44,0,0,0-1.38,1.05h2.75A1.44,1.44,0,0,0,594,379Z"/><path class="cls-8" d="M597.63,375.4a1.44,1.44,0,1,0,1.44,1.44A1.44,1.44,0,0,0,597.63,375.4Z"/><path class="cls-8" d="M604.83,375.4a1.44,1.44,0,1,0,1.44,1.44A1.44,1.44,0,0,0,604.83,375.4Z"/><path class="cls-8" d="M601.23,364.6a1.44,1.44,0,1,0,1.44,1.44A1.44,1.44,0,0,0,601.23,364.6Z"/><path class="cls-8" d="M594,364.6a1.44,1.44,0,1,0,1.44,1.44A1.44,1.44,0,0,0,594,364.6Z"/><path class="cls-8" d="M597.63,361a1.44,1.44,0,1,0,1.44,1.44A1.44,1.44,0,0,0,597.63,361Z"/><path class="cls-8" d="M604.83,361a1.44,1.44,0,1,0,1.44,1.44A1.44,1.44,0,0,0,604.83,361Z"/><path class="cls-8" d="M597.63,368.2a1.44,1.44,0,1,0,1.44,1.44A1.44,1.44,0,0,0,597.63,368.2Z"/><path class="cls-8" d="M604.83,368.2a1.44,1.44,0,1,0,1.44,1.44A1.44,1.44,0,0,0,604.83,368.2Z"/><path class="cls-8" d="M601.23,371.8a1.44,1.44,0,1,0,1.44,1.44A1.44,1.44,0,0,0,601.23,371.8Z"/><path class="cls-8" d="M594,371.8a1.44,1.44,0,1,0,1.44,1.44A1.44,1.44,0,0,0,594,371.8Z"/><path class="cls-8" d="M599.79,358.84a1.44,1.44,0,1,0,1.83-1.37h-.79A1.43,1.43,0,0,0,599.79,358.84Z"/><path class="cls-8" d="M592.59,358.84a1.44,1.44,0,1,0,1.83-1.37h-.79A1.43,1.43,0,0,0,592.59,358.84Z"/><path class="cls-8" d="M615.63,379a1.44,1.44,0,0,0-1.38,1.05H617A1.44,1.44,0,0,0,615.63,379Z"/><path class="cls-8" d="M608.43,379a1.44,1.44,0,0,0-1.38,1.05h2.75A1.44,1.44,0,0,0,608.43,379Z"/><path class="cls-8" d="M612,375.4a1.44,1.44,0,1,0,1.44,1.44A1.44,1.44,0,0,0,612,375.4Z"/><path class="cls-8" d="M619.23,378.28a1.45,1.45,0,0,0,1.08-.49,14.93,14.93,0,0,1-2.28-1.74,1.44,1.44,0,0,0,1.2,2.23Z"/><path class="cls-8" d="M608.43,364.6a1.44,1.44,0,1,0,1.44,1.44A1.44,1.44,0,0,0,608.43,364.6Z"/><path class="cls-8" d="M612,361a1.44,1.44,0,1,0,1.15,2.3v-1.72A1.45,1.45,0,0,0,612,361Z"/><path class="cls-8" d="M612,368.2a1.44,1.44,0,1,0,1.44,1.44A1.44,1.44,0,0,0,612,368.2Z"/><path class="cls-8" d="M614.19,373.24a1.43,1.43,0,0,0,1.44,1.44,1.4,1.4,0,0,0,.85-.28,13.77,13.77,0,0,1-1.57-2.4A1.43,1.43,0,0,0,614.19,373.24Z"/><path class="cls-8" d="M608.43,371.8a1.44,1.44,0,1,0,1.44,1.44A1.44,1.44,0,0,0,608.43,371.8Z"/><path class="cls-8" d="M607,358.84a1.44,1.44,0,1,0,1.83-1.37H608A1.43,1.43,0,0,0,607,358.84Z"/><path class="cls-8" d="M623.8,379.39c-.36-.11-.7-.24-1-.38a1.42,1.42,0,0,0-1.3,1h2.75A1.36,1.36,0,0,0,623.8,379.39Z"/><path class="cls-5" d="M575.54,214.45H560.47a15,15,0,0,0-15.05,15.05v128"/><polyline class="cls-5" points="643.27 244.57 643.27 237.55 643.27 237.03"/><path class="cls-5" d="M575.54,214.45h82.8a15.05,15.05,0,0,1,15,15.05v8.05H643.27"/><path class="cls-5" d="M658.34,214.45a15.06,15.06,0,0,0-15.07,15.05V237"/><path class="cls-5" d="M628.22,380.05a15,15,0,0,1-15-15.05v-7.53h-82.8a3.77,3.77,0,0,0-3.77,3.76V365a15,15,0,0,0,15,15.05h86.56a15,15,0,0,0,15-15.05V244.57"/><rect class="cls-9" x="82" y="147.25" width="300" height="300" rx="150"/><path class="cls-9" d="M260.6,279.66v22.81a14.3,14.3,0,0,1-22.29,11.86l-.48-.1A14.35,14.35,0,0,0,232,296.37V267.68a14.31,14.31,0,0,1,28.61,0Z"/><path class="cls-10" d="M240,308.44a1.44,1.44,0,0,0-1.15-1.41,14.39,14.39,0,0,1,.09,1.62q0,.6-.06,1.2A1.45,1.45,0,0,0,240,308.44Z"/><path class="cls-10" d="M242.17,303.4a1.44,1.44,0,1,0,1.44,1.44A1.45,1.45,0,0,0,242.17,303.4Z"/><path class="cls-10" d="M242.17,310.6a1.44,1.44,0,1,0,1.44,1.44A1.45,1.45,0,0,0,242.17,310.6Z"/><path class="cls-10" d="M238.57,314.2a1.45,1.45,0,0,0-.46.09l.2,0a15.79,15.79,0,0,0,1.65,1A1.44,1.44,0,0,0,238.57,314.2Z"/><path class="cls-10" d="M238.57,292.6A1.44,1.44,0,1,0,240,294,1.45,1.45,0,0,0,238.57,292.6Z"/><path class="cls-10" d="M232.81,294a1.42,1.42,0,0,0-.82-1.29v2.59A1.42,1.42,0,0,0,232.81,294Z"/><path class="cls-10" d="M235,289a1.44,1.44,0,1,0,1.44,1.44A1.45,1.45,0,0,0,235,289Z"/><path class="cls-10" d="M242.17,289a1.44,1.44,0,1,0,1.44,1.44A1.45,1.45,0,0,0,242.17,289Z"/><path class="cls-10" d="M236.41,297.64a1.44,1.44,0,0,0-2.86-.18,13.53,13.53,0,0,1,1.7,1.6A1.45,1.45,0,0,0,236.41,297.64Z"/><path class="cls-10" d="M242.17,296.2a1.44,1.44,0,1,0,1.44,1.44A1.45,1.45,0,0,0,242.17,296.2Z"/><path class="cls-10" d="M238.57,299.8a1.44,1.44,0,1,0,1.44,1.44A1.45,1.45,0,0,0,238.57,299.8Z"/><path class="cls-10" d="M238.57,278.2a1.44,1.44,0,1,0,1.44,1.44A1.45,1.45,0,0,0,238.57,278.2Z"/><path class="cls-10" d="M232.81,279.64a1.42,1.42,0,0,0-.82-1.29v2.59A1.42,1.42,0,0,0,232.81,279.64Z"/><path class="cls-10" d="M235,274.6a1.44,1.44,0,1,0,1.44,1.44A1.45,1.45,0,0,0,235,274.6Z"/><path class="cls-10" d="M242.17,274.6a1.44,1.44,0,1,0,1.44,1.44A1.45,1.45,0,0,0,242.17,274.6Z"/><path class="cls-10" d="M235,281.8a1.44,1.44,0,1,0,1.44,1.44A1.45,1.45,0,0,0,235,281.8Z"/><path class="cls-10" d="M242.17,281.8a1.44,1.44,0,1,0,1.44,1.44A1.45,1.45,0,0,0,242.17,281.8Z"/><path class="cls-10" d="M238.57,285.4a1.44,1.44,0,1,0,1.44,1.44A1.45,1.45,0,0,0,238.57,285.4Z"/><path class="cls-10" d="M232.81,286.84a1.42,1.42,0,0,0-.82-1.29v2.59A1.42,1.42,0,0,0,232.81,286.84Z"/><path class="cls-10" d="M238.57,263.8a1.44,1.44,0,1,0,1.44,1.44A1.45,1.45,0,0,0,238.57,263.8Z"/><path class="cls-10" d="M232.81,265.24a1.44,1.44,0,0,0-.39-1,15.09,15.09,0,0,0-.37,2.25A1.45,1.45,0,0,0,232.81,265.24Z"/><path class="cls-10" d="M235,260.2a1.44,1.44,0,1,0,1.44,1.44A1.45,1.45,0,0,0,235,260.2Z"/><path class="cls-10" d="M242.17,260.2a1.44,1.44,0,1,0,1.44,1.44A1.45,1.45,0,0,0,242.17,260.2Z"/><path class="cls-10" d="M235,267.4a1.44,1.44,0,1,0,1.44,1.44A1.45,1.45,0,0,0,235,267.4Z"/><path class="cls-10" d="M242.17,267.4a1.44,1.44,0,1,0,1.44,1.44A1.45,1.45,0,0,0,242.17,267.4Z"/><path class="cls-10" d="M238.57,271a1.44,1.44,0,1,0,1.44,1.44A1.45,1.45,0,0,0,238.57,271Z"/><path class="cls-10" d="M232.81,272.44a1.42,1.42,0,0,0-.82-1.29v2.59A1.42,1.42,0,0,0,232.81,272.44Z"/><path class="cls-10" d="M242.17,255.88a1.43,1.43,0,0,0,1.44-1.44,1.41,1.41,0,0,0-.22-.76,13.15,13.15,0,0,0-2.65.82A1.43,1.43,0,0,0,242.17,255.88Z"/><path class="cls-10" d="M238.57,256.6A1.44,1.44,0,1,0,240,258,1.45,1.45,0,0,0,238.57,256.6Z"/><path class="cls-10" d="M253,307a1.44,1.44,0,1,0,1.44,1.44A1.45,1.45,0,0,0,253,307Z"/><path class="cls-10" d="M245.77,307a1.44,1.44,0,1,0,1.44,1.44A1.45,1.45,0,0,0,245.77,307Z"/><path class="cls-10" d="M249.37,303.4a1.44,1.44,0,1,0,1.44,1.44A1.45,1.45,0,0,0,249.37,303.4Z"/><path class="cls-10" d="M256.57,306.28a1.44,1.44,0,1,0-1.44-1.44A1.43,1.43,0,0,0,256.57,306.28Z"/><path class="cls-10" d="M249.37,310.6a1.44,1.44,0,1,0,1.44,1.44A1.45,1.45,0,0,0,249.37,310.6Z"/><path class="cls-10" d="M256.57,310.6a1.45,1.45,0,0,0-1.44,1.44,1.46,1.46,0,0,0,.6,1.17,14.79,14.79,0,0,0,1.94-2.09A1.43,1.43,0,0,0,256.57,310.6Z"/><path class="cls-10" d="M251.53,315.64a.51.51,0,0,0,0,.13,14.68,14.68,0,0,0,2.37-1.21,1.44,1.44,0,0,0-2.39,1.08Z"/><path class="cls-10" d="M247.21,315.64a1.44,1.44,0,1,0-2.43,1,12.79,12.79,0,0,0,1.52.09l.38,0A1.43,1.43,0,0,0,247.21,315.64Z"/><path class="cls-10" d="M253,292.6a1.44,1.44,0,1,0,1.44,1.44A1.45,1.45,0,0,0,253,292.6Z"/><path class="cls-10" d="M245.77,292.6a1.44,1.44,0,1,0,1.44,1.44A1.45,1.45,0,0,0,245.77,292.6Z"/><path class="cls-10" d="M249.37,289a1.44,1.44,0,1,0,1.44,1.44A1.45,1.45,0,0,0,249.37,289Z"/><path class="cls-10" d="M256.57,291.88a1.44,1.44,0,1,0-1.44-1.44A1.43,1.43,0,0,0,256.57,291.88Z"/><path class="cls-10" d="M249.37,296.2a1.44,1.44,0,1,0,1.44,1.44A1.45,1.45,0,0,0,249.37,296.2Z"/><path class="cls-10" d="M256.57,299.08a1.44,1.44,0,1,0-1.44-1.44A1.43,1.43,0,0,0,256.57,299.08Z"/><path class="cls-10" d="M253,299.8a1.44,1.44,0,1,0,1.44,1.44A1.45,1.45,0,0,0,253,299.8Z"/><path class="cls-10" d="M245.77,299.8a1.44,1.44,0,1,0,1.44,1.44A1.45,1.45,0,0,0,245.77,299.8Z"/><path class="cls-10" d="M253,278.2a1.44,1.44,0,1,0,1.44,1.44A1.45,1.45,0,0,0,253,278.2Z"/><path class="cls-10" d="M245.77,278.2a1.44,1.44,0,1,0,1.44,1.44A1.45,1.45,0,0,0,245.77,278.2Z"/><path class="cls-10" d="M249.37,274.6a1.44,1.44,0,1,0,1.44,1.44A1.45,1.45,0,0,0,249.37,274.6Z"/><path class="cls-10" d="M256.57,277.48a1.44,1.44,0,1,0-1.44-1.44A1.43,1.43,0,0,0,256.57,277.48Z"/><path class="cls-10" d="M249.37,281.8a1.44,1.44,0,1,0,1.44,1.44A1.45,1.45,0,0,0,249.37,281.8Z"/><path class="cls-10" d="M256.57,284.68a1.44,1.44,0,1,0-1.44-1.44A1.43,1.43,0,0,0,256.57,284.68Z"/><path class="cls-10" d="M253,285.4a1.44,1.44,0,1,0,1.44,1.44A1.45,1.45,0,0,0,253,285.4Z"/><path class="cls-10" d="M245.77,285.4a1.44,1.44,0,1,0,1.44,1.44A1.45,1.45,0,0,0,245.77,285.4Z"/><path class="cls-10" d="M253,263.8a1.44,1.44,0,1,0,1.44,1.44A1.45,1.45,0,0,0,253,263.8Z"/><path class="cls-10" d="M245.77,263.8a1.44,1.44,0,1,0,1.44,1.44A1.45,1.45,0,0,0,245.77,263.8Z"/><path class="cls-10" d="M249.37,260.2a1.44,1.44,0,1,0,1.44,1.44A1.45,1.45,0,0,0,249.37,260.2Z"/><path class="cls-10" d="M256.57,263.08a1.44,1.44,0,1,0-1.44-1.44A1.43,1.43,0,0,0,256.57,263.08Z"/><path class="cls-10" d="M249.37,267.4a1.44,1.44,0,1,0,1.44,1.44A1.45,1.45,0,0,0,249.37,267.4Z"/><path class="cls-10" d="M256.57,270.28a1.44,1.44,0,1,0-1.44-1.44A1.43,1.43,0,0,0,256.57,270.28Z"/><path class="cls-10" d="M253,271a1.44,1.44,0,1,0,1.44,1.44A1.45,1.45,0,0,0,253,271Z"/><path class="cls-10" d="M245.77,271a1.44,1.44,0,1,0,1.44,1.44A1.45,1.45,0,0,0,245.77,271Z"/><path class="cls-10" d="M249.37,255.88a1.43,1.43,0,0,0,1.44-1.44,2.09,2.09,0,0,0,0-.35,14.86,14.86,0,0,0-2.5-.56,1.4,1.4,0,0,0-.34.91A1.44,1.44,0,0,0,249.37,255.88Z"/><path class="cls-10" d="M253,256.6a1.44,1.44,0,1,0,1.44,1.44A1.45,1.45,0,0,0,253,256.6Z"/><path class="cls-10" d="M245.77,256.6a1.44,1.44,0,1,0,1.44,1.44A1.45,1.45,0,0,0,245.77,256.6Z"/><path class="cls-10" d="M258.73,308.44a1.5,1.5,0,0,0,.2.73,14.71,14.71,0,0,0,.91-2.12A1.44,1.44,0,0,0,258.73,308.44Z"/><path class="cls-10" d="M258.73,294a1.44,1.44,0,0,0,1.44,1.44,1.49,1.49,0,0,0,.43-.07v-2.73a1.22,1.22,0,0,0-.43-.08A1.45,1.45,0,0,0,258.73,294Z"/><path class="cls-10" d="M258.73,301.24a1.44,1.44,0,0,0,1.44,1.44,1.16,1.16,0,0,0,.42-.07.61.61,0,0,0,0-.14v-2.59a1.22,1.22,0,0,0-.43-.08A1.45,1.45,0,0,0,258.73,301.24Z"/><path class="cls-10" d="M258.73,279.64a1.44,1.44,0,0,0,1.44,1.44,1.49,1.49,0,0,0,.43-.07v-2.73a1.22,1.22,0,0,0-.43-.08A1.45,1.45,0,0,0,258.73,279.64Z"/><path class="cls-10" d="M258.73,286.84a1.44,1.44,0,0,0,1.44,1.44,1.49,1.49,0,0,0,.43-.07v-2.73a1.22,1.22,0,0,0-.43-.08A1.45,1.45,0,0,0,258.73,286.84Z"/><path class="cls-10" d="M258.73,265.24a1.44,1.44,0,0,0,1.44,1.44,1.58,1.58,0,0,0,.38-.05,14.36,14.36,0,0,0-.49-2.81A1.43,1.43,0,0,0,258.73,265.24Z"/><path class="cls-10" d="M258.73,272.44a1.44,1.44,0,0,0,1.44,1.44,1.49,1.49,0,0,0,.43-.07v-2.73a1.22,1.22,0,0,0-.43-.08A1.45,1.45,0,0,0,258.73,272.44Z"/><path class="cls-9" d="M232,275v21.34a14.25,14.25,0,0,0-7.34-2H203.4V267.68a14.3,14.3,0,1,1,28.59,0Z"/><path class="cls-10" d="M209.77,292.6a1.45,1.45,0,0,0-1.44,1.44,1.55,1.55,0,0,0,0,.31h2.81a1.55,1.55,0,0,0,0-.31A1.44,1.44,0,0,0,209.77,292.6Z"/><path class="cls-10" d="M203.4,292.87v1.48H204a1.55,1.55,0,0,0,0-.31A1.43,1.43,0,0,0,203.4,292.87Z"/><path class="cls-10" d="M206.17,289a1.44,1.44,0,1,0,1.44,1.44A1.45,1.45,0,0,0,206.17,289Z"/><path class="cls-10" d="M213.37,289a1.44,1.44,0,1,0,1.44,1.44A1.45,1.45,0,0,0,213.37,289Z"/><path class="cls-10" d="M209.77,278.2a1.44,1.44,0,1,0,1.44,1.44A1.45,1.45,0,0,0,209.77,278.2Z"/><path class="cls-10" d="M204,279.64a1.43,1.43,0,0,0-.61-1.17v2.35A1.44,1.44,0,0,0,204,279.64Z"/><path class="cls-10" d="M206.17,274.6a1.44,1.44,0,1,0,1.44,1.44A1.45,1.45,0,0,0,206.17,274.6Z"/><path class="cls-10" d="M213.37,274.6a1.44,1.44,0,1,0,1.44,1.44A1.45,1.45,0,0,0,213.37,274.6Z"/><path class="cls-10" d="M206.17,281.8a1.44,1.44,0,1,0,1.44,1.44A1.45,1.45,0,0,0,206.17,281.8Z"/><path class="cls-10" d="M213.37,281.8a1.44,1.44,0,1,0,1.44,1.44A1.45,1.45,0,0,0,213.37,281.8Z"/><path class="cls-10" d="M209.77,285.4a1.44,1.44,0,1,0,1.44,1.44A1.45,1.45,0,0,0,209.77,285.4Z"/><path class="cls-10" d="M204,286.84a1.43,1.43,0,0,0-.61-1.17V288A1.44,1.44,0,0,0,204,286.84Z"/><path class="cls-10" d="M209.77,263.8a1.44,1.44,0,1,0,1.44,1.44A1.45,1.45,0,0,0,209.77,263.8Z"/><path class="cls-10" d="M204,265.24a1.43,1.43,0,0,0-.23-.79,13.49,13.49,0,0,0-.32,1.92A1.43,1.43,0,0,0,204,265.24Z"/><path class="cls-10" d="M206.17,263.08a1.44,1.44,0,1,0,0-2.88,1.4,1.4,0,0,0-.8.25c-.23.39-.44.8-.63,1.21A1.43,1.43,0,0,0,206.17,263.08Z"/><path class="cls-10" d="M213.37,260.2a1.44,1.44,0,1,0,1.44,1.44A1.45,1.45,0,0,0,213.37,260.2Z"/><path class="cls-10" d="M206.17,267.4a1.44,1.44,0,1,0,1.44,1.44A1.45,1.45,0,0,0,206.17,267.4Z"/><path class="cls-10" d="M213.37,267.4a1.44,1.44,0,1,0,1.44,1.44A1.45,1.45,0,0,0,213.37,267.4Z"/><path class="cls-10" d="M209.77,271a1.44,1.44,0,1,0,1.44,1.44A1.45,1.45,0,0,0,209.77,271Z"/><path class="cls-10" d="M204,272.44a1.43,1.43,0,0,0-.61-1.17v2.35A1.44,1.44,0,0,0,204,272.44Z"/><path class="cls-10" d="M213.37,255.88a1.43,1.43,0,0,0,1.44-1.44,1.37,1.37,0,0,0-.2-.72,14.27,14.27,0,0,0-2.66.87A1.43,1.43,0,0,0,213.37,255.88Z"/><path class="cls-10" d="M209.77,256.6a1.44,1.44,0,1,0,1.44,1.44A1.45,1.45,0,0,0,209.77,256.6Z"/><path class="cls-10" d="M224.17,292.6a1.45,1.45,0,0,0-1.44,1.44,1.55,1.55,0,0,0,0,.31h1.88c.31,0,.62,0,.92,0a1.27,1.27,0,0,0,0-.34A1.44,1.44,0,0,0,224.17,292.6Z"/><path class="cls-10" d="M217,292.6a1.45,1.45,0,0,0-1.44,1.44,1.55,1.55,0,0,0,0,.31h2.81a1.55,1.55,0,0,0,0-.31A1.44,1.44,0,0,0,217,292.6Z"/><path class="cls-10" d="M220.57,289a1.44,1.44,0,1,0,1.44,1.44A1.45,1.45,0,0,0,220.57,289Z"/><path class="cls-10" d="M227.77,289a1.44,1.44,0,1,0,1.44,1.44A1.45,1.45,0,0,0,227.77,289Z"/><path class="cls-10" d="M224.17,278.2a1.44,1.44,0,1,0,1.44,1.44A1.45,1.45,0,0,0,224.17,278.2Z"/><path class="cls-10" d="M217,278.2a1.44,1.44,0,1,0,1.44,1.44A1.45,1.45,0,0,0,217,278.2Z"/><path class="cls-10" d="M220.57,274.6A1.44,1.44,0,1,0,222,276,1.45,1.45,0,0,0,220.57,274.6Z"/><path class="cls-10" d="M227.77,274.6a1.44,1.44,0,1,0,1.44,1.44A1.45,1.45,0,0,0,227.77,274.6Z"/><path class="cls-10" d="M220.57,281.8a1.44,1.44,0,1,0,1.44,1.44A1.45,1.45,0,0,0,220.57,281.8Z"/><path class="cls-10" d="M227.77,281.8a1.44,1.44,0,1,0,1.44,1.44A1.45,1.45,0,0,0,227.77,281.8Z"/><path class="cls-10" d="M224.17,285.4a1.44,1.44,0,1,0,1.44,1.44A1.45,1.45,0,0,0,224.17,285.4Z"/><path class="cls-10" d="M217,285.4a1.44,1.44,0,1,0,1.44,1.44A1.45,1.45,0,0,0,217,285.4Z"/><path class="cls-10" d="M224.17,263.8a1.44,1.44,0,1,0,1.44,1.44A1.45,1.45,0,0,0,224.17,263.8Z"/><path class="cls-10" d="M217,263.8a1.44,1.44,0,1,0,1.44,1.44A1.45,1.45,0,0,0,217,263.8Z"/><path class="cls-10" d="M220.57,260.2a1.44,1.44,0,1,0,1.44,1.44A1.45,1.45,0,0,0,220.57,260.2Z"/><path class="cls-10" d="M227.77,260.2a1.44,1.44,0,1,0,1.44,1.44A1.45,1.45,0,0,0,227.77,260.2Z"/><path class="cls-10" d="M220.57,267.4a1.44,1.44,0,1,0,1.44,1.44A1.45,1.45,0,0,0,220.57,267.4Z"/><path class="cls-10" d="M227.77,267.4a1.44,1.44,0,1,0,1.44,1.44A1.45,1.45,0,0,0,227.77,267.4Z"/><path class="cls-10" d="M224.17,271a1.44,1.44,0,1,0,1.44,1.44A1.45,1.45,0,0,0,224.17,271Z"/><path class="cls-10" d="M217,271a1.44,1.44,0,1,0,1.44,1.44A1.45,1.45,0,0,0,217,271Z"/><path class="cls-10" d="M220.57,255.88a1.42,1.42,0,0,0,1.37-1.86,14.22,14.22,0,0,0-2.45-.52,1.43,1.43,0,0,0-.36.94A1.44,1.44,0,0,0,220.57,255.88Z"/><path class="cls-10" d="M224.17,256.6a1.44,1.44,0,1,0,1.44,1.44A1.45,1.45,0,0,0,224.17,256.6Z"/><path class="cls-10" d="M217,256.6a1.44,1.44,0,1,0,1.44,1.44A1.45,1.45,0,0,0,217,256.6Z"/><path class="cls-10" d="M229.93,294a1.44,1.44,0,0,0,1.44,1.44,1.38,1.38,0,0,0,.62-.14v-2.59a1.38,1.38,0,0,0-.62-.15A1.45,1.45,0,0,0,229.93,294Z"/><path class="cls-10" d="M229.93,279.64a1.44,1.44,0,0,0,1.44,1.44,1.38,1.38,0,0,0,.62-.14v-2.59a1.38,1.38,0,0,0-.62-.15A1.45,1.45,0,0,0,229.93,279.64Z"/><path class="cls-10" d="M229.93,286.84a1.44,1.44,0,0,0,1.44,1.44,1.38,1.38,0,0,0,.62-.14v-2.59a1.38,1.38,0,0,0-.62-.15A1.45,1.45,0,0,0,229.93,286.84Z"/><path class="cls-10" d="M229.93,265.24a1.44,1.44,0,0,0,1.44,1.44,1.56,1.56,0,0,0,.57-.11,14,14,0,0,0-.49-2.76h-.08A1.45,1.45,0,0,0,229.93,265.24Z"/><path class="cls-10" d="M229.93,272.44a1.44,1.44,0,0,0,1.44,1.44,1.38,1.38,0,0,0,.62-.14v-2.59a1.38,1.38,0,0,0-.62-.15A1.45,1.45,0,0,0,229.93,272.44Z"/><path class="cls-3" d="M232,296.37a14.35,14.35,0,0,1,5.84,17.86l.48.1a14.3,14.3,0,0,0,22.29-11.86V225.15a14.31,14.31,0,0,1,28.61,0V336.49a47.16,47.16,0,0,1-47.16,47.16H222a47.16,47.16,0,0,1-47.16-47.16V311.15a16.79,16.79,0,0,1,16.8-16.8h33.06A14.25,14.25,0,0,1,232,296.37Z"/><path class="cls-3" d="M203.4,279.66v14.69H191.59a16.79,16.79,0,0,0-16.8,16.8v-86a14.31,14.31,0,0,1,28.61,0v54.51Z"/><path class="cls-5" d="M289.21,279.66v56.83a47.16,47.16,0,0,1-47.16,47.16H222a47.16,47.16,0,0,1-47.16-47.16V279.66"/><path class="cls-5" d="M174.79,279.66V225.15a14.31,14.31,0,0,1,28.61,0v42.53"/><path class="cls-5" d="M260.6,267.68V225.15a14.31,14.31,0,0,1,28.61,0v54.51"/><path class="cls-5" d="M203.4,294.35V267.68a14.3,14.3,0,1,1,28.59,0"/><path class="cls-5" d="M232,296.39V267.68a14.31,14.31,0,0,1,28.61,0v34.79a14.3,14.3,0,0,1-22.29,11.86"/><path class="cls-5" d="M174.79,311.15a16.79,16.79,0,0,1,16.8-16.8h33.06a14.3,14.3,0,1,1,0,28.6H202.39"/><path class="cls-5" d="M218.85,323a15.47,15.47,0,0,1,15.47,15.47v10.05"/></g><g id="Text"><path d="M880,519v-.25A1.6,1.6,0,0,1,881.7,517h1.7a1.6,1.6,0,0,1,1.75,1.75v.65c0,2.5,1.1,3.4,2.85,3.4s2.85-.9,2.85-3.5c0-2.9-1.1-4.75-4.7-7.9-4.6-4.05-6.1-6.9-6.1-10.9,0-5.5,2.85-8.7,8.2-8.7s8,3.3,8,8.5A1.56,1.56,0,0,1,894.5,502h-1.7a1.56,1.56,0,0,1-1.75-1.75v-.05c0-2.5-1-3.45-2.75-3.45s-2.75.95-2.75,3.35,1.15,4.4,4.75,7.55c4.6,4.05,6.05,6.85,6.05,11.2,0,5.7-2.9,8.9-8.3,8.9S880,524.55,880,519Z"/><path d="M904.15,519.15v-18.8c0-5.4,2.8-8.6,8.1-8.6s8.1,3.2,8.1,8.6v1.95a1.6,1.6,0,0,1-1.75,1.75h-1.7a1.6,1.6,0,0,1-1.75-1.75V500c0-2.3-1.1-3.25-2.75-3.25s-2.75.95-2.75,3.25v19.55c0,2.3,1.1,3.2,2.75,3.2s2.75-.9,2.75-3.2V516a1.6,1.6,0,0,1,1.75-1.75h1.7a1.6,1.6,0,0,1,1.75,1.75v3.2c0,5.4-2.8,8.6-8.1,8.6S904.15,524.55,904.15,519.15Z"/><path d="M928.65,525.5V494a1.6,1.6,0,0,1,1.75-1.75h2a1.6,1.6,0,0,1,1.75,1.75v31.5a1.6,1.6,0,0,1-1.75,1.75h-2A1.6,1.6,0,0,1,928.65,525.5Z"/><path d="M942.3,519v-.25a1.6,1.6,0,0,1,1.75-1.75h1.7a1.6,1.6,0,0,1,1.75,1.75v.65c0,2.5,1.1,3.4,2.85,3.4s2.85-.9,2.85-3.5c0-2.9-1.1-4.75-4.7-7.9-4.6-4.05-6.1-6.9-6.1-10.9,0-5.5,2.85-8.7,8.2-8.7s8,3.3,8,8.5a1.56,1.56,0,0,1-1.75,1.75h-1.7a1.56,1.56,0,0,1-1.75-1.75v-.05c0-2.5-1-3.45-2.75-3.45s-2.75.95-2.75,3.35,1.15,4.4,4.75,7.55c4.6,4.05,6.05,6.85,6.05,11.2,0,5.7-2.9,8.9-8.3,8.9S942.3,524.55,942.3,519Z"/><path d="M965.9,519v-.25a1.6,1.6,0,0,1,1.75-1.75h1.7a1.6,1.6,0,0,1,1.75,1.75v.65c0,2.5,1.1,3.4,2.85,3.4s2.85-.9,2.85-3.5c0-2.9-1.1-4.75-4.7-7.9-4.6-4.05-6.1-6.9-6.1-10.9,0-5.5,2.85-8.7,8.2-8.7s8,3.3,8,8.5a1.56,1.56,0,0,1-1.75,1.75h-1.7a1.56,1.56,0,0,1-1.75-1.75v-.05c0-2.5-1-3.45-2.75-3.45s-2.75.95-2.75,3.35,1.15,4.4,4.75,7.55c4.6,4.05,6,6.85,6,11.2,0,5.7-2.9,8.9-8.3,8.9S965.9,524.55,965.9,519Z"/><path d="M990.05,519v-18.4c0-5.6,3-8.8,8.35-8.8s8.35,3.2,8.35,8.8V519c0,5.6-3,8.8-8.35,8.8S990.05,524.55,990.05,519Zm11.2.35V500.2c0-2.5-1.1-3.45-2.85-3.45s-2.85.95-2.85,3.45v19.1c0,2.5,1.1,3.45,2.85,3.45S1001.25,521.8,1001.25,519.3Z"/><path d="M1015.45,525.5V494a1.6,1.6,0,0,1,1.75-1.75h6.4c5.7,0,8.15,2.65,8.15,8.05v2.15c0,3.6-1.15,5.9-3.6,6.9v.1c2.75.85,3.65,3.45,3.65,7.4V523a11.37,11.37,0,0,0,.15,2.35,3.44,3.44,0,0,1,.1.65c0,.8-.55,1.25-1.5,1.25h-2.2a1.67,1.67,0,0,1-1.9-1.5,17.57,17.57,0,0,1-.15-2.8v-6.4c0-3.25-1-4.3-3.45-4.3H1021V525.5a1.6,1.6,0,0,1-1.75,1.75h-2A1.6,1.6,0,0,1,1015.45,525.5Zm7.5-18.25c2,0,3.3-.9,3.3-3.7v-2.7c0-2.5-.85-3.6-2.8-3.6H1021v10Z"/><path d="M1039.65,519v-.25a1.6,1.6,0,0,1,1.75-1.75h1.7a1.6,1.6,0,0,1,1.75,1.75v.65c0,2.5,1.1,3.4,2.85,3.4s2.85-.9,2.85-3.5c0-2.9-1.1-4.75-4.7-7.9-4.6-4.05-6.1-6.9-6.1-10.9,0-5.5,2.85-8.7,8.2-8.7s8,3.3,8,8.5a1.56,1.56,0,0,1-1.75,1.75h-1.7a1.56,1.56,0,0,1-1.75-1.75v-.05c0-2.5-1-3.45-2.75-3.45s-2.75.95-2.75,3.35,1.15,4.4,4.75,7.55c4.6,4.05,6,6.85,6,11.2,0,5.7-2.9,8.9-8.3,8.9S1039.65,524.55,1039.65,519Z"/><path d="M544.18,525.5V494a1.6,1.6,0,0,1,1.75-1.75h6.35c5.5,0,8.2,3.05,8.2,8.65v3.45c0,5.6-2.7,8.65-8.2,8.65h-2.6v12.5a1.6,1.6,0,0,1-1.75,1.75h-2A1.6,1.6,0,0,1,544.18,525.5Zm8.1-17.5c1.75,0,2.7-.8,2.7-3.3v-4.15c0-2.5-1-3.3-2.7-3.3h-2.6V508Z"/><path d="M565.43,525.75a2.2,2.2,0,0,1,.05-.45l5.25-31.45a1.7,1.7,0,0,1,1.85-1.6h4.25a1.7,1.7,0,0,1,1.85,1.6l5.25,31.45a2.2,2.2,0,0,1,.05.45c0,1-.6,1.5-1.65,1.5h-2a1.71,1.71,0,0,1-1.9-1.6l-.75-5.35v.1h-6.45l-.75,5.25a1.71,1.71,0,0,1-1.9,1.6h-1.55C566,527.25,565.43,526.7,565.43,525.75Zm11.65-10.1-2.55-17.3h-.1l-2.5,17.3Z"/><path d="M591.77,525.5V494a1.6,1.6,0,0,1,1.75-1.75h6.36c5.5,0,8.2,3.05,8.2,8.65v3.45c0,5.6-2.7,8.65-8.2,8.65h-2.61v12.5a1.6,1.6,0,0,1-1.75,1.75h-2A1.6,1.6,0,0,1,591.77,525.5Zm8.11-17.5c1.75,0,2.7-.8,2.7-3.3v-4.15c0-2.5-1-3.3-2.7-3.3h-2.61V508Z"/><path d="M616.07,525.5V494a1.6,1.6,0,0,1,1.75-1.75h11.5a1.61,1.61,0,0,1,1.76,1.75v1.5a1.61,1.61,0,0,1-1.76,1.75h-7.75v9.25h5.8a1.6,1.6,0,0,1,1.75,1.75v1.5a1.6,1.6,0,0,1-1.75,1.75h-5.8v10.75h7.75a1.61,1.61,0,0,1,1.76,1.75v1.5a1.61,1.61,0,0,1-1.76,1.75h-11.5A1.6,1.6,0,0,1,616.07,525.5Z"/><path d="M639.22,525.5V494a1.6,1.6,0,0,1,1.75-1.75h6.4c5.7,0,8.15,2.65,8.15,8.05v2.15c0,3.6-1.15,5.9-3.6,6.9v.1c2.75.85,3.65,3.45,3.65,7.4V523a11.37,11.37,0,0,0,.15,2.35,3.44,3.44,0,0,1,.1.65c0,.8-.55,1.25-1.5,1.25h-2.2a1.67,1.67,0,0,1-1.9-1.5,17.57,17.57,0,0,1-.15-2.8v-6.4c0-3.25-1-4.3-3.45-4.3h-1.9V525.5a1.6,1.6,0,0,1-1.75,1.75h-2A1.6,1.6,0,0,1,639.22,525.5Zm7.5-18.25c2,0,3.3-.9,3.3-3.7v-2.7c0-2.5-.85-3.6-2.8-3.6h-2.5v10Z"/><path d="M186,525.5V494a1.6,1.6,0,0,1,1.75-1.75h6.41c5.7,0,8.15,2.65,8.15,8.05v2.15c0,3.6-1.15,5.9-3.6,6.9v.1c2.75.85,3.65,3.45,3.65,7.4V523a11.37,11.37,0,0,0,.15,2.35,3.44,3.44,0,0,1,.1.65c0,.8-.55,1.25-1.5,1.25h-2.2a1.67,1.67,0,0,1-1.9-1.5,17.57,17.57,0,0,1-.15-2.8v-6.4c0-3.25-1-4.3-3.45-4.3h-1.91V525.5a1.6,1.6,0,0,1-1.75,1.75h-2A1.6,1.6,0,0,1,186,525.5Zm7.51-18.25c2.05,0,3.3-.9,3.3-3.7v-2.7c0-2.5-.85-3.6-2.8-3.6h-2.51v10Z"/><path d="M210.72,519v-18.4c0-5.6,2.95-8.8,8.35-8.8s8.36,3.2,8.36,8.8V519c0,5.6-3,8.8-8.36,8.8S210.72,524.55,210.72,519Zm11.21.35V500.2c0-2.5-1.11-3.45-2.86-3.45s-2.85.95-2.85,3.45v19.1c0,2.5,1.1,3.45,2.85,3.45S221.93,521.8,221.93,519.3Z"/><path d="M235.77,519.15v-18.8c0-5.4,2.8-8.6,8.11-8.6s8.1,3.2,8.1,8.6v1.95a1.6,1.6,0,0,1-1.75,1.75h-1.7a1.6,1.6,0,0,1-1.75-1.75V500c0-2.3-1.1-3.25-2.75-3.25s-2.75.95-2.75,3.25v19.55c0,2.3,1.09,3.2,2.75,3.2s2.75-.9,2.75-3.2V516a1.6,1.6,0,0,1,1.75-1.75h1.7A1.6,1.6,0,0,1,252,516v3.2c0,5.4-2.8,8.6-8.1,8.6S235.77,524.55,235.77,519.15Z"/><path d="M260.27,525.5V494a1.6,1.6,0,0,1,1.75-1.75h2a1.6,1.6,0,0,1,1.75,1.75v13l6.55-13.45a2.1,2.1,0,0,1,2.05-1.3h1.7c1,0,1.56.45,1.56,1.15a2,2,0,0,1-.25.9l-5.66,10.8,6.16,20a3.11,3.11,0,0,1,.15.85c0,.85-.56,1.3-1.56,1.3h-2.15a2,2,0,0,1-2-1.45L268,511.65l-2.2,4.45v9.4a1.6,1.6,0,0,1-1.75,1.75h-2A1.6,1.6,0,0,1,260.27,525.5Z"/></g></svg>