<?xml version="1.0" encoding="UTF-8" standalone="no"?>
<svg
   xmlns:dc="http://purl.org/dc/elements/1.1/"
   xmlns:cc="http://creativecommons.org/ns#"
   xmlns:rdf="http://www.w3.org/1999/02/22-rdf-syntax-ns#"
   xmlns:svg="http://www.w3.org/2000/svg"
   xmlns="http://www.w3.org/2000/svg"
   xmlns:sodipodi="http://sodipodi.sourceforge.net/DTD/sodipodi-0.dtd"
   xmlns:inkscape="http://www.inkscape.org/namespaces/inkscape"
   viewBox="0 0 300 300"
   version="1.1"
   id="svg1125"
   sodipodi:docname="scissors.svg"
   width="300"
   height="300"
   inkscape:version="1.0 (b51213c273, 2020-08-10)">
  <metadata
     id="metadata1129">
    <rdf:RDF>
      <cc:Work
         rdf:about="">
        <dc:format>image/svg+xml</dc:format>
        <dc:type
           rdf:resource="http://purl.org/dc/dcmitype/StillImage" />
        <dc:title>rock-paper-scissors-vector-line-icons</dc:title>
      </cc:Work>
    </rdf:RDF>
  </metadata>
  <sodipodi:namedview
     pagecolor="#ffffff"
     bordercolor="#666666"
     borderopacity="1"
     objecttolerance="10"
     gridtolerance="10"
     guidetolerance="10"
     inkscape:pageopacity="0"
     inkscape:pageshadow="2"
     inkscape:window-width="1920"
     inkscape:window-height="1056"
     id="namedview1127"
     showgrid="false"
     inkscape:zoom="0.76148148"
     inkscape:cx="-59.250256"
     inkscape:cy="80.744102"
     inkscape:window-x="1280"
     inkscape:window-y="0"
     inkscape:window-maximized="1"
     inkscape:current-layer="svg1125" />
  <defs
     id="defs4">
    <style
       id="style2">.cls-1{fill:#fcfcfc;}.cls-2{fill:#40dcff;}.cls-3{fill:#fff;}.cls-4{fill:#009fff;}.cls-5{fill:none;stroke:#262626;stroke-linecap:round;stroke-linejoin:round;stroke-width:4px;}.cls-6{fill:#262626;}.cls-7{fill:#fced19;}.cls-8{fill:#ff9d00;}.cls-9{fill:#ff85ff;}.cls-10{fill:#ff0bff;}</style>
  </defs>
  <title
     id="title6">rock-paper-scissors-vector-line-icons</title>
  <g
     id="Icons"
     transform="translate(-1282.6707,-204.22672)">
    <rect
       class="cls-2"
       x="-1582.6707"
       y="-504.22672"
       width="300"
       height="300"
       rx="150"
       transform="scale(-1)"
       id="rect11" />
    <path
       class="cls-2"
       d="m 1468.9907,386.50672 a 27.83,27.83 0 0 1 6.88,-0.86 27.41,27.41 0 1 1 -6.88,0.86 z m 6.88,38.41 a 11.79,11.79 0 1 0 -11.78,-11.78 11.79,11.79 0 0 0 11.78,11.78 z"
       id="path13" />
    <path
       class="cls-3"
       d="m 1397.0307,386.69672 a 27.52,27.52 0 1 1 -7.56,-1.05 27.58,27.58 0 0 1 7.56,1.05 z m -7.56,38.22 a 11.79,11.79 0 1 0 -11.8,-11.78 11.79,11.79 0 0 0 11.8,11.78 z"
       id="path15" />
    <path
       class="cls-4"
       d="m 1452.0907,426.60672 a 0.76,0.76 0 0 0 -0.16,0 c 0.35,0.63 0.73,1.25 1.13,1.84 a 1.17,1.17 0 0 0 -1,-1.87 z"
       id="path17" />
    <path
       class="cls-4"
       d="m 1455.0907,423.60672 a 1.2,1.2 0 1 0 1.2,1.2 1.2,1.2 0 0 0 -1.2,-1.2 z"
       id="path19" />
    <path
       class="cls-4"
       d="m 1456.2907,430.80672 a 1.19,1.19 0 0 0 -2.1,-0.78 c 0.48,0.62 1,1.21 1.52,1.79 a 1.21,1.21 0 0 0 0.58,-1.01 z"
       id="path21" />
    <path
       class="cls-4"
       d="m 1452.0907,414.60672 a 1.2,1.2 0 1 0 1.2,1.2 1.2,1.2 0 0 0 -1.2,-1.2 z"
       id="path23" />
    <path
       class="cls-4"
       d="m 1450.2907,412.80672 a 1.2,1.2 0 0 0 -1.2,-1.2 1.17,1.17 0 0 0 -0.68,0.24 c 0,0.43 0,0.85 0,1.29 0,0.21 0,0.41 0,0.62 a 1.17,1.17 0 0 0 0.7,0.25 1.2,1.2 0 0 0 1.18,-1.2 z"
       id="path25" />
    <path
       class="cls-4"
       d="m 1455.0907,411.60672 a 1.2,1.2 0 1 0 1.2,1.2 1.2,1.2 0 0 0 -1.2,-1.2 z"
       id="path27" />
    <path
       class="cls-4"
       d="m 1450.2907,418.80672 a 1.2,1.2 0 0 0 -1.2,-1.2 0.93,0.93 0 0 0 -0.33,0.07 c 0.13,0.77 0.28,1.54 0.48,2.3 a 1.19,1.19 0 0 0 1.05,-1.17 z"
       id="path29" />
    <path
       class="cls-4"
       d="m 1455.0907,417.60672 a 1.2,1.2 0 1 0 1.2,1.2 1.2,1.2 0 0 0 -1.2,-1.2 z"
       id="path31" />
    <path
       class="cls-4"
       d="m 1452.0907,420.60672 a 1.2,1.2 0 1 0 1.2,1.2 1.2,1.2 0 0 0 -1.2,-1.2 z"
       id="path33" />
    <path
       class="cls-4"
       d="m 1452.0907,402.60672 a 1.2,1.2 0 1 0 1.2,1.2 1.2,1.2 0 0 0 -1.2,-1.2 z"
       id="path35" />
    <path
       class="cls-4"
       d="m 1455.0907,399.60672 a 1.2,1.2 0 1 0 1.2,1.2 1.2,1.2 0 0 0 -1.2,-1.2 z"
       id="path37" />
    <path
       class="cls-4"
       d="m 1450.2907,406.80672 a 1.19,1.19 0 0 0 -0.88,-1.14 c -0.21,0.75 -0.39,1.52 -0.54,2.29 a 0.87,0.87 0 0 0 0.22,0 1.2,1.2 0 0 0 1.2,-1.15 z"
       id="path39" />
    <path
       class="cls-4"
       d="m 1455.0907,405.60672 a 1.2,1.2 0 1 0 1.2,1.2 1.2,1.2 0 0 0 -1.2,-1.2 z"
       id="path41" />
    <path
       class="cls-4"
       d="m 1452.0907,408.60672 a 1.2,1.2 0 1 0 1.2,1.2 1.2,1.2 0 0 0 -1.2,-1.2 z"
       id="path43" />
    <path
       class="cls-4"
       d="m 1456.2907,394.80672 a 1.15,1.15 0 0 0 -0.25,-0.7 c -0.53,0.55 -1,1.13 -1.53,1.73 a 1.19,1.19 0 0 0 0.58,0.17 1.2,1.2 0 0 0 1.2,-1.2 z"
       id="path45" />
    <path
       class="cls-4"
       d="m 1453.2907,397.80672 a 1.17,1.17 0 0 0 0,-0.27 c -0.32,0.46 -0.63,0.94 -0.93,1.42 a 1.17,1.17 0 0 0 0.93,-1.15 z"
       id="path47" />
    <path
       class="cls-4"
       d="m 1461.0907,435.60672 a 1.17,1.17 0 0 0 -0.7,0.25 c 0.61,0.41 1.23,0.79 1.86,1.15 a 1.42,1.42 0 0 0 0,-0.2 1.2,1.2 0 0 0 -1.16,-1.2 z"
       id="path49" />
    <path
       class="cls-4"
       d="m 1467.0907,435.60672 a 1.2,1.2 0 1 0 1.2,1.2 1.2,1.2 0 0 0 -1.2,-1.2 z"
       id="path51" />
    <path
       class="cls-4"
       d="m 1464.0907,392.97672 a 1.2,1.2 0 1 0 -1.2,-1.2 1.2,1.2 0 0 0 1.2,1.2 z"
       id="path53" />
    <path
       class="cls-4"
       d="m 1459.2907,391.80672 a 1.13,1.13 0 0 0 -0.12,-0.51 c -0.6,0.47 -1.2,1 -1.76,1.47 a 1.17,1.17 0 0 0 0.68,0.24 1.2,1.2 0 0 0 1.2,-1.2 z"
       id="path55" />
    <path
       class="cls-4"
       d="m 1462.1807,389.29672 c -0.39,0.22 -0.77,0.46 -1.14,0.7 v 0 a 1.19,1.19 0 0 0 1.14,-0.7 z"
       id="path57" />
    <path
       class="cls-4"
       d="m 1467.0907,389.97672 a 1.2,1.2 0 1 0 -1.2,-1.2 1.2,1.2 0 0 0 1.2,1.2 z"
       id="path59" />
    <path
       class="cls-4"
       d="m 1461.0907,393.60672 a 1.2,1.2 0 1 0 1.2,1.2 1.2,1.2 0 0 0 -1.2,-1.2 z"
       id="path61" />
    <path
       class="cls-4"
       d="m 1467.0907,395.97672 a 1.2,1.2 0 1 0 -1.2,-1.2 1.2,1.2 0 0 0 1.2,1.2 z"
       id="path63" />
    <path
       class="cls-4"
       d="m 1476.0907,438.60672 a 1.19,1.19 0 0 0 -0.88,2 h 0.66 1.11 a 1.16,1.16 0 0 0 0.31,-0.79 1.2,1.2 0 0 0 -1.2,-1.21 z"
       id="path65" />
    <path
       class="cls-4"
       d="m 1470.0907,438.60672 a 1.19,1.19 0 0 0 -1.18,1.13 c 0.75,0.19 1.52,0.35 2.3,0.49 a 1.16,1.16 0 0 0 0.08,-0.42 1.2,1.2 0 0 0 -1.2,-1.2 z"
       id="path67" />
    <path
       class="cls-4"
       d="m 1473.0907,435.60672 a 1.2,1.2 0 1 0 1.2,1.2 1.2,1.2 0 0 0 -1.2,-1.2 z"
       id="path69" />
    <path
       class="cls-4"
       d="m 1479.0907,435.60672 a 1.2,1.2 0 1 0 1.2,1.2 1.2,1.2 0 0 0 -1.2,-1.2 z"
       id="path71" />
    <path
       class="cls-4"
       d="m 1476.0907,392.97672 a 1.2,1.2 0 1 0 -1.2,-1.2 1.2,1.2 0 0 0 1.2,1.2 z"
       id="path73" />
    <path
       class="cls-4"
       d="m 1470.0907,392.97672 a 1.2,1.2 0 1 0 -1.2,-1.2 1.2,1.2 0 0 0 1.2,1.2 z"
       id="path75" />
    <path
       class="cls-4"
       d="m 1473.0907,389.97672 a 1.2,1.2 0 1 0 -1.2,-1.2 1.2,1.2 0 0 0 1.2,1.2 z"
       id="path77" />
    <path
       class="cls-4"
       d="m 1479.0907,389.97672 a 1.2,1.2 0 1 0 -1.2,-1.2 1.2,1.2 0 0 0 1.2,1.2 z"
       id="path79" />
    <path
       class="cls-4"
       d="m 1473.0907,395.97672 a 1.2,1.2 0 1 0 -1.2,-1.2 1.2,1.2 0 0 0 1.2,1.2 z"
       id="path81" />
    <path
       class="cls-4"
       d="m 1479.0907,395.97672 a 1.2,1.2 0 1 0 -1.2,-1.2 1.2,1.2 0 0 0 1.2,1.2 z"
       id="path83" />
    <path
       class="cls-4"
       d="m 1476.0907,386.97672 a 1.2,1.2 0 0 0 1.2,-1.2 c 0,0 0,-0.08 0,-0.12 -0.47,0 -0.93,0 -1.4,0 h -1 a 0.7,0.7 0 0 0 0,0.14 1.2,1.2 0 0 0 1.2,1.18 z"
       id="path85" />
    <path
       class="cls-4"
       d="m 1470.0907,386.97672 a 1.2,1.2 0 0 0 1.16,-1 c -0.72,0.12 -1.43,0.27 -2.12,0.44 a 1.16,1.16 0 0 0 0.96,0.56 z"
       id="path87" />
    <path
       class="cls-4"
       d="m 1482.0907,438.60672 a 1.2,1.2 0 0 0 -1.2,1.2 1.28,1.28 0 0 0 0.07,0.34 c 0.78,-0.14 1.54,-0.32 2.29,-0.53 a 1.17,1.17 0 0 0 -1.16,-1.01 z"
       id="path89" />
    <path
       class="cls-4"
       d="m 1485.0907,435.60672 a 1.2,1.2 0 1 0 1.2,1.2 1.2,1.2 0 0 0 -1.2,-1.2 z"
       id="path91" />
    <path
       class="cls-4"
       d="m 1489.9007,436.77672 c 0.57,-0.34 1.12,-0.7 1.66,-1.08 a 1.2,1.2 0 0 0 -1.66,1.08 z"
       id="path93" />
    <path
       class="cls-4"
       d="m 1488.0907,390.60672 a 1.2,1.2 0 1 0 1.2,1.2 1.2,1.2 0 0 0 -1.2,-1.2 z"
       id="path95" />
    <path
       class="cls-4"
       d="m 1482.0907,392.97672 a 1.2,1.2 0 1 0 -1.2,-1.2 1.2,1.2 0 0 0 1.2,1.2 z"
       id="path97" />
    <path
       class="cls-4"
       d="m 1485.0907,389.97672 a 1.2,1.2 0 1 0 -1.2,-1.2 1.2,1.2 0 0 0 1.2,1.2 z"
       id="path99" />
    <path
       class="cls-4"
       d="m 1485.0907,395.97672 a 1.2,1.2 0 1 0 -1.2,-1.2 1.2,1.2 0 0 0 1.2,1.2 z"
       id="path101" />
    <path
       class="cls-4"
       d="m 1491.0907,393.60672 a 1.2,1.2 0 1 0 1.2,1.2 1.2,1.2 0 0 0 -1.2,-1.2 z"
       id="path103" />
    <path
       class="cls-4"
       d="m 1482.0907,386.97672 a 1.2,1.2 0 0 0 0.9,-0.42 c -0.67,-0.18 -1.35,-0.33 -2,-0.46 a 1.18,1.18 0 0 0 1.1,0.88 z"
       id="path105" />
    <path
       class="cls-4"
       d="m 1498.8907,427.80672 a 0.82,0.82 0 0 0 0.06,0.26 c 0.29,-0.46 0.58,-0.92 0.85,-1.4 a 1.18,1.18 0 0 0 -0.91,1.14 z"
       id="path107" />
    <path
       class="cls-4"
       d="m 1497.0907,425.97672 a 1.2,1.2 0 1 0 -1.2,-1.2 1.2,1.2 0 0 0 1.2,1.2 z"
       id="path109" />
    <path
       class="cls-4"
       d="m 1495.8907,430.80672 a 1.19,1.19 0 0 0 0.33,0.81 c 0.53,-0.58 1,-1.18 1.5,-1.81 a 1.12,1.12 0 0 0 -0.63,-0.2 1.2,1.2 0 0 0 -1.2,1.2 z"
       id="path111" />
    <path
       class="cls-4"
       d="m 1500.0907,416.97672 a 1.2,1.2 0 1 0 -1.2,-1.2 1.2,1.2 0 0 0 1.2,1.2 z"
       id="path113" />
    <path
       class="cls-4"
       d="m 1497.0907,413.97672 a 1.2,1.2 0 1 0 -1.2,-1.2 1.2,1.2 0 0 0 1.2,1.2 z"
       id="path115" />
    <path
       class="cls-4"
       d="m 1501.8907,412.80672 a 1.2,1.2 0 0 0 1.2,1.2 1,1 0 0 0 0.25,0 c 0,-0.27 0,-0.55 0,-0.82 0,-0.5 0,-1 0,-1.48 a 1,1 0 0 0 -0.23,-0.05 1.2,1.2 0 0 0 -1.22,1.15 z"
       id="path117" />
    <path
       class="cls-4"
       d="m 1497.0907,419.97672 a 1.2,1.2 0 1 0 -1.2,-1.2 1.2,1.2 0 0 0 1.2,1.2 z"
       id="path119" />
    <path
       class="cls-4"
       d="m 1501.8907,418.80672 a 1.19,1.19 0 0 0 0.64,1 c 0.19,-0.73 0.34,-1.47 0.46,-2.22 a 1.19,1.19 0 0 0 -1.1,1.22 z"
       id="path121" />
    <path
       class="cls-4"
       d="m 1500.0907,422.97672 a 1.2,1.2 0 1 0 -1.2,-1.2 1.2,1.2 0 0 0 1.2,1.2 z"
       id="path123" />
    <path
       class="cls-4"
       d="m 1500.0907,404.97672 a 1.2,1.2 0 1 0 -1.2,-1.2 1.2,1.2 0 0 0 1.2,1.2 z"
       id="path125" />
    <path
       class="cls-4"
       d="m 1497.0907,401.97672 a 1.2,1.2 0 1 0 -1.2,-1.2 1.2,1.2 0 0 0 1.2,1.2 z"
       id="path127" />
    <path
       class="cls-4"
       d="m 1497.0907,407.97672 a 1.2,1.2 0 1 0 -1.2,-1.2 1.2,1.2 0 0 0 1.2,1.2 z"
       id="path129" />
    <path
       class="cls-4"
       d="m 1501.8907,406.80672 a 1.18,1.18 0 0 0 1,1.15 c -0.14,-0.71 -0.3,-1.41 -0.49,-2.09 a 1.16,1.16 0 0 0 -0.51,0.94 z"
       id="path131" />
    <path
       class="cls-4"
       d="m 1500.0907,410.97672 a 1.2,1.2 0 1 0 -1.2,-1.2 1.2,1.2 0 0 0 1.2,1.2 z"
       id="path133" />
    <path
       class="cls-4"
       d="m 1494.0907,392.97672 a 1.29,1.29 0 0 0 0.4,-0.08 c -0.5,-0.47 -1,-0.92 -1.55,-1.35 a 1,1 0 0 0 0,0.23 1.2,1.2 0 0 0 1.15,1.2 z"
       id="path135" />
    <path
       class="cls-4"
       d="m 1497.0907,395.97672 a 0.93,0.93 0 0 0 0.24,0 c -0.43,-0.54 -0.89,-1.06 -1.36,-1.56 a 1.36,1.36 0 0 0 -0.08,0.41 1.2,1.2 0 0 0 1.2,1.15 z"
       id="path137" />
    <path
       class="cls-4"
       d="m 1498.9807,398.23672 a 1,1 0 0 0 0.17,0.28 z"
       id="path139" />
    <path
       class="cls-4"
       d="m 1464.0907,426.60672 a 1.2,1.2 0 1 0 1.2,1.2 1.2,1.2 0 0 0 -1.2,-1.2 z"
       id="path141" />
    <path
       class="cls-4"
       d="m 1458.0907,426.60672 a 1.2,1.2 0 1 0 1.2,1.2 1.2,1.2 0 0 0 -1.2,-1.2 z"
       id="path143" />
    <path
       class="cls-4"
       d="m 1461.0907,423.60672 a 1.2,1.2 0 1 0 1.2,1.2 1.2,1.2 0 0 0 -1.2,-1.2 z"
       id="path145" />
    <path
       class="cls-4"
       d="m 1467.0907,423.60672 a 1.2,1.2 0 1 0 1.2,1.2 1.2,1.2 0 0 0 -1.2,-1.2 z"
       id="path147" />
    <path
       class="cls-4"
       d="m 1461.0907,429.60672 a 1.2,1.2 0 1 0 1.2,1.2 1.2,1.2 0 0 0 -1.2,-1.2 z"
       id="path149" />
    <path
       class="cls-4"
       d="m 1467.0907,429.60672 a 1.2,1.2 0 1 0 1.2,1.2 1.2,1.2 0 0 0 -1.2,-1.2 z"
       id="path151" />
    <path
       class="cls-4"
       d="m 1464.0907,432.60672 a 1.2,1.2 0 1 0 1.2,1.2 1.2,1.2 0 0 0 -1.2,-1.2 z"
       id="path153" />
    <path
       class="cls-4"
       d="m 1459.2907,433.80672 a 1.2,1.2 0 0 0 -1.2,-1.2 1.18,1.18 0 0 0 -1,0.59 c 0.57,0.53 1.16,1 1.77,1.52 a 1.19,1.19 0 0 0 0.43,-0.91 z"
       id="path155" />
    <path
       class="cls-4"
       d="m 1464.0907,414.60672 a 1.2,1.2 0 1 0 0,2.4 1.24,1.24 0 0 0 0.6,-0.18 11.52,11.52 0 0 1 -0.5,-2.2 z"
       id="path157" />
    <path
       class="cls-4"
       d="m 1458.0907,414.60672 a 1.2,1.2 0 1 0 1.2,1.2 1.2,1.2 0 0 0 -1.2,-1.2 z"
       id="path159" />
    <path
       class="cls-4"
       d="m 1461.0907,411.60672 a 1.2,1.2 0 1 0 1.2,1.2 1.2,1.2 0 0 0 -1.2,-1.2 z"
       id="path161" />
    <path
       class="cls-4"
       d="m 1461.0907,417.60672 a 1.2,1.2 0 1 0 1.2,1.2 1.2,1.2 0 0 0 -1.2,-1.2 z"
       id="path163" />
    <path
       class="cls-4"
       d="m 1464.0907,420.60672 a 1.2,1.2 0 1 0 1.2,1.2 1.2,1.2 0 0 0 -1.2,-1.2 z"
       id="path165" />
    <path
       class="cls-4"
       d="m 1458.0907,420.60672 a 1.2,1.2 0 1 0 1.2,1.2 1.2,1.2 0 0 0 -1.2,-1.2 z"
       id="path167" />
    <path
       class="cls-4"
       d="m 1464.0907,398.97672 a 1.2,1.2 0 1 0 -1.2,-1.2 1.2,1.2 0 0 0 1.2,1.2 z"
       id="path169" />
    <path
       class="cls-4"
       d="m 1458.0907,396.60672 a 1.2,1.2 0 1 0 1.2,1.2 1.2,1.2 0 0 0 -1.2,-1.2 z"
       id="path171" />
    <path
       class="cls-4"
       d="m 1464.0907,404.97672 a 1.2,1.2 0 1 0 -1.2,-1.2 1.2,1.2 0 0 0 1.2,1.2 z"
       id="path173" />
    <path
       class="cls-4"
       d="m 1458.0907,402.60672 a 1.2,1.2 0 1 0 1.2,1.2 1.2,1.2 0 0 0 -1.2,-1.2 z"
       id="path175" />
    <path
       class="cls-4"
       d="m 1461.0907,399.60672 a 1.2,1.2 0 1 0 1.2,1.2 1.2,1.2 0 0 0 -1.2,-1.2 z"
       id="path177" />
    <path
       class="cls-4"
       d="m 1467.0907,401.97672 a 1.2,1.2 0 1 0 -1.2,-1.2 1.2,1.2 0 0 0 1.2,1.2 z"
       id="path179" />
    <path
       class="cls-4"
       d="m 1461.0907,405.60672 a 1.2,1.2 0 1 0 1.2,1.2 1.2,1.2 0 0 0 -1.2,-1.2 z"
       id="path181" />
    <path
       class="cls-4"
       d="m 1465.8907,406.80672 c 0,0 0,0 0,0.06 a 12.79,12.79 0 0 1 0.85,-1.19 1.19,1.19 0 0 0 -0.85,1.13 z"
       id="path183" />
    <path
       class="cls-4"
       d="m 1464.0907,408.60672 a 1.2,1.2 0 1 0 0,2.4 1.18,1.18 0 0 0 0.2,0 12.71,12.71 0 0 1 0.59,-2.05 1.16,1.16 0 0 0 -0.79,-0.35 z"
       id="path185" />
    <path
       class="cls-4"
       d="m 1458.0907,408.60672 a 1.2,1.2 0 1 0 1.2,1.2 1.2,1.2 0 0 0 -1.2,-1.2 z"
       id="path187" />
    <path
       class="cls-4"
       d="m 1476.0907,426.60672 a 1.2,1.2 0 1 0 1.2,1.2 1.2,1.2 0 0 0 -1.2,-1.2 z"
       id="path189" />
    <path
       class="cls-4"
       d="m 1470.0907,426.60672 a 1.2,1.2 0 1 0 1.2,1.2 1.2,1.2 0 0 0 -1.2,-1.2 z"
       id="path191" />
    <path
       class="cls-4"
       d="m 1471.8907,424.80672 a 1.2,1.2 0 0 0 2.4,0 v 0 a 11.44,11.44 0 0 1 -2.26,-0.53 1.2,1.2 0 0 0 -0.14,0.53 z"
       id="path193" />
    <path
       class="cls-4"
       d="m 1477.8907,424.80672 a 1.2,1.2 0 0 0 2.4,0 1.13,1.13 0 0 0 -0.23,-0.67 12,12 0 0 1 -2.15,0.59 c 0,0 -0.02,0.05 -0.02,0.08 z"
       id="path195" />
    <path
       class="cls-4"
       d="m 1473.0907,429.60672 a 1.2,1.2 0 1 0 1.2,1.2 1.2,1.2 0 0 0 -1.2,-1.2 z"
       id="path197" />
    <path
       class="cls-4"
       d="m 1479.0907,429.60672 a 1.2,1.2 0 1 0 1.2,1.2 1.2,1.2 0 0 0 -1.2,-1.2 z"
       id="path199" />
    <path
       class="cls-4"
       d="m 1476.0907,432.60672 a 1.2,1.2 0 1 0 1.2,1.2 1.2,1.2 0 0 0 -1.2,-1.2 z"
       id="path201" />
    <path
       class="cls-4"
       d="m 1470.0907,432.60672 a 1.2,1.2 0 1 0 1.2,1.2 1.2,1.2 0 0 0 -1.2,-1.2 z"
       id="path203" />
    <path
       class="cls-4"
       d="m 1476.0907,398.97672 a 1.2,1.2 0 1 0 -1.2,-1.2 1.2,1.2 0 0 0 1.2,1.2 z"
       id="path205" />
    <path
       class="cls-4"
       d="m 1470.0907,398.97672 a 1.2,1.2 0 1 0 -1.2,-1.2 1.2,1.2 0 0 0 1.2,1.2 z"
       id="path207" />
    <path
       class="cls-4"
       d="m 1470.0907,402.60672 a 1.18,1.18 0 0 0 -1.16,1 12.49,12.49 0 0 1 1.52,-0.95 1,1 0 0 0 -0.36,-0.05 z"
       id="path209" />
    <path
       class="cls-4"
       d="m 1474.2907,400.80672 a 1.2,1.2 0 0 0 -2.4,0 1.17,1.17 0 0 0 0.63,1 12.42,12.42 0 0 1 1.52,-0.33 1.15,1.15 0 0 0 0.25,-0.67 z"
       id="path211" />
    <path
       class="cls-4"
       d="m 1480.2907,400.80672 a 1.2,1.2 0 0 0 -2.4,0 1.16,1.16 0 0 0 0.31,0.78 9.41,9.41 0 0 1 1.29,0.34 1.19,1.19 0 0 0 0.8,-1.12 z"
       id="path213" />
    <path
       class="cls-4"
       d="m 1488.0907,426.60672 a 1.2,1.2 0 1 0 1.2,1.2 1.2,1.2 0 0 0 -1.2,-1.2 z"
       id="path215" />
    <path
       class="cls-4"
       d="m 1482.0907,426.60672 a 1.2,1.2 0 1 0 1.2,1.2 1.2,1.2 0 0 0 -1.2,-1.2 z"
       id="path217" />
    <path
       class="cls-4"
       d="m 1485.0907,423.60672 a 1.2,1.2 0 1 0 1.2,1.2 1.2,1.2 0 0 0 -1.2,-1.2 z"
       id="path219" />
    <path
       class="cls-4"
       d="m 1491.0907,423.60672 a 1.2,1.2 0 1 0 1.2,1.2 1.2,1.2 0 0 0 -1.2,-1.2 z"
       id="path221" />
    <path
       class="cls-4"
       d="m 1485.0907,429.60672 a 1.2,1.2 0 1 0 1.2,1.2 1.2,1.2 0 0 0 -1.2,-1.2 z"
       id="path223" />
    <path
       class="cls-4"
       d="m 1491.0907,429.60672 a 1.2,1.2 0 1 0 1.2,1.2 1.2,1.2 0 0 0 -1.2,-1.2 z"
       id="path225" />
    <path
       class="cls-4"
       d="m 1494.0907,426.60672 a 1.2,1.2 0 1 0 1.2,1.2 1.2,1.2 0 0 0 -1.2,-1.2 z"
       id="path227" />
    <path
       class="cls-4"
       d="m 1488.0907,432.60672 a 1.2,1.2 0 1 0 1.2,1.2 1.2,1.2 0 0 0 -1.2,-1.2 z"
       id="path229" />
    <path
       class="cls-4"
       d="m 1482.0907,432.60672 a 1.2,1.2 0 1 0 1.2,1.2 1.2,1.2 0 0 0 -1.2,-1.2 z"
       id="path231" />
    <path
       class="cls-4"
       d="m 1492.8907,433.80672 a 1.16,1.16 0 0 0 0.26,0.7 c 0.61,-0.49 1.2,-1 1.77,-1.56 a 1.2,1.2 0 0 0 -2,0.86 z"
       id="path233" />
    <path
       class="cls-4"
       d="m 1488.0907,416.97672 a 1.2,1.2 0 0 0 0,-2.4 1.18,1.18 0 0 0 -0.56,0.16 12.35,12.35 0 0 1 -0.38,1.75 1.18,1.18 0 0 0 0.94,0.49 z"
       id="path235" />
    <path
       class="cls-4"
       d="m 1491.0907,411.60672 a 1.2,1.2 0 1 0 1.2,1.2 1.2,1.2 0 0 0 -1.2,-1.2 z"
       id="path237" />
    <path
       class="cls-4"
       d="m 1486.2907,418.80672 c 0,-0.05 0,-0.09 0,-0.13 a 14.54,14.54 0 0 1 -0.78,1.25 1.2,1.2 0 0 0 0.78,-1.12 z"
       id="path239" />
    <path
       class="cls-4"
       d="m 1491.0907,417.60672 a 1.2,1.2 0 1 0 1.2,1.2 1.2,1.2 0 0 0 -1.2,-1.2 z"
       id="path241" />
    <path
       class="cls-4"
       d="m 1494.0907,414.60672 a 1.2,1.2 0 1 0 1.2,1.2 1.2,1.2 0 0 0 -1.2,-1.2 z"
       id="path243" />
    <path
       class="cls-4"
       d="m 1488.0907,420.60672 a 1.2,1.2 0 1 0 1.2,1.2 1.2,1.2 0 0 0 -1.2,-1.2 z"
       id="path245" />
    <path
       class="cls-4"
       d="m 1483.0907,422.42672 c -0.23,0.18 -0.46,0.36 -0.7,0.52 a 1.15,1.15 0 0 0 0.7,-0.52 z"
       id="path247" />
    <path
       class="cls-4"
       d="m 1494.0907,420.60672 a 1.2,1.2 0 1 0 1.2,1.2 1.2,1.2 0 0 0 -1.2,-1.2 z"
       id="path249" />
    <path
       class="cls-4"
       d="m 1488.0907,396.60672 a 1.2,1.2 0 1 0 1.2,1.2 1.2,1.2 0 0 0 -1.2,-1.2 z"
       id="path251" />
    <path
       class="cls-4"
       d="m 1482.0907,398.97672 a 1.2,1.2 0 1 0 -1.2,-1.2 1.2,1.2 0 0 0 1.2,1.2 z"
       id="path253" />
    <path
       class="cls-4"
       d="m 1488.0907,402.60672 a 1.2,1.2 0 1 0 1.2,1.2 1.2,1.2 0 0 0 -1.2,-1.2 z"
       id="path255" />
    <path
       class="cls-4"
       d="m 1483.2907,403.80672 a 1.2,1.2 0 0 0 -1.2,-1.2 1.11,1.11 0 0 0 -0.59,0.18 11.51,11.51 0 0 1 1.76,1.18 0.9,0.9 0 0 0 0.03,-0.16 z"
       id="path257" />
    <path
       class="cls-4"
       d="m 1485.0907,401.97672 a 1.2,1.2 0 1 0 -1.2,-1.2 1.2,1.2 0 0 0 1.2,1.2 z"
       id="path259" />
    <path
       class="cls-4"
       d="m 1491.0907,399.60672 a 1.2,1.2 0 1 0 1.2,1.2 1.2,1.2 0 0 0 -1.2,-1.2 z"
       id="path261" />
    <path
       class="cls-4"
       d="m 1486.2907,406.80672 a 1.2,1.2 0 0 0 -1.2,-1.2 0.5,0.5 0 0 0 -0.13,0 12.26,12.26 0 0 1 1.18,1.73 1.2,1.2 0 0 0 0.15,-0.53 z"
       id="path263" />
    <path
       class="cls-4"
       d="m 1491.0907,405.60672 a 1.2,1.2 0 1 0 1.2,1.2 1.2,1.2 0 0 0 -1.2,-1.2 z"
       id="path265" />
    <path
       class="cls-4"
       d="m 1494.0907,396.60672 a 1.2,1.2 0 1 0 1.2,1.2 1.2,1.2 0 0 0 -1.2,-1.2 z"
       id="path267" />
    <path
       class="cls-4"
       d="m 1494.0907,402.60672 a 1.2,1.2 0 1 0 1.2,1.2 1.2,1.2 0 0 0 -1.2,-1.2 z"
       id="path269" />
    <path
       class="cls-4"
       d="m 1489.2907,409.80672 a 1.19,1.19 0 0 0 -2.28,-0.5 14.33,14.33 0 0 1 0.41,1.46 1.14,1.14 0 0 0 0.67,0.24 1.2,1.2 0 0 0 1.2,-1.2 z"
       id="path271" />
    <path
       class="cls-4"
       d="m 1494.0907,408.60672 a 1.2,1.2 0 1 0 1.2,1.2 1.2,1.2 0 0 0 -1.2,-1.2 z"
       id="path273" />
    <path
       class="cls-2"
       d="m 1413.0407,365.56672 1.09,-0.91 17.14,20.32 -0.8,0.66 -13.51,15.7 -2.19,1 a 27.58,27.58 0 0 0 -17.74,-15.65 l 0.3,-1.05 z m 18.41,-24.13 17.36,22.17 1.94,-1.52 32.48,-37.74 c 13.6,-15 16.21,-38.32 6.3,-56.52 l -56.86,72.65 z"
       id="path275" />
    <path
       class="cls-4"
       d="m 1416.7207,400.05672 a 1.43,1.43 0 0 1 1.75,-0.46 l -1.51,1.75 -0.37,0.17 a 1.43,1.43 0 0 1 0.13,-1.46 z"
       id="path277" />
    <path
       class="cls-4"
       d="m 1425.1807,388.40672 a 1.43,1.43 0 0 1 2.54,0.44 l -1.57,1.83 a 1.36,1.36 0 0 1 -0.65,-0.26 1.44,1.44 0 0 1 -0.32,-2.01 z"
       id="path279" />
    <path
       class="cls-4"
       d="m 1420.9507,394.23672 a 1.43,1.43 0 0 1 2,-0.32 1.42,1.42 0 0 1 0.22,0.2 l -1.85,2.16 h -0.06 a 1.43,1.43 0 0 1 -0.31,-2.04 z"
       id="path281" />
    <path
       class="cls-4"
       d="m 1429.7307,384.59672 a 1.44,1.44 0 0 1 -0.39,-1.89 l 1.75,2.07 a 1.48,1.48 0 0 1 -1.36,-0.18 z"
       id="path283" />
    <path
       class="cls-4"
       d="m 1410.8907,395.82672 a 1.44,1.44 0 0 1 2.33,1.69 1.37,1.37 0 0 1 -0.77,0.53 26.15,26.15 0 0 0 -1.58,-2.17 c 0,0 0.01,-0.04 0.02,-0.05 z"
       id="path285" />
    <path
       class="cls-4"
       d="m 1407.0807,391.27672 a 1.47,1.47 0 0 1 0.59,1.25 c -0.59,-0.52 -1.2,-1 -1.83,-1.47 a 1.46,1.46 0 0 1 1.24,0.22 z"
       id="path287" />
    <path
       class="cls-4"
       d="m 1416.3407,384.65672 a 1.44,1.44 0 1 1 -2,0.32 1.44,1.44 0 0 1 2,-0.32 z"
       id="path289" />
    <path
       class="cls-4"
       d="m 1422.1607,388.88672 a 1.44,1.44 0 1 1 -1.69,2.33 1.45,1.45 0 0 1 -0.32,-2 1.43,1.43 0 0 1 2.01,-0.33 z"
       id="path291" />
    <path
       class="cls-4"
       d="m 1421.3707,383.85672 a 1.44,1.44 0 1 1 -2,0.32 1.45,1.45 0 0 1 2,-0.32 z"
       id="path293" />
    <path
       class="cls-4"
       d="m 1413.5307,379.97672 a 1.44,1.44 0 1 1 0.32,2 1.43,1.43 0 0 1 -0.32,-2 z"
       id="path295" />
    <path
       class="cls-4"
       d="m 1417.1407,389.68672 a 1.4421252,1.4421252 0 0 1 -1.7,2.33 1.4421252,1.4421252 0 1 1 1.7,-2.33 z"
       id="path297" />
    <path
       class="cls-4"
       d="m 1411.6707,387.46672 a 1.44,1.44 0 1 1 -0.32,-2 1.44,1.44 0 0 1 0.32,2 z"
       id="path299" />
    <path
       class="cls-4"
       d="m 1412.1107,390.47672 a 1.44,1.44 0 1 1 -2,0.32 1.45,1.45 0 0 1 2,-0.32 z"
       id="path301" />
    <path
       class="cls-4"
       d="m 1417.9307,394.70672 a 1.44,1.44 0 1 1 -2,0.32 1.44,1.44 0 0 1 2,-0.32 z"
       id="path303" />
    <path
       class="cls-4"
       d="m 1422.6707,374.76672 0.5,0.59 v 0 a 1.4,1.4 0 0 1 -0.5,-0.59 z"
       id="path305" />
    <path
       class="cls-4"
       d="m 1425.9207,380.04672 a 1.44,1.44 0 1 1 -0.66,-2.19 l 0.9,1.07 a 1.42,1.42 0 0 1 -0.24,1.12 z"
       id="path307" />
    <path
       class="cls-4"
       d="m 1418.0807,376.12672 a 1.44,1.44 0 1 1 2,-0.31 1.45,1.45 0 0 1 -2,0.31 z"
       id="path309" />
    <path
       class="cls-4"
       d="m 1418.5607,379.14672 a 1.44,1.44 0 0 1 2.33,1.69 1.44,1.44 0 1 1 -2.33,-1.69 z"
       id="path311" />
    <path
       class="cls-4"
       d="m 1426.4007,383.05672 a 1.44,1.44 0 1 1 -2,0.32 1.45,1.45 0 0 1 2,-0.32 z"
       id="path313" />
    <path
       class="cls-4"
       d="m 1401.2507,387.04672 a 1.42,1.42 0 0 1 0.55,1.52 c -0.84,-0.42 -1.71,-0.8 -2.6,-1.14 v -0.06 a 1.43,1.43 0 0 1 2.05,-0.32 z"
       id="path315" />
    <path
       class="cls-4"
       d="m 1405.0107,378.19672 a 1.43,1.43 0 0 1 -2,0.32 l -0.06,-0.05 1.77,-2.26 a 1.44,1.44 0 0 1 0.29,1.99 z"
       id="path317" />
    <path
       class="cls-4"
       d="m 1408.8207,382.75672 a 1.46,1.46 0 0 1 -0.32,-2 1.44,1.44 0 1 1 0.32,2 z"
       id="path319" />
    <path
       class="cls-4"
       d="m 1408.0207,377.72672 a 1.44,1.44 0 1 1 2,-0.32 1.46,1.46 0 0 1 -2,0.32 z"
       id="path321" />
    <path
       class="cls-4"
       d="m 1403.7907,383.54672 a 1.44,1.44 0 1 1 2,-0.32 1.43,1.43 0 0 1 -2,0.32 z"
       id="path323" />
    <path
       class="cls-4"
       d="m 1400.7807,384.02672 a 1.45,1.45 0 0 1 -2,0.32 1.75,1.75 0 0 1 -0.24,-0.23 l 1.74,-2.22 0.2,0.12 a 1.45,1.45 0 0 1 0.3,2.01 z"
       id="path325" />
    <path
       class="cls-4"
       d="m 1404.5907,388.57672 a 1.44,1.44 0 1 1 2,-0.32 1.44,1.44 0 0 1 -2,0.32 z"
       id="path327" />
    <path
       class="cls-4"
       d="m 1413.4707,366.54672 a 1.43,1.43 0 0 1 -1.61,0.52 l 1.18,-1.5 0.56,-0.47 a 1.41,1.41 0 0 1 -0.13,1.45 z"
       id="path329" />
    <path
       class="cls-4"
       d="m 1417.2907,371.10672 a 1.44,1.44 0 0 1 -0.32,-2 1.49,1.49 0 0 1 0.53,-0.44 l 1.8,2.14 v 0 a 1.45,1.45 0 0 1 -2.01,0.3 z"
       id="path331" />
    <path
       class="cls-4"
       d="m 1412.2607,371.89672 a 1.44,1.44 0 1 1 2,-0.32 1.43,1.43 0 0 1 -2,0.32 z"
       id="path333" />
    <path
       class="cls-4"
       d="m 1409.2407,372.37672 a 1.44,1.44 0 0 1 -1.85,0.41 l 1.74,-2.23 a 1.43,1.43 0 0 1 0.11,1.82 z"
       id="path335" />
    <path
       class="cls-4"
       d="m 1413.0507,376.97672 a 1.44,1.44 0 1 1 2,-0.32 1.43,1.43 0 0 1 -2,0.32 z"
       id="path337" />
    <path
       class="cls-4"
       d="m 1451.3707,358.48672 a 1.44,1.44 0 0 1 2,-0.32 1.55,1.55 0 0 1 0.39,0.42 l -1.79,2.07 a 1.18,1.18 0 0 1 -0.29,-0.16 1.44,1.44 0 0 1 -0.31,-2.01 z"
       id="path339" />
    <path
       class="cls-4"
       d="m 1452.5807,353.13672 a 1.44,1.44 0 1 1 -1.69,2.33 1.44,1.44 0 0 1 1.69,-2.33 z"
       id="path341" />
    <path
       class="cls-4"
       d="m 1446.3407,359.28672 a 1.44,1.44 0 0 1 2.33,1.69 1.45,1.45 0 0 1 -1.49,0.56 l -1.11,-1.43 a 1.41,1.41 0 0 1 0.27,-0.82 z"
       id="path343" />
    <path
       class="cls-4"
       d="m 1461.8507,346.51672 a 1.44,1.44 0 1 1 -2,0.32 1.44,1.44 0 0 1 2,-0.32 z"
       id="path345" />
    <path
       class="cls-4"
       d="m 1461.0507,341.48672 a 1.44,1.44 0 1 1 -1.69,2.33 1.43,1.43 0 0 1 -0.32,-2 1.45,1.45 0 0 1 2.01,-0.33 z"
       id="path347" />
    <path
       class="cls-4"
       d="m 1456.8207,347.31672 a 1.44,1.44 0 1 1 -2,0.32 1.43,1.43 0 0 1 2,-0.32 z"
       id="path349" />
    <path
       class="cls-4"
       d="m 1455.9207,354.67672 a 1.44,1.44 0 1 1 1.69,-2.33 1.41,1.41 0 0 1 0.59,1.09 l -1.29,1.5 a 1.49,1.49 0 0 1 -0.99,-0.26 z"
       id="path351" />
    <path
       class="cls-4"
       d="m 1470.3107,334.86672 a 1.44,1.44 0 1 1 -2,0.32 1.44,1.44 0 0 1 2,-0.32 z"
       id="path353" />
    <path
       class="cls-4"
       d="m 1473.3307,334.38672 a 1.44,1.44 0 0 1 1.68,-0.49 l -1.77,2.05 a 1.43,1.43 0 0 1 0.09,-1.56 z"
       id="path355" />
    <path
       class="cls-4"
       d="m 1469.5107,329.83672 a 1.44,1.44 0 1 1 -2,0.32 1.44,1.44 0 0 1 2,-0.32 z"
       id="path357" />
    <path
       class="cls-4"
       d="m 1469.0907,340.21672 a 1.46,1.46 0 0 1 1,-0.58 l -1.25,1.45 a 1.47,1.47 0 0 1 0.25,-0.87 z"
       id="path359" />
    <path
       class="cls-4"
       d="m 1465.2807,335.66672 a 1.44,1.44 0 1 1 -2,0.32 1.44,1.44 0 0 1 2,-0.32 z"
       id="path361" />
    <path
       class="cls-4"
       d="m 1466.0807,340.69672 a 1.44,1.44 0 1 1 -2,0.32 1.43,1.43 0 0 1 2,-0.32 z"
       id="path363" />
    <path
       class="cls-4"
       d="m 1478.7707,323.21672 a 1.44,1.44 0 1 1 -2,0.32 1.45,1.45 0 0 1 2,-0.32 z"
       id="path365" />
    <path
       class="cls-4"
       d="m 1481.7907,322.73672 a 1.44,1.44 0 0 1 2,-0.31 1.39,1.39 0 0 1 0.51,0.67 c -0.35,0.42 -0.71,0.84 -1.08,1.25 l -0.56,0.65 a 1.47,1.47 0 0 1 -0.56,-0.24 1.45,1.45 0 0 1 -0.31,-2.02 z"
       id="path367" />
    <path
       class="cls-4"
       d="m 1477.9807,318.18672 a 1.4421252,1.4421252 0 1 1 -1.7,2.33 1.4421252,1.4421252 0 0 1 1.7,-2.33 z"
       id="path369" />
    <path
       class="cls-4"
       d="m 1477.5607,328.56672 a 1.44,1.44 0 0 1 2,-0.32 l 0.17,0.15 -1.87,2.17 a 1.43,1.43 0 0 1 -0.3,-2 z"
       id="path371" />
    <path
       class="cls-4"
       d="m 1473.7507,323.97672 a 1.44,1.44 0 1 1 -2,0.32 1.44,1.44 0 0 1 2,-0.32 z"
       id="path373" />
    <path
       class="cls-4"
       d="m 1474.5407,329.04672 a 1.44,1.44 0 1 1 -2,0.32 1.44,1.44 0 0 1 2,-0.32 z"
       id="path375" />
    <path
       class="cls-4"
       d="m 1487.2407,311.56672 a 1.44,1.44 0 1 1 -2,0.32 1.45,1.45 0 0 1 2,-0.32 z"
       id="path377" />
    <path
       class="cls-4"
       d="m 1490.2507,311.08672 a 1.45,1.45 0 0 1 1.58,-0.52 c -0.35,0.88 -0.73,1.75 -1.14,2.6 l -0.12,-0.06 a 1.46,1.46 0 0 1 -0.32,-2.02 z"
       id="path379" />
    <path
       class="cls-4"
       d="m 1486.4407,306.53672 a 1.44,1.44 0 1 1 -1.69,2.33 1.43,1.43 0 0 1 -0.32,-2 1.45,1.45 0 0 1 2.01,-0.33 z"
       id="path381" />
    <path
       class="cls-4"
       d="m 1486.3407,318.97672 a 1.44,1.44 0 0 1 1.69,-2.33 1.41,1.41 0 0 1 0.48,0.61 c -0.4,0.68 -0.83,1.34 -1.26,2 a 1.43,1.43 0 0 1 -0.91,-0.28 z"
       id="path383" />
    <path
       class="cls-4"
       d="m 1482.2107,312.36672 a 1.44,1.44 0 1 1 -2,0.32 1.44,1.44 0 0 1 2,-0.32 z"
       id="path385" />
    <path
       class="cls-4"
       d="m 1483.0107,317.39672 a 1.44,1.44 0 1 1 -2,0.32 1.44,1.44 0 0 1 2,-0.32 z"
       id="path387" />
    <path
       class="cls-4"
       d="m 1493.6707,300.23672 a 1.45,1.45 0 0 1 1.18,-0.59 c -0.15,0.93 -0.32,1.86 -0.52,2.78 a 1.59,1.59 0 0 1 -0.34,-0.18 1.44,1.44 0 0 1 -0.32,-2.01 z"
       id="path389" />
    <path
       class="cls-4"
       d="m 1493.2107,297.21672 a 1.4421252,1.4421252 0 1 1 1.7,-2.33 1.5,1.5 0 0 1 0.46,0.58 c 0,0.47 -0.09,0.95 -0.14,1.42 v 0 a 1.44,1.44 0 0 1 -2.02,0.33 z"
       id="path391" />
    <path
       class="cls-4"
       d="m 1490.6707,300.71672 a 1.44,1.44 0 1 1 -2,0.32 1.43,1.43 0 0 1 2,-0.32 z"
       id="path393" />
    <path
       class="cls-4"
       d="m 1491.4707,305.74672 a 1.44,1.44 0 1 1 -2,0.32 1.44,1.44 0 0 1 2,-0.32 z"
       id="path395" />
    <path
       class="cls-4"
       d="m 1441.7307,349.70672 a 1.44,1.44 0 1 1 -2,0.32 1.44,1.44 0 0 1 2,-0.32 z"
       id="path397" />
    <path
       class="cls-4"
       d="m 1447.5607,353.97672 a 1.44,1.44 0 1 1 -2,0.32 1.45,1.45 0 0 1 2,-0.32 z"
       id="path399" />
    <path
       class="cls-4"
       d="m 1446.7607,348.90672 a 1.44,1.44 0 1 1 -2,0.32 1.44,1.44 0 0 1 2,-0.32 z"
       id="path401" />
    <path
       class="cls-4"
       d="m 1441.2507,346.68672 a 1.44,1.44 0 1 1 -0.32,-2 1.44,1.44 0 0 1 0.32,2 z"
       id="path403" />
    <path
       class="cls-4"
       d="m 1442.5307,354.73672 a 1.43,1.43 0 0 1 0.54,1.54 l -1.4,-1.81 a 1.39,1.39 0 0 1 0.86,0.27 z"
       id="path405" />
    <path
       class="cls-4"
       d="m 1450.5107,340.06672 a 1.44,1.44 0 1 1 -0.31,-2 1.44,1.44 0 0 1 0.31,2 z"
       id="path407" />
    <path
       class="cls-4"
       d="m 1456.0207,342.28672 a 1.44,1.44 0 1 1 -2,0.32 1.44,1.44 0 0 1 2,-0.32 z"
       id="path409" />
    <path
       class="cls-4"
       d="m 1453.2107,337.57672 a 1.44,1.44 0 1 1 0.32,2 1.44,1.44 0 0 1 -0.32,-2 z"
       id="path411" />
    <path
       class="cls-4"
       d="m 1447.6707,335.35672 a 1.44,1.44 0 1 1 2,-0.32 1.43,1.43 0 0 1 -2,0.32 z"
       id="path413" />
    <path
       class="cls-4"
       d="m 1450.9907,343.08672 a 1.43,1.43 0 0 1 0.32,2 1.44,1.44 0 1 1 -2.33,-1.69 1.43,1.43 0 0 1 2.01,-0.31 z"
       id="path415" />
    <path
       class="cls-4"
       d="m 1443.4707,341.17672 a 1.4421252,1.4421252 0 0 1 1.7,-2.33 1.4421252,1.4421252 0 1 1 -1.7,2.33 z"
       id="path417" />
    <path
       class="cls-4"
       d="m 1446.2807,345.88672 a 1.44,1.44 0 1 1 -2.33,-1.69 1.45,1.45 0 0 1 2,-0.32 1.43,1.43 0 0 1 0.33,2.01 z"
       id="path419" />
    <path
       class="cls-4"
       d="m 1451.7907,348.11672 a 1.44,1.44 0 1 1 -2,0.31 1.45,1.45 0 0 1 2,-0.31 z"
       id="path421" />
    <path
       class="cls-4"
       d="m 1458.9807,328.41672 a 1.44,1.44 0 1 1 -0.32,-2 1.44,1.44 0 0 1 0.32,2 z"
       id="path423" />
    <path
       class="cls-4"
       d="m 1462.4707,330.97672 a 1.44,1.44 0 1 1 0.32,2 1.44,1.44 0 0 1 -0.32,-2 z"
       id="path425" />
    <path
       class="cls-4"
       d="m 1462.0007,327.97672 a 1.44,1.44 0 0 1 1.69,-2.33 1.45,1.45 0 0 1 0.32,2 1.43,1.43 0 0 1 -2.01,0.33 z"
       id="path427" />
    <path
       class="cls-4"
       d="m 1456.1707,323.70672 a 1.44,1.44 0 1 1 2,-0.32 1.44,1.44 0 0 1 -2,0.32 z"
       id="path429" />
    <path
       class="cls-4"
       d="m 1457.4407,331.75672 a 1.44,1.44 0 1 1 0.32,2 1.44,1.44 0 0 1 -0.32,-2 z"
       id="path431" />
    <path
       class="cls-4"
       d="m 1451.9407,329.52672 a 1.44,1.44 0 1 1 2,-0.31 1.44,1.44 0 0 1 -2,0.31 z"
       id="path433" />
    <path
       class="cls-4"
       d="m 1454.7507,334.23672 a 1.44,1.44 0 1 1 -0.32,-2 1.44,1.44 0 0 1 0.32,2 z"
       id="path435" />
    <path
       class="cls-4"
       d="m 1460.2507,336.46672 a 1.43,1.43 0 0 1 0.32,2 1.44,1.44 0 1 1 -0.32,-2 z"
       id="path437" />
    <path
       class="cls-4"
       d="m 1467.4407,316.76672 a 1.44,1.44 0 1 1 -0.32,-2 1.44,1.44 0 0 1 0.32,2 z"
       id="path439" />
    <path
       class="cls-4"
       d="m 1470.9407,319.30672 a 1.44,1.44 0 1 1 0.32,2 1.44,1.44 0 0 1 -0.32,-2 z"
       id="path441" />
    <path
       class="cls-4"
       d="m 1470.4607,316.28672 a 1.44,1.44 0 1 1 2,-0.32 1.44,1.44 0 0 1 -2,0.32 z"
       id="path443" />
    <path
       class="cls-4"
       d="m 1464.6707,312.05672 a 1.44,1.44 0 1 1 2,-0.32 1.44,1.44 0 0 1 -2,0.32 z"
       id="path445" />
    <path
       class="cls-4"
       d="m 1466.2307,322.11672 a 1.44,1.44 0 1 1 2,-0.32 1.45,1.45 0 0 1 -2,0.32 z"
       id="path447" />
    <path
       class="cls-4"
       d="m 1460.4007,317.87672 a 1.44,1.44 0 1 1 2,-0.31 1.45,1.45 0 0 1 -2,0.31 z"
       id="path449" />
    <path
       class="cls-4"
       d="m 1463.2107,322.58672 a 1.44,1.44 0 1 1 -2.33,-1.69 1.44,1.44 0 0 1 2.33,1.69 z"
       id="path451" />
    <path
       class="cls-4"
       d="m 1466.6707,325.12672 a 1.4421252,1.4421252 0 0 1 2.33,1.7 1.4421252,1.4421252 0 1 1 -2.33,-1.7 z"
       id="path453" />
    <path
       class="cls-4"
       d="m 1475.9107,305.11672 a 1.44,1.44 0 1 1 -0.32,-2 1.44,1.44 0 0 1 0.32,2 z"
       id="path455" />
    <path
       class="cls-4"
       d="m 1479.4007,307.65672 a 1.44,1.44 0 1 1 0.32,2 1.44,1.44 0 0 1 -0.32,-2 z"
       id="path457" />
    <path
       class="cls-4"
       d="m 1478.9207,304.63672 a 1.44,1.44 0 1 1 2,-0.32 1.45,1.45 0 0 1 -2,0.32 z"
       id="path459" />
    <path
       class="cls-4"
       d="m 1473.1007,300.40672 a 1.44,1.44 0 1 1 2,-0.32 1.44,1.44 0 0 1 -2,0.32 z"
       id="path461" />
    <path
       class="cls-4"
       d="m 1474.6707,310.46672 a 1.45,1.45 0 0 1 -0.32,-2 1.44,1.44 0 0 1 2.33,1.69 1.45,1.45 0 0 1 -2.01,0.31 z"
       id="path463" />
    <path
       class="cls-4"
       d="m 1468.8707,306.22672 a 1.43,1.43 0 0 1 -0.32,-2 1.44,1.44 0 1 1 0.32,2 z"
       id="path465" />
    <path
       class="cls-4"
       d="m 1471.6707,310.97672 a 1.43,1.43 0 0 1 -2,0.32 1.44,1.44 0 1 1 2,-0.32 z"
       id="path467" />
    <path
       class="cls-4"
       d="m 1475.1707,313.47672 a 1.44,1.44 0 1 1 0.32,2 1.44,1.44 0 0 1 -0.32,-2 z"
       id="path469" />
    <path
       class="cls-4"
       d="m 1484.3707,293.46672 a 1.44,1.44 0 1 1 -0.32,-2 1.44,1.44 0 0 1 0.32,2 z"
       id="path471" />
    <path
       class="cls-4"
       d="m 1487.8707,295.97672 a 1.44,1.44 0 1 1 0.31,2 1.44,1.44 0 0 1 -0.31,-2 z"
       id="path473" />
    <path
       class="cls-4"
       d="m 1489.4007,292.66672 a 1.44,1.44 0 1 1 -0.32,-2 1.43,1.43 0 0 1 0.32,2 z"
       id="path475" />
    <path
       class="cls-4"
       d="m 1481.5607,288.75672 a 1.44,1.44 0 1 1 2,-0.32 1.45,1.45 0 0 1 -2,0.32 z"
       id="path477" />
    <path
       class="cls-4"
       d="m 1483.1607,298.81672 a 1.44,1.44 0 1 1 1.69,-2.33 1.44,1.44 0 1 1 -1.69,2.33 z"
       id="path479" />
    <path
       class="cls-4"
       d="m 1477.3307,294.58672 a 1.44,1.44 0 1 1 1.69,-2.33 1.43,1.43 0 0 1 0.32,2 1.45,1.45 0 0 1 -2.01,0.33 z"
       id="path481" />
    <path
       class="cls-4"
       d="m 1480.1407,299.29672 a 1.44,1.44 0 1 1 -0.32,-2 1.44,1.44 0 0 1 0.32,2 z"
       id="path483" />
    <path
       class="cls-4"
       d="m 1483.6707,301.82672 a 1.44,1.44 0 1 1 0.32,2 1.46,1.46 0 0 1 -0.32,-2 z"
       id="path485" />
    <path
       class="cls-4"
       d="m 1490.8207,282.13672 a 1.44,1.44 0 1 1 2,-0.32 1.45,1.45 0 0 1 -2,0.32 z"
       id="path487" />
    <path
       class="cls-4"
       d="m 1490.0307,277.10672 a 1.44,1.44 0 1 1 2,-0.32 1.43,1.43 0 0 1 -2,0.32 z"
       id="path489" />
    <path
       class="cls-4"
       d="m 1491.6707,287.16672 a 1.44,1.44 0 1 1 2,-0.32 1.44,1.44 0 0 1 -2,0.32 z"
       id="path491" />
    <path
       class="cls-4"
       d="m 1485.7907,282.97672 a 1.44,1.44 0 1 1 2,-0.32 1.45,1.45 0 0 1 -2,0.32 z"
       id="path493" />
    <path
       class="cls-4"
       d="m 1488.6007,287.64672 a 1.44,1.44 0 1 1 -0.32,-2 1.44,1.44 0 0 1 0.32,2 z"
       id="path495" />
    <path
       class="cls-4"
       d="m 1492.1007,290.17672 a 1.44,1.44 0 1 1 0.32,2 1.44,1.44 0 0 1 -0.32,-2 z"
       id="path497" />
    <path
       class="cls-4"
       d="m 1435.9107,345.47672 a 1.45,1.45 0 0 1 0.32,2 v 0 l -1.71,-2.19 a 1.46,1.46 0 0 1 1.39,0.19 z"
       id="path499" />
    <path
       class="cls-4"
       d="m 1433.4207,342.77672 a 1.44,1.44 0 1 1 2,-0.32 1.45,1.45 0 0 1 -2,0.32 z"
       id="path501" />
    <path
       class="cls-4"
       d="m 1442.6707,336.15672 a 1.44,1.44 0 1 1 2,-0.32 1.44,1.44 0 0 1 -2,0.32 z"
       id="path503" />
    <path
       class="cls-4"
       d="m 1441.8807,331.12672 a 1.45,1.45 0 0 1 -0.32,-2 1.44,1.44 0 1 1 0.32,2 z"
       id="path505" />
    <path
       class="cls-4"
       d="m 1437.6707,336.97672 a 1.44,1.44 0 1 1 2,-0.32 1.44,1.44 0 0 1 -2,0.32 z"
       id="path507" />
    <path
       class="cls-4"
       d="m 1438.4507,341.97672 a 1.44,1.44 0 0 1 1.69,-2.33 1.45,1.45 0 0 1 0.32,2 1.43,1.43 0 0 1 -2.01,0.33 z"
       id="path509" />
    <path
       class="cls-4"
       d="m 1451.1407,324.50672 a 1.46,1.46 0 0 1 -0.32,-2 1.44,1.44 0 1 1 0.32,2 z"
       id="path511" />
    <path
       class="cls-4"
       d="m 1452.0407,317.14672 a 1.44,1.44 0 0 1 -1.69,2.33 1.41,1.41 0 0 1 -0.56,-0.87 l 1.35,-1.73 a 1.42,1.42 0 0 1 0.9,0.27 z"
       id="path513" />
    <path
       class="cls-4"
       d="m 1447.8107,322.97672 a 1.4421252,1.4421252 0 0 1 -1.7,2.33 1.42,1.42 0 0 1 -0.58,-1.25 l 1,-1.28 a 1.44,1.44 0 0 1 1.28,0.2 z"
       id="path515" />
    <path
       class="cls-4"
       d="m 1446.9107,330.32672 a 1.44,1.44 0 1 1 2,-0.32 1.44,1.44 0 0 1 -2,0.32 z"
       id="path517" />
    <path
       class="cls-4"
       d="m 1459.6107,312.85672 a 1.44,1.44 0 1 1 2,-0.32 1.44,1.44 0 0 1 -2,0.32 z"
       id="path519" />
    <path
       class="cls-4"
       d="m 1460.8207,307.50672 a 1.44,1.44 0 0 1 -2,0.32 1.29,1.29 0 0 1 -0.32,-0.34 l 1.69,-2.16 a 1.1,1.1 0 0 1 0.32,0.17 1.43,1.43 0 0 1 0.31,2.01 z"
       id="path521" />
    <path
       class="cls-4"
       d="m 1456.5907,313.32672 a 1.43,1.43 0 0 1 -2,0.32 1.4,1.4 0 0 1 -0.46,-0.57 l 1.56,-2 a 1.32,1.32 0 0 1 0.59,0.24 1.44,1.44 0 0 1 0.31,2.01 z"
       id="path523" />
    <path
       class="cls-4"
       d="m 1455.3707,318.67672 a 1.44,1.44 0 1 1 2,-0.32 1.44,1.44 0 0 1 -2,0.32 z"
       id="path525" />
    <path
       class="cls-4"
       d="m 1468.0707,301.20672 a 1.44,1.44 0 1 1 2,-0.32 1.44,1.44 0 0 1 -2,0.32 z"
       id="path527" />
    <path
       class="cls-4"
       d="m 1469.2907,295.85672 a 1.44,1.44 0 0 1 -2,0.34 l 1.76,-2.25 a 1.44,1.44 0 0 1 0.24,1.91 z"
       id="path529" />
    <path
       class="cls-4"
       d="m 1465.0507,301.67672 a 1.43,1.43 0 0 1 -2,0.32 l -0.15,-0.13 1.76,-2.25 0.08,0.05 a 1.43,1.43 0 0 1 0.31,2.01 z"
       id="path531" />
    <path
       class="cls-4"
       d="m 1463.8407,307.02672 a 1.44,1.44 0 1 1 2,-0.32 1.43,1.43 0 0 1 -2,0.32 z"
       id="path533" />
    <path
       class="cls-4"
       d="m 1476.5307,289.55672 a 1.44,1.44 0 1 1 2,-0.32 1.46,1.46 0 0 1 -2,0.32 z"
       id="path535" />
    <path
       class="cls-4"
       d="m 1477.7507,284.20672 a 1.45,1.45 0 0 1 -1.48,0.56 l 1.6,-2 a 1.42,1.42 0 0 1 -0.12,1.44 z"
       id="path537" />
    <path
       class="cls-4"
       d="m 1473.5207,290.02672 a 1.45,1.45 0 0 1 -1.74,0.48 l 1.71,-2.19 a 1.42,1.42 0 0 1 0.03,1.71 z"
       id="path539" />
    <path
       class="cls-4"
       d="m 1472.3007,295.37672 a 1.44,1.44 0 1 1 1.69,-2.33 1.44,1.44 0 1 1 -1.69,2.33 z"
       id="path541" />
    <path
       class="cls-4"
       d="m 1485.0007,277.90672 a 1.44,1.44 0 1 1 2,-0.32 1.45,1.45 0 0 1 -2,0.32 z"
       id="path543" />
    <path
       class="cls-4"
       d="m 1486.2107,272.55672 a 1.43,1.43 0 0 1 -0.81,0.54 l 1.08,-1.38 a 1.4,1.4 0 0 1 -0.27,0.84 z"
       id="path545" />
    <path
       class="cls-4"
       d="m 1481.9807,278.37672 a 1.43,1.43 0 0 1 -1.18,0.6 l 1.41,-1.8 a 1.45,1.45 0 0 1 -0.23,1.2 z"
       id="path547" />
    <path
       class="cls-4"
       d="m 1480.7707,283.72672 a 1.44,1.44 0 1 1 2,-0.32 1.43,1.43 0 0 1 -2,0.32 z"
       id="path549" />
    <path
       class="cls-4"
       d="m 1491.2407,271.75672 a 1.44,1.44 0 1 1 -2.33,-1.69 1.45,1.45 0 0 1 1.49,-0.56 c 0.34,0.68 0.65,1.37 1,2.06 a 0.72,0.72 0 0 1 -0.16,0.19 z"
       id="path551" />
    <path
       class="cls-3"
       d="m 1431.4507,341.43672 17.36,22.17 17.24,22 2.94,0.86 a 27.52,27.52 0 0 0 -19.56,19.08 l -1,-0.3 -17.16,-20.27 -17.14,-20.33 -34,-40.31 c -13.61,-15 -16.21,-38.32 -6.31,-56.52 z m -0.78,22.61 a 2,2 0 1 0 -2,-2 2,2 0 0 0 2,2 z"
       id="path553" />
    <line
       class="cls-5"
       x1="1430.4707"
       y1="385.64673"
       x2="1415.1707"
       y2="402.97672"
       id="line555" />
    <path
       class="cls-5"
       d="m 1432.6707,340.47672 56.86,-72.65 c 9.91,18.2 7.3,41.51 -6.3,56.52 l -32.48,37.74"
       id="path557" />
    <line
       class="cls-5"
       x1="1397.3307"
       y1="385.64673"
       x2="1413.0406"
       y2="365.56671"
       id="line559" />
    <path
       class="cls-5"
       d="m 1466.0507,385.64672 -17.24,-22 -17.36,-22.17 -57.6,-73.61 c -9.9,18.2 -7.3,41.51 6.31,56.52 l 34,40.31 17.11,20.28 17.11,20.3"
       id="path561" />
    <path
       class="cls-6"
       d="m 1430.7207,356.57672 a 5.5,5.5 0 1 0 5.49,5.52 5.5,5.5 0 0 0 -5.49,-5.52 z"
       id="path563" />
    <path
       class="cls-5"
       d="m 1449.4307,405.58672 a 27.49,27.49 0 1 0 26.44,-19.94 27.83,27.83 0 0 0 -6.88,0.86 27.52,27.52 0 0 0 -19.56,19.08 z"
       id="path565" />
    <circle
       class="cls-5"
       cx="1475.8707"
       cy="413.13672"
       r="11.78"
       id="circle567" />
    <path
       class="cls-5"
       d="m 1414.7707,402.34672 a 27.45,27.45 0 1 1 -17.74,-15.65 27.48,27.48 0 0 1 17.74,15.65 z"
       id="path569" />
    <circle
       class="cls-5"
       cx="1389.4707"
       cy="413.13672"
       r="11.78"
       id="circle571" />
  </g>
</svg>
